<svg xmlns="http://www.w3.org/2000/svg" width="606.458" height="304.25" viewBox="0 0 606.458 304.25">
  <g id="グループ_54" data-name="グループ 54" transform="translate(711.37 777.069)">
    <path id="パス_110" data-name="パス 110" d="M52.793-24.736H20.129v20.42a2.829,2.829,0,0,0,.6,1.93,4.023,4.023,0,0,0,2.054,1.058V0H5.1V-1.328A4.249,4.249,0,0,0,7.18-2.407a2.813,2.813,0,0,0,.581-1.909v-48.02a2.813,2.813,0,0,0-.581-1.909A4.249,4.249,0,0,0,5.1-55.325v-1.328H22.786v1.328a3.929,3.929,0,0,0-2.075,1.058,2.9,2.9,0,0,0-.581,1.93v18.262H52.793V-52.336a2.9,2.9,0,0,0-.581-1.93,3.929,3.929,0,0,0-2.075-1.058v-1.328H67.817v1.328a4.249,4.249,0,0,0-2.075,1.079,2.813,2.813,0,0,0-.581,1.909v48.02a2.813,2.813,0,0,0,.581,1.909,4.249,4.249,0,0,0,2.075,1.079V0H50.137V-1.328a4.023,4.023,0,0,0,2.054-1.058,2.829,2.829,0,0,0,.6-1.93Zm82.883-27.559v31.75q0,9.006-3.32,13.489Q126.379,1,107.661,1q-13.53,0-20.71-4.358a13.307,13.307,0,0,1-5.811-6.89,30.04,30.04,0,0,1-1.577-10.293v-31.75a2.882,2.882,0,0,0-.581-1.951,4.249,4.249,0,0,0-2.075-1.079v-1.328H94.587v1.328a3.979,3.979,0,0,0-2.064,1.058,2.928,2.928,0,0,0-.592,1.971v28.264a35.259,35.259,0,0,0,.54,7.242A8.271,8.271,0,0,0,94.5-12.866q3.984,4.233,13.613,4.233,9.67,0,13.655-4.233a8.466,8.466,0,0,0,1.992-3.922,35.259,35.259,0,0,0,.54-7.242V-52.295a2.882,2.882,0,0,0-.581-1.951,4.249,4.249,0,0,0-2.075-1.079v-1.328h16.685v1.328a4.249,4.249,0,0,0-2.075,1.079A2.882,2.882,0,0,0,135.676-52.295ZM182.264,0l-20.9-39.138v34.78a2.882,2.882,0,0,0,.581,1.951,4.249,4.249,0,0,0,2.075,1.079V0H147.38V-1.328a4.249,4.249,0,0,0,2.075-1.079,2.882,2.882,0,0,0,.581-1.951V-52.336a2.813,2.813,0,0,0-.581-1.909,4.249,4.249,0,0,0-2.075-1.079v-1.328h21.838v1.328a2.231,2.231,0,0,0-1.951,2.283,4.138,4.138,0,0,0,.581,1.909L183.3-21.847l15.662-28.787A6.947,6.947,0,0,0,200-53.416q0-1.7-2.075-1.909v-1.328h21.421v1.328a4.249,4.249,0,0,0-2.075,1.079,2.813,2.813,0,0,0-.581,1.909V-4.358a2.882,2.882,0,0,0,.581,1.951,4.249,4.249,0,0,0,2.075,1.079V0H201.667V-1.328a4.023,4.023,0,0,0,2.054-1.058,2.9,2.9,0,0,0,.6-1.971v-34.78Zm88.752-14.443H245.268l-3.813,7.969a6.653,6.653,0,0,0-.789,2.615q0,1.826,2.775,2.532V0H224.7V-1.328a5.022,5.022,0,0,0,2.532-1.162,11.4,11.4,0,0,0,1.992-3.237l20.835-43.538a8.286,8.286,0,0,0,1-3.32q0-1.909-2.407-2.739v-1.328h20.088v1.328q-2.449.706-2.449,2.449a6.131,6.131,0,0,0,.789,2.739L288.66-6.475a14.79,14.79,0,0,0,2.407,3.8,5.269,5.269,0,0,0,2.781,1.349V0H272.992V-1.328q2.748-.457,2.748-2.573a6.648,6.648,0,0,0-.83-2.573ZM267.458-22.2l-9.187-20.181L248.936-22.2Zm45.191-16.6V-4.358a2.882,2.882,0,0,0,.581,1.951,4.249,4.249,0,0,0,2.075,1.079V0H298.662V-1.328a4.249,4.249,0,0,0,2.075-1.079,2.882,2.882,0,0,0,.581-1.951V-52.336a2.813,2.813,0,0,0-.581-1.909,4.249,4.249,0,0,0-2.075-1.079v-1.328H317.92v1.328q-1.785.457-1.785,1.909a3.376,3.376,0,0,0,1.162,2.2l31.252,32.5V-52.336a2.813,2.813,0,0,0-.581-1.909,4.249,4.249,0,0,0-2.075-1.079v-1.328h16.643v1.328a4.249,4.249,0,0,0-2.075,1.079,2.813,2.813,0,0,0-.581,1.909V-4.358a2.882,2.882,0,0,0,.581,1.951,4.249,4.249,0,0,0,2.075,1.079V0H344.69V-1.328q1.743-.374,1.743-1.785,0-.83-2.034-2.905Z" transform="translate(-715.103 -720.416)" fill="#1a1311"/>
    <path id="パス_111" data-name="パス 111" d="M7.761-4.358V-52.336a2.813,2.813,0,0,0-.581-1.909A4.249,4.249,0,0,0,5.1-55.325v-1.328H22.786v1.328a3.929,3.929,0,0,0-2.075,1.058,2.9,2.9,0,0,0-.581,1.93V-4.358a2.9,2.9,0,0,0,.6,1.971,4.023,4.023,0,0,0,2.054,1.058V0H5.1V-1.328A4.249,4.249,0,0,0,7.18-2.407,2.882,2.882,0,0,0,7.761-4.358Zm39.18-34.448V-4.358a2.882,2.882,0,0,0,.581,1.951A4.249,4.249,0,0,0,49.6-1.328V0H32.954V-1.328a4.249,4.249,0,0,0,2.075-1.079,2.882,2.882,0,0,0,.581-1.951V-52.336a2.813,2.813,0,0,0-.581-1.909,4.249,4.249,0,0,0-2.075-1.079v-1.328H52.212v1.328q-1.785.457-1.785,1.909a3.376,3.376,0,0,0,1.162,2.2l31.252,32.5V-52.336a2.813,2.813,0,0,0-.581-1.909,4.249,4.249,0,0,0-2.075-1.079v-1.328H96.829v1.328a4.249,4.249,0,0,0-2.075,1.079,2.813,2.813,0,0,0-.581,1.909V-4.358a2.882,2.882,0,0,0,.581,1.951,4.249,4.249,0,0,0,2.075,1.079V0H78.982V-1.328q1.743-.374,1.743-1.785,0-.83-2.034-2.905Zm74.084,0V-4.358a2.882,2.882,0,0,0,.581,1.951,4.249,4.249,0,0,0,2.075,1.079V0H107.039V-1.328a4.249,4.249,0,0,0,2.075-1.079,2.882,2.882,0,0,0,.581-1.951V-52.336a2.813,2.813,0,0,0-.581-1.909,4.249,4.249,0,0,0-2.075-1.079v-1.328H126.3v1.328q-1.785.457-1.785,1.909a3.376,3.376,0,0,0,1.162,2.2l31.252,32.5V-52.336a2.813,2.813,0,0,0-.581-1.909,4.249,4.249,0,0,0-2.075-1.079v-1.328h16.643v1.328a4.249,4.249,0,0,0-2.075,1.079,2.813,2.813,0,0,0-.581,1.909V-4.358a2.882,2.882,0,0,0,.581,1.951,4.249,4.249,0,0,0,2.075,1.079V0H153.066V-1.328q1.743-.374,1.743-1.785,0-.83-2.034-2.905Zm91.246-18.843q14.826,0,23.506,8.01,9.178,8.384,9.178,21.665a28.183,28.183,0,0,1-4.4,15.19Q231.957,1,212.355,1q-14.7,0-23.382-8.01a27.9,27.9,0,0,1-7.06-10.251,29.444,29.444,0,0,1-2.118-11.082,29.027,29.027,0,0,1,4.361-15.564Q192.5-57.4,212.272-57.649Zm.042,9.629a19.558,19.558,0,0,0-13.5,4.809,18.954,18.954,0,0,0-6.4,14.884,18.954,18.954,0,0,0,6.4,14.884A19.673,19.673,0,0,0,212.4-8.633a19.519,19.519,0,0,0,13.545-4.809,18.882,18.882,0,0,0,4.9-7.007,20.128,20.128,0,0,0,1.5-7.628q0-9.619-6.4-15.133A20.373,20.373,0,0,0,212.313-48.02Zm69.519,31.551,15.034-33.252A8.787,8.787,0,0,0,297.821-53q0-1.785-2.74-2.324v-1.328h19.394v1.328a4.081,4.081,0,0,0-2.533,1.038,24.574,24.574,0,0,0-2.45,4.565L289.848-7.346A11.672,11.672,0,0,0,288.6-3.818q0,2.117,2.615,2.49V0H271.7V-1.328q2.615-.374,2.615-2.532a11.835,11.835,0,0,0-1.246-3.486L253.426-49.722a24.575,24.575,0,0,0-2.45-4.565,4.081,4.081,0,0,0-2.533-1.038v-1.328h20.126v1.328q-2.739.54-2.739,2.324a8.792,8.792,0,0,0,.955,3.279Zm78.957,2.026H335.041l-3.813,7.969a6.653,6.653,0,0,0-.789,2.615q0,1.826,2.775,2.532V0H314.475V-1.328a5.022,5.022,0,0,0,2.532-1.162A11.4,11.4,0,0,0,319-5.728l20.835-43.538a8.286,8.286,0,0,0,1-3.32q0-1.909-2.407-2.739v-1.328h20.088v1.328q-2.449.706-2.449,2.449a6.131,6.131,0,0,0,.789,2.739L378.433-6.475a14.79,14.79,0,0,0,2.407,3.8,5.269,5.269,0,0,0,2.781,1.349V0H362.765V-1.328q2.748-.457,2.748-2.573a6.648,6.648,0,0,0-.83-2.573ZM357.231-22.2l-9.187-20.181L338.709-22.2Zm60.962-25.11V-4.358a2.882,2.882,0,0,0,.581,1.951,4.249,4.249,0,0,0,2.075,1.079V0H403.169V-1.328a4.249,4.249,0,0,0,2.075-1.079,2.882,2.882,0,0,0,.581-1.951V-47.314h-17.6a2.853,2.853,0,0,0-1.909.569,4.186,4.186,0,0,0-1.079,2.087h-1.328V-59.309h1.328a4.562,4.562,0,0,0,1.1,2.084,2.76,2.76,0,0,0,1.888.572H435.75a2.913,2.913,0,0,0,1.951-.572,4.2,4.2,0,0,0,1.079-2.084h1.328v14.651h-1.328a4.186,4.186,0,0,0-1.079-2.087,2.924,2.924,0,0,0-1.951-.569ZM448.408-4.358V-52.336a2.813,2.813,0,0,0-.581-1.909,4.249,4.249,0,0,0-2.075-1.079v-1.328h17.681v1.328a3.929,3.929,0,0,0-2.075,1.058,2.9,2.9,0,0,0-.581,1.93V-4.358a2.9,2.9,0,0,0,.6,1.971,4.023,4.023,0,0,0,2.054,1.058V0H445.752V-1.328a4.249,4.249,0,0,0,2.075-1.079A2.882,2.882,0,0,0,448.408-4.358ZM504.75-57.649q14.826,0,23.506,8.01,9.178,8.384,9.178,21.665a28.183,28.183,0,0,1-4.4,15.19Q524.435,1,504.833,1q-14.7,0-23.382-8.01a27.9,27.9,0,0,1-7.06-10.251,29.444,29.444,0,0,1-2.118-11.082,29.027,29.027,0,0,1,4.361-15.564Q484.981-57.4,504.75-57.649Zm.042,9.629a19.558,19.558,0,0,0-13.5,4.809,18.954,18.954,0,0,0-6.4,14.884,18.954,18.954,0,0,0,6.4,14.884,19.673,19.673,0,0,0,13.586,4.809,19.52,19.52,0,0,0,13.545-4.809,18.883,18.883,0,0,0,4.9-7.007,20.129,20.129,0,0,0,1.5-7.628q0-9.619-6.4-15.133A20.373,20.373,0,0,0,504.791-48.02ZM560.3-38.806V-4.358a2.882,2.882,0,0,0,.581,1.951,4.249,4.249,0,0,0,2.075,1.079V0H546.316V-1.328a4.249,4.249,0,0,0,2.075-1.079,2.882,2.882,0,0,0,.581-1.951V-52.336a2.813,2.813,0,0,0-.581-1.909,4.249,4.249,0,0,0-2.075-1.079v-1.328h19.258v1.328q-1.785.457-1.785,1.909a3.376,3.376,0,0,0,1.162,2.2l31.252,32.5V-52.336a2.813,2.813,0,0,0-.581-1.909,4.249,4.249,0,0,0-2.075-1.079v-1.328H610.19v1.328a4.249,4.249,0,0,0-2.075,1.079,2.813,2.813,0,0,0-.581,1.909V-4.358a2.882,2.882,0,0,0,.581,1.951,4.249,4.249,0,0,0,2.075,1.079V0H592.344V-1.328q1.743-.374,1.743-1.785,0-.83-2.034-2.905Z" transform="translate(-715.103 -596.61)" fill="#1a1311"/>
    <path id="パス_109" data-name="パス 109" d="M59.309-19.236,67.1-7.567l-1.066.74A3.2,3.2,0,0,0,64.148-7.9q-.738,0-4.143,1.973A57.594,57.594,0,0,1,48.132-.434,40.882,40.882,0,0,1,36.668.984Q23.42.984,14.93-5.291a26.4,26.4,0,0,1-7.875-9.064A28.431,28.431,0,0,1,3.732-28.014,27.617,27.617,0,0,1,9.68-45.691q8.941-11.279,27.029-11.279a40.877,40.877,0,0,1,11.4,1.395,58.075,58.075,0,0,1,11.895,5.5q3.4,1.928,4.143,1.928a3.2,3.2,0,0,0,1.887-1.066l1.066.738L59.309-36.791,58.2-37.527a9.1,9.1,0,0,0,.082-1.1,3.145,3.145,0,0,0-1.025-2.227,17.277,17.277,0,0,0-3.65-2.513,30.889,30.889,0,0,0-15.381-4.086q-9.6,0-15.3,4.794A18.19,18.19,0,0,0,16.2-27.993a18.19,18.19,0,0,0,6.727,14.668q5.7,4.794,15.3,4.794a30.8,30.8,0,0,0,15.381-4.1,17.26,17.26,0,0,0,3.65-2.522,3.163,3.163,0,0,0,1.025-2.235,8.221,8.221,0,0,0-.082-1.066Zm46.983-37.734q14.652,0,23.23,7.916,9.07,8.285,9.07,21.41a27.851,27.851,0,0,1-4.35,15.012Q125.746.984,106.374.984q-14.529,0-23.107-7.916A27.566,27.566,0,0,1,76.29-17.062,29.1,29.1,0,0,1,74.2-28.014a28.685,28.685,0,0,1,4.309-15.381Q86.756-56.725,106.292-56.971Zm.041,9.516A19.327,19.327,0,0,0,92.989-42.7a18.731,18.731,0,0,0-6.323,14.709,18.731,18.731,0,0,0,6.323,14.709,19.442,19.442,0,0,0,13.426,4.753A19.29,19.29,0,0,0,119.8-13.284a18.66,18.66,0,0,0,4.845-6.925,19.892,19.892,0,0,0,1.478-7.539q0-9.506-6.323-14.955A20.133,20.133,0,0,0,106.333-47.455ZM181.843,0,161.191-38.678V-4.307a2.848,2.848,0,0,0,.574,1.928,4.2,4.2,0,0,0,2.051,1.066V0H147.369V-1.312a4.2,4.2,0,0,0,2.051-1.066,2.848,2.848,0,0,0,.574-1.928V-51.721a2.78,2.78,0,0,0-.574-1.887,4.2,4.2,0,0,0-2.051-1.066v-1.312H168.95v1.313a2.2,2.2,0,0,0-1.928,2.256,4.09,4.09,0,0,0,.574,1.887L182.869-21.59l15.478-28.449a6.865,6.865,0,0,0,1.025-2.748q0-1.682-2.051-1.887v-1.312H218.49v1.313a4.2,4.2,0,0,0-2.051,1.066,2.78,2.78,0,0,0-.574,1.887V-4.307a2.848,2.848,0,0,0,.574,1.928,4.2,4.2,0,0,0,2.051,1.066V0H201.018V-1.312a3.976,3.976,0,0,0,2.03-1.046,2.863,2.863,0,0,0,.595-1.948V-38.678Zm81.17,0L242.361-38.678V-4.307a2.848,2.848,0,0,0,.574,1.928,4.2,4.2,0,0,0,2.051,1.066V0H228.539V-1.312a4.2,4.2,0,0,0,2.051-1.066,2.848,2.848,0,0,0,.574-1.928V-51.721a2.78,2.78,0,0,0-.574-1.887,4.2,4.2,0,0,0-2.051-1.066v-1.312H250.12v1.313a2.2,2.2,0,0,0-1.928,2.256,4.09,4.09,0,0,0,.574,1.887L264.039-21.59l15.478-28.449a6.865,6.865,0,0,0,1.025-2.748q0-1.682-2.051-1.887v-1.312H299.66v1.313a4.2,4.2,0,0,0-2.051,1.066,2.78,2.78,0,0,0-.574,1.887V-4.307a2.848,2.848,0,0,0,.574,1.928,4.2,4.2,0,0,0,2.051,1.066V0H282.188V-1.312a3.976,3.976,0,0,0,2.03-1.046,2.863,2.863,0,0,0,.595-1.948V-38.678ZM366.68-51.68V-20.3q0,8.9-3.281,13.33Q357.492.984,338.994.984q-13.371,0-20.467-4.307a13.15,13.15,0,0,1-5.742-6.809A29.686,29.686,0,0,1,311.227-20.3V-51.68a2.848,2.848,0,0,0-.574-1.928,4.2,4.2,0,0,0-2.051-1.066v-1.312h17.473v1.313a3.932,3.932,0,0,0-2.04,1.046,2.893,2.893,0,0,0-.585,1.948v27.932a34.844,34.844,0,0,0,.533,7.157,8.174,8.174,0,0,0,2.01,3.876q3.938,4.184,13.453,4.184,9.557,0,13.494-4.184a8.366,8.366,0,0,0,1.969-3.876,34.844,34.844,0,0,0,.533-7.157V-51.68a2.848,2.848,0,0,0-.574-1.928,4.2,4.2,0,0,0-2.051-1.066v-1.312H369.3v1.313a4.2,4.2,0,0,0-2.051,1.066A2.848,2.848,0,0,0,366.68-51.68Zm25.389,13.33V-4.307a2.848,2.848,0,0,0,.574,1.928,4.2,4.2,0,0,0,2.051,1.066V0H378.246V-1.312A4.2,4.2,0,0,0,380.3-2.379a2.848,2.848,0,0,0,.574-1.928V-51.721a2.78,2.78,0,0,0-.574-1.887,4.2,4.2,0,0,0-2.051-1.066v-1.312h19.031v1.313q-1.764.451-1.764,1.887a3.336,3.336,0,0,0,1.148,2.174L427.547-18.5V-51.721a2.78,2.78,0,0,0-.574-1.887,4.2,4.2,0,0,0-2.051-1.066v-1.312h16.447v1.313a4.2,4.2,0,0,0-2.051,1.066,2.78,2.78,0,0,0-.574,1.887V-4.307a2.848,2.848,0,0,0,.574,1.928,4.2,4.2,0,0,0,2.051,1.066V0H423.732V-1.312q1.723-.369,1.723-1.764,0-.82-2.01-2.871ZM454.084-4.307V-51.721a2.78,2.78,0,0,0-.574-1.887,4.2,4.2,0,0,0-2.051-1.066v-1.312h17.473v1.313a3.882,3.882,0,0,0-2.051,1.046,2.863,2.863,0,0,0-.574,1.907V-4.307a2.863,2.863,0,0,0,.595,1.948,3.976,3.976,0,0,0,2.03,1.046V0H451.459V-1.312a4.2,4.2,0,0,0,2.051-1.066A2.848,2.848,0,0,0,454.084-4.307Zm54.3-42.451V-4.307a2.848,2.848,0,0,0,.574,1.928,4.2,4.2,0,0,0,2.051,1.066V0H493.541V-1.312a4.2,4.2,0,0,0,2.051-1.066,2.848,2.848,0,0,0,.574-1.928V-46.758H478.775a2.819,2.819,0,0,0-1.887.562,4.137,4.137,0,0,0-1.066,2.063H474.51V-58.611h1.313a4.508,4.508,0,0,0,1.087,2.06,2.727,2.727,0,0,0,1.866.565h46.963a2.879,2.879,0,0,0,1.928-.565,4.152,4.152,0,0,0,1.066-2.06h1.313v14.479h-1.312a4.137,4.137,0,0,0-1.066-2.063,2.889,2.889,0,0,0-1.928-.562ZM566.631-23.44V-4.309a2.814,2.814,0,0,0,.585,1.929,4.264,4.264,0,0,0,2.04,1.067V0H551.7V-1.312a4.509,4.509,0,0,0,2.092-1.067,2.724,2.724,0,0,0,.615-1.929V-23.44L536.32-48.894a26.148,26.148,0,0,0-3.671-4.406,6.049,6.049,0,0,0-3.179-1.373v-1.312h22.106v1.313q-2.748.451-2.748,2.541,0,.738,1.682,3.238L560.6-33.915l10.38-14.98q1.682-2.418,1.682-3.279a2.12,2.12,0,0,0-.738-1.619,3.794,3.794,0,0,0-2.01-.881v-1.312h21.653v1.313A6.049,6.049,0,0,0,588.39-53.3a26.148,26.148,0,0,0-3.671,4.406Z" transform="translate(-715.103 -473.803)" fill="#1a1311"/>
  </g>
</svg>
