<svg xmlns="http://www.w3.org/2000/svg" width="399.374" height="138.695" viewBox="0 0 399.374 138.695">
  <g id="グループ_54" data-name="グループ 54" transform="translate(35.374 678.425)">
    <path id="パス_26" data-name="パス 26" d="M30.839,2.507A4.645,4.645,0,0,0,34.6,3.892,9.849,9.849,0,0,0,39.153,3c.248-.149.346-.446.744-.446,1.039,0,5.295,2.672,5.295,3.86a1.272,1.272,0,0,1-.595.94c-.989.842-7.621,6.779-7.621,7.324,0,.1.149.1.4.1a30.808,30.808,0,0,0,6.186-1.089,7.865,7.865,0,0,0,2.573-1.733,6.034,6.034,0,0,1,3.267-.792,1.622,1.622,0,0,1,.89.248c.545.444,1.88,1.435,1.88,2.127a1.514,1.514,0,0,1-1.138,1.337,47.241,47.241,0,0,1-5.1,1.286A6.829,6.829,0,0,0,42.866,17.4c-5.295,3.91-7.82,7.424-7.82,12.768,0,4.256,1.733,6.235,2.969,6.879a30.16,30.16,0,0,0,5,1.731c.991.248,1.584.991,1.584,2.475,0,.643-.3,1.236-.989,1.236a19.7,19.7,0,0,1-5.79-1.435c-3.711-1.435-5.048-6.383-5.048-10.887,0-4.652,5.1-10,8.264-13.115.149-.149.2-.247.2-.3,0-.1-.05-.1-.2-.1A65.454,65.454,0,0,0,34.2,17.948a10.251,10.251,0,0,0-2.969,1.236A28.205,28.205,0,0,1,25.2,21.312c-.5,0-.891-.247-.891-1.88,0-3.118.5-3.168,2.177-3.217a13.6,13.6,0,0,0,7.276-2.425,21.605,21.605,0,0,0,4.3-5.542c-3.118-.149-5.691-.3-7.77-5.345Z" transform="translate(8.714 -662.709)" fill="#1a1311"/>
    <path id="パス_27" data-name="パス 27" d="M43.754,43.267A20.8,20.8,0,0,1,37.761,41.8c-3.4-1.313-5.424-5.585-5.424-11.429,0-4.334,3.957-9.024,7.688-12.779-.921.161-2.313.45-4.315.864l-1.243.258A9.721,9.721,0,0,0,31.7,19.867c-.835.471-5.2,2.22-6.351,2.22-1.468,0-1.468-1.722-1.468-2.459,0-3.251.583-3.73,2.738-3.793a13.089,13.089,0,0,0,6.928-2.3,20.647,20.647,0,0,0,3.714-4.566c-2.762-.18-5.342-.781-7.349-5.652L29.735,2.9,31.07,1.93l.348.391a4.1,4.1,0,0,0,3.329,1.192,9.419,9.419,0,0,0,4.239-.8.671.671,0,0,0,.121-.106,1.237,1.237,0,0,1,.936-.434c1.221,0,5.873,2.833,5.873,4.439a1.831,1.831,0,0,1-.825,1.4c-1.078.917-5.247,4.688-6.832,6.343a34.954,34.954,0,0,0,5.279-1.024,4.848,4.848,0,0,0,1.752-1.11c.2-.166.4-.342.631-.523a6.733,6.733,0,0,1,3.625-.915,2.205,2.205,0,0,1,1.177.322l.272.209c1,.8,1.9,1.593,1.9,2.421a2.082,2.082,0,0,1-1.548,1.888,47.676,47.676,0,0,1-5.157,1.3,6.206,6.206,0,0,0-2.831,1.131C37.9,22.1,35.771,25.545,35.771,30.367c0,3.675,1.372,5.7,2.656,6.367a22.449,22.449,0,0,0,3.9,1.4q.505.145,1.007.3c.894.223,1.993.937,1.993,3.028a1.613,1.613,0,0,1-1.568,1.813M36.5,23.337c-1.655,2.243-3.008,4.758-3.008,7.03,0,2,.337,8.671,4.679,10.35a18.786,18.786,0,0,0,5.581,1.4c.358,0,.412-.413.412-.659,0-1.443-.612-1.781-1.146-1.915L42,39.24a23.269,23.269,0,0,1-4.1-1.478c-.777-.4-3.288-2.119-3.288-7.4a12.864,12.864,0,0,1,1.887-7.03M31.4,3.825c1.85,3.8,3.976,3.906,6.84,4.043l.868.042-.374.784a22.179,22.179,0,0,1-4.471,5.75,14.118,14.118,0,0,1-7.606,2.546c-1.5.044-1.624.047-1.624,2.639,0,1.121.2,1.29.2,1.291h.011A27.188,27.188,0,0,0,31.1,18.878a10.77,10.77,0,0,1,3.126-1.3l1.251-.26a46.023,46.023,0,0,1,5.7-1.04c.721,0,.777.518.777.676a1.018,1.018,0,0,1-.369.706c-.474.466-1.114,1.1-1.828,1.847a34.846,34.846,0,0,1,2.909-2.374,7.4,7.4,0,0,1,3.3-1.34,46.922,46.922,0,0,0,5.01-1.262.977.977,0,0,0,.761-.795c-.009-.164-.272-.561-1.467-1.519l-.2-.162a1.047,1.047,0,0,0-.525-.117,5.525,5.525,0,0,0-2.915.674c-.212.166-.407.333-.593.491a5.949,5.949,0,0,1-2.156,1.333,31.644,31.644,0,0,1-6.361,1.115c-.242,0-.974,0-.974-.676,0-1.015,7.746-7.7,7.825-7.765.313-.238.389-.428.389-.5C44.676,5.8,40.9,3.331,40.041,3.331a.383.383,0,0,0-.117.094,1.661,1.661,0,0,1-.327.27,10.282,10.282,0,0,1-4.851.973A5.881,5.881,0,0,1,31.4,3.825" transform="translate(8.566 -662.907)" fill="#1a1311"/>
    <path id="パス_28" data-name="パス 28" d="M56.322,18.024c.267-1.6,1.735-9.016,1.735-10.217a3.578,3.578,0,0,0-.066-.835l.3-.168a4.875,4.875,0,0,1,.936,2c0,.067-.034.166-.034.267A116.5,116.5,0,0,0,57.958,20.7c.8-.4,1.5-.769,2.036-1.068a101.83,101.83,0,0,0,10.017-5.743,8.217,8.217,0,0,0,1.535-1.836.911.911,0,0,1,.8-.4,3.651,3.651,0,0,1,1.068.2c.868.267,1.3.467,1.3,1.035,0,.1-.034.166-.034.267a26.653,26.653,0,0,0-.434,4.64c0,3.539.835,6.41,1.9,7.613.534.534.934.934.934,2.637,0,.668-.166,1-.934,1-1.569.067-3.773.969-5.609,1.537l-.168-.267c.668-.368,2.471-1.5,3.173-1.937.366-.267.566-.467.566-.768,0-.234-1.235-3.606-1.435-4.307a31.749,31.749,0,0,1-.835-7.379c-.034-.634-.234-.834-.568-.834-.5,0-5.843,1.969-13.355,6.977-.034,2.2.1,5.91.234,8.214.034.467.034.835.034,1.2,0,.7-.034,2.738-1.5,2.738a2.18,2.18,0,0,1-1.537-.868c-.366-.5-.366-.667-.366-1.7a43.789,43.789,0,0,0-.769-6.845,31.622,31.622,0,0,0-4.274,3.439,1.461,1.461,0,0,1-.968.468,1.749,1.749,0,0,1-.968-.435,1.69,1.69,0,0,1-.668-1.6,24,24,0,0,1,.168-2.57c.066-.768.5-.936.9-1.2a11.291,11.291,0,0,0,1.035-.734,37.983,37.983,0,0,0,2.871-3.172,1.453,1.453,0,0,1,.835-.368,1.635,1.635,0,0,1,1.3,1.4c0,.2-.2,1.3-.2,1.535a6.253,6.253,0,0,0,.168,1.1l1.5-.768Zm-2.671,4.907c-.1-.6-.234-1.134-.267-1.5-.034-.234-.168-.368-.334-.368-.534,0-2.137,2.271-2.137,2.671,0,.168.133.267.334.267a10.105,10.105,0,0,0,2.4-1.068m1.8.868c-.267.2-.568.368-.8.534a13.487,13.487,0,0,0,.534,1.535Z" transform="translate(16.527 -661.239)" fill="#1a1311"/>
    <path id="パス_29" data-name="パス 29" d="M56.788,34.737a2.543,2.543,0,0,1-1.847-1.024c-.444-.607-.444-.889-.444-1.937a39.95,39.95,0,0,0-.659-6.165,28.538,28.538,0,0,0-3.66,2.981l-.074.067a1.854,1.854,0,0,1-1.228.568,2.115,2.115,0,0,1-1.2-.509A2.078,2.078,0,0,1,46.85,26.8a23.685,23.685,0,0,1,.17-2.615,1.64,1.64,0,0,1,.925-1.389l.313-.2a9.78,9.78,0,0,0,.839-.6,13.266,13.266,0,0,0,1.837-1.986,13.1,13.1,0,0,1,1.012-1.166,1.82,1.82,0,0,1,1.1-.475,2.009,2.009,0,0,1,1.693,1.792c0,.1-.047.435-.1.777-.048.317-.1.646-.1.758a3.448,3.448,0,0,0,.059.521l.867-.443.57-3.68c.074-.44.238-1.318.438-2.385.483-2.592,1.294-6.931,1.294-7.767a3.237,3.237,0,0,0-.055-.74l-.072-.29.866-.482.2.283a4.848,4.848,0,0,1,1.007,2.229,1.051,1.051,0,0,1-.02.177l-.063.455c-.332,2.254-.878,5.955-1.149,10.6.546-.279,1.028-.536,1.419-.756A103.9,103.9,0,0,0,69.874,13.7a4.95,4.95,0,0,0,1.09-1.242c.122-.183.239-.358.38-.532.494-.635,1.1-.691,2.286-.326.74.228,1.577.486,1.577,1.408a.982.982,0,0,1-.024.208l-.015.126a26.487,26.487,0,0,0-.428,4.574c0,3.676.907,6.342,1.805,7.353.548.548,1.032,1.033,1.032,2.9,0,.648-.149,1.392-1.323,1.392a16.946,16.946,0,0,0-4.041,1.04c-.5.168-.987.333-1.454.478l-.287.089-.544-.871.362-.2c.523-.287,1.781-1.07,2.612-1.589l.542-.337c.317-.232.383-.336.383-.436-.03-.154-.46-1.391-.776-2.294-.286-.823-.558-1.607-.644-1.906a27.848,27.848,0,0,1-.821-6.684c-.008-.323-.016-.588-.028-.777-.024-.47-.121-.47-.179-.47-.549.048-5.7,1.974-12.968,6.8-.023,2.165.1,5.686.236,7.981.034.472.034.85.034,1.224,0,2.586-1.028,3.129-1.892,3.129m-2.24-9.6a42.516,42.516,0,0,1,.727,6.643c0,1.013,0,1.074.293,1.472a1.792,1.792,0,0,0,1.22.709c.74,0,1.114-.789,1.114-2.349,0-.358,0-.717-.034-1.173-.138-2.389-.268-6.088-.234-8.248l0-.205.17-.113c2.091-1.395,4.044-2.57,5.784-3.537-1.172.634-2.321,1.242-3.315,1.769-.53.3-1.236.667-2.046,1.072l-.6.3.034-.667c.258-5,.844-8.973,1.195-11.347l.046-.309a.834.834,0,0,1,.021-.172,2.472,2.472,0,0,0-.381-1.072v.032c0,.839-.619,4.221-1.309,7.911-.2,1.059-.361,1.93-.432,2.368l-.631,4.067L54.05,23.37l-.005-.019-.752.379a5.641,5.641,0,0,1-1.948.791.67.67,0,0,1-.722-.658c0-.506,1.7-3.06,2.526-3.06a.7.7,0,0,1,.655.463c.019-.125.042-.275.067-.45.043-.287.089-.564.091-.659a1.291,1.291,0,0,0-.914-1.012,1.138,1.138,0,0,0-.6.289c-.221.215-.557.627-.91,1.064a13.641,13.641,0,0,1-1.957,2.1,9.7,9.7,0,0,1-.9.643l-.326.213a.9.9,0,0,0-.566.807,23.436,23.436,0,0,0-.166,2.537,1.328,1.328,0,0,0,.526,1.3c.721.521.91.444,1.428-.021a31.943,31.943,0,0,1,4.308-3.467l.415-.3,0-.012.221-.158c.109-.078.231-.156.358-.236.144-.091.3-.188.436-.293l.738-.552-.573,4.428-.56-1.345c-.14-.341-.267-.68-.377-1.016M71.379,14.825c.593,0,.915.405.957,1.2.012.192.02.466.028.8a27.142,27.142,0,0,0,.792,6.491c.085.294.352,1.062.632,1.866a16.263,16.263,0,0,1,.817,2.55,1.367,1.367,0,0,1-.727,1.083l-.564.352c-.25.156-.537.336-.832.518a15.077,15.077,0,0,1,3.754-.907c.5,0,.562-.074.562-.612,0-1.541-.326-1.867-.82-2.361-1.232-1.385-2.017-4.475-2.017-7.888a27.343,27.343,0,0,1,.439-4.708.549.549,0,0,1,.019-.142c.009-.3-.089-.435-1.019-.721a3.32,3.32,0,0,0-.953-.183.529.529,0,0,0-.493.25c-.13.16-.234.315-.342.478a5.682,5.682,0,0,1-1.256,1.421,53.09,53.09,0,0,1-5.6,3.381c3.671-1.956,6.166-2.871,6.618-2.871M53.1,21.594a8.209,8.209,0,0,0-1.625,2.118,11.782,11.782,0,0,0,1.471-.678l.374-.189c-.024-.138-.051-.271-.078-.4-.064-.332-.122-.623-.142-.852" transform="translate(16.428 -661.368)" fill="#1a1311"/>
    <path id="パス_30" data-name="パス 30" d="M74.2,25.492a8.442,8.442,0,0,1,2.437-.568c1.535,0,4.006,1.369,4.006,2.805,0,.2-.368,2.938-1.735,2.938a1.332,1.332,0,0,1-1.068-.635c-.435-.6-1.169-1.87-1.77-2.738a2.654,2.654,0,0,0-1.836-1.5Z" transform="translate(25.786 -655.038)" fill="#1a1311"/>
    <path id="パス_31" data-name="パス 31" d="M79.012,31.156a1.688,1.688,0,0,1-1.385-.8c-.221-.3-.522-.787-.844-1.3-.306-.491-.634-1.016-.929-1.442-.46-.754-.878-1.231-1.574-1.338l-.3-.046-.1-.911.3-.1a8.63,8.63,0,0,1,2.561-.588c1.7,0,4.394,1.463,4.394,3.2,0,.032-.291,3.327-2.125,3.327m-3.892-5.42a3.653,3.653,0,0,1,1.388,1.454c.289.417.623.952.937,1.455s.6.961.816,1.258a.938.938,0,0,0,.752.474c.907,0,1.33-2.121,1.346-2.553,0-1.115-2.189-2.411-3.616-2.411a5.8,5.8,0,0,0-1.623.323" transform="translate(25.678 -655.138)" fill="#1a1311"/>
    <path id="パス_32" data-name="パス 32" d="M81.584,10.712A48.146,48.146,0,0,1,92.508,8.347a32.242,32.242,0,0,0,4.823-.9c.047-.283.236-1.655.236-1.938A3.632,3.632,0,0,0,97,3.429a2.031,2.031,0,0,1-.33-1.04C96.669,1.3,98.654.64,99.079.64a2.854,2.854,0,0,1,2.129,2.174c0,.615-.9,3.358-1.04,3.973a20.3,20.3,0,0,1,3.735-.521c1.893,0,2.507,1.04,3.452,2.6a2.648,2.648,0,0,1,.378,1.276,2.22,2.22,0,0,1-2.317,2.08c-1.608.142-4.067.238-6.479.238-.189,1.134-.332,2.127-.379,2.648-.1,1.985-.33,9.315-.33,10.593a22.8,22.8,0,0,0,.613,4.776,11.908,11.908,0,0,1,.332,2.837v.519c-.189,4.682-.615,5.013-1.323,5.486a1.639,1.639,0,0,1-.993.378.98.98,0,0,1-.9-.709A32.881,32.881,0,0,1,94.068,30.1a59.24,59.24,0,0,0-.709-7.234l.472-.142a36.537,36.537,0,0,0,1.513,4.918c.189.378.425.568.663.568s.424-.285.472-.8c0-.946-.142-8.653-.142-11.539-2.129,2.98-4.824,6.053-7.472,9.695-.33.519-2.884,4.114-4.161,4.114-.379,0-.662-.236-.662-.851v-.189c.519-4.02,1.087-4.492,1.938-5.06A29.755,29.755,0,0,0,95.676,12.32a9.691,9.691,0,0,1-2.743-.472,22.323,22.323,0,0,0-7.424-1.089,15.549,15.549,0,0,0-3.782.378Z" transform="translate(28.314 -663.348)" fill="#1a1311"/>
    <path id="パス_33" data-name="パス 33" d="M97.034,40.392a1.531,1.531,0,0,1-1.412-1.056,33.2,33.2,0,0,1-1.93-9.069,58.589,58.589,0,0,0-.7-7.17l-.079-.479,1.513-.455.123.588a35.732,35.732,0,0,0,1.482,4.817c.019.036.036.067.054.094.009-.047.017-.1.024-.165,0-.294-.021-1.531-.047-3.1-.031-2.08-.07-4.745-.089-6.718-.8,1.055-1.651,2.127-2.541,3.243-1.287,1.616-2.616,3.286-3.942,5.11-.009.015-2.837,4.341-4.608,4.341a1.229,1.229,0,0,1-1.213-1.4v-.188c.514-4.012,1.087-4.789,2.185-5.52A29.19,29.19,0,0,0,95,12.937a7.382,7.382,0,0,1-2.119-.447,21.972,21.972,0,0,0-7.2-1.039,14.752,14.752,0,0,0-3.644.361l-.5.13-.471-1.416.493-.189a48.487,48.487,0,0,1,11.07-2.4,29.971,29.971,0,0,0,4.381-.8c.072-.514.176-1.323.176-1.49a3.141,3.141,0,0,0-.466-1.765,2.594,2.594,0,0,1-.432-1.356c0-1.534,2.4-2.3,2.964-2.3a3.337,3.337,0,0,1,2.68,2.727,16.6,16.6,0,0,1-.746,3.02c-.024.081-.047.157-.07.231a16.965,16.965,0,0,1,2.96-.35c2.186,0,2.942,1.247,3.9,2.828a3.228,3.228,0,0,1,.482,1.6,2.756,2.756,0,0,1-2.831,2.631c-1.545.137-3.829.227-6.048.238-.148.914-.258,1.713-.3,2.148-.094,1.992-.327,9.295-.327,10.542a22.242,22.242,0,0,0,.6,4.643,12.545,12.545,0,0,1,.346,2.972v.519c-.185,4.6-.577,5.283-1.569,5.945a2.167,2.167,0,0,1-1.3.471M94.571,26.806c.146,1.541.224,2.867.224,3.435a32.374,32.374,0,0,0,1.844,8.667c.236.587.627.435,1.055.113.548-.365.925-.617,1.1-5.065v-.5a11.43,11.43,0,0,0-.315-2.71,23.131,23.131,0,0,1-.629-4.9c0-1.256.235-8.594.33-10.618.051-.564.195-1.569.387-2.713l.076-.462h.468c2.33,0,4.794-.09,6.43-.234,1.087-.077,1.812-.691,1.812-1.531a2.108,2.108,0,0,0-.307-1.009c-.94-1.549-1.405-2.317-2.97-2.317a19.979,19.979,0,0,0-3.621.509l-.846.177.193-.842c.047-.2.173-.632.325-1.141a22.585,22.585,0,0,0,.7-2.707c0-.485-1.019-1.623-1.577-1.623-.35.013-1.86.592-1.86,1.2a1.462,1.462,0,0,0,.248.746,4.206,4.206,0,0,1,.65,2.374c0,.356-.205,1.809-.243,2.029l-.059.361-.356.086a33.414,33.414,0,0,1-4.912.911,52.872,52.872,0,0,0-7.463,1.313c2.993-.043,6.6.455,8.08,1.135a9.243,9.243,0,0,0,2.553.423l.8.062-.345.726a30.108,30.108,0,0,1-9.875,11.47c-.707.47-1.209.8-1.709,4.679l0,.117a.548.548,0,0,0,.054.3h0c.831,0,3-2.676,3.749-3.853,1.36-1.871,2.7-3.55,3.992-5.175,1.259-1.582,2.448-3.075,3.5-4.543l1-1.4v1.722c0,1.832.058,5.614.1,8.367.023,1.582.042,2.825.042,3.172-.09,1.012-.588,1.356-1.025,1.356a1.311,1.311,0,0,1-1.156-.872c-.122-.289-.282-.719-.455-1.223" transform="translate(28.138 -663.489)" fill="#1a1311"/>
    <path id="パス_34" data-name="パス 34" d="M112.759,24.471a4.828,4.828,0,0,0,3.572,4.616,14.711,14.711,0,0,0,3.452.6c.16,0,1-.161,1.2-.161.521,0,1,.723,1.2,1.084a.676.676,0,0,1,.04.281c0,1.043-4.534,1.2-5.377,1.2-1.605,0-7.183-.081-7.183-5.739a18.955,18.955,0,0,1,.16-2.046,16.23,16.23,0,0,1-2.769-.562c-1.966-.562-4.253-2.327-4.253-5.017a3.658,3.658,0,0,1,.04-.642l.442.04v.2c0,.883.321,2.809,3.692,2.809a20.6,20.6,0,0,0,3.572-.4c.48-1.846,1-3.612,1.164-4.776a30.079,30.079,0,0,1-7.465-2.408l.04-.4a21.375,21.375,0,0,0,6.983-1.765,27.845,27.845,0,0,1,5.3-1.365,2.422,2.422,0,0,1,2.207,2.127c0,1.4-1.846,3.692-5.457,3.852-.161,1.2-.361,2.769-.482,4.3a46.683,46.683,0,0,0,4.655-1.325,4.889,4.889,0,0,1,1.605-.4,2.264,2.264,0,0,1,1.966,2.247c0,2.809-4.776,3.612-6.782,3.652Z" transform="translate(35.576 -660.137)" fill="#1a1311"/>
    <path id="パス_35" data-name="パス 35" d="M116.972,32.684c-6.326,0-7.652-3.374-7.652-6.206a15.05,15.05,0,0,1,.113-1.644,15.554,15.554,0,0,1-2.389-.515c-2.205-.631-4.585-2.612-4.585-5.465a4.279,4.279,0,0,1,.044-.717l.071-.431,1.3.118v.628c0,1.553,1.084,2.341,3.224,2.341a19.183,19.183,0,0,0,3.2-.341l.27-1.013c.3-1.1.577-2.149.73-2.965a34.051,34.051,0,0,1-7.115-2.369l-.31-.138.115-1.133.395-.026a19.569,19.569,0,0,0,6.308-1.526c.205-.082.387-.154.542-.212a28.265,28.265,0,0,1,5.46-1.393,2.87,2.87,0,0,1,2.675,2.594c0,1.643-1.913,3.981-5.512,4.3-.133,1.011-.27,2.135-.372,3.245,1.758-.435,3.213-.885,3.974-1.158a5.209,5.209,0,0,1,1.762-.429,2.726,2.726,0,0,1,2.436,2.717c0,3.262-5.228,4.08-7.242,4.121h-1a4.254,4.254,0,0,0,3.2,3.706,14.323,14.323,0,0,0,3.294.573c.074,0,.266-.035.471-.067a7.334,7.334,0,0,1,.732-.093c.765,0,1.339.829,1.615,1.325a1.075,1.075,0,0,1,.1.507c0,1.553-4.475,1.672-5.847,1.672M103.85,20.716a5.713,5.713,0,0,0,3.459,2.7,15.768,15.768,0,0,0,2.7.548l.46.056-.052.46a18.226,18.226,0,0,0-.16,1.995c0,3.5,2.26,5.269,6.716,5.269,2.008,0,4.651-.349,4.92-.783-.286-.533-.625-.848-.788-.848-.1,0-.349.044-.587.081-.272.043-.532.081-.616.081a15.213,15.213,0,0,1-3.6-.625,5.284,5.284,0,0,1-3.894-5.016l-.05-.513h2.04c2.055-.042,6.315-.874,6.315-3.184a1.823,1.823,0,0,0-1.5-1.78,4.718,4.718,0,0,0-1.439.372,47.512,47.512,0,0,1-4.715,1.342l-.624.146.051-.639c.117-1.476.31-3.012.485-4.319l.051-.389.392-.017c3.335-.148,5.01-2.25,5.01-3.385a1.976,1.976,0,0,0-1.738-1.658,28,28,0,0,0-5.135,1.335c-.149.055-.322.125-.521.2a21.013,21.013,0,0,1-5.551,1.491,28.605,28.605,0,0,0,6.362,1.972l.506.03-.052.5a33.767,33.767,0,0,1-.829,3.533l-.42,1.584-.293.055a21.516,21.516,0,0,1-3.658.409,4.538,4.538,0,0,1-3.251-1.013" transform="translate(35.457 -660.256)" fill="#1a1311"/>
    <path id="パス_36" data-name="パス 36" d="M121.316,13c2.205,1.364,2.645,2.366,3.608,4.691.161.521.321.761.6.761a1.41,1.41,0,0,0,.682-.281,31.752,31.752,0,0,1,3.087-1.644c4.209-1.923,9.5-3.287,10.943-4.008a4,4,0,0,1,1.6-.481,2.236,2.236,0,0,1,1.082.321c1,.561,3.648,2.2,3.648,3.045,0,.442-.482.922-1.443,1.644-1.162.842-3.287,3.126-5.052,4.73,1.364.321,3.608.922,3.608,1.683,0,.442-.521.8-1.322,1.123a24.574,24.574,0,0,1-7.936,1.683c-2.165.2-4.249.4-5.692.4a3.118,3.118,0,0,1-1.965-.442,1.822,1.822,0,0,1-.2.561c-.521.962-.842,1.483-1.644,1.483a2.988,2.988,0,0,1-.922-.16c-1.362-.442-2.044-.722-2.044-5.091,0-1.844.2-3.488.2-5.051A8.764,8.764,0,0,0,121,13.2Zm19.242,3.688c0-.2,0-.722-1.683-.722a33.983,33.983,0,0,0-10.5,2.486,2.91,2.91,0,0,0-1.723,3.007c0,1.122.2,2.405.2,3.527,2,.24,5.692-1.4,8.538-2.645a10.8,10.8,0,0,1,1.764-.682,20.383,20.383,0,0,0,3.007-3.929,2.286,2.286,0,0,0,.4-1.042" transform="translate(41.8 -659.446)" fill="#1a1311"/>
    <path id="パス_37" data-name="パス 37" d="M125.086,28.859a3.413,3.413,0,0,1-1.068-.183c-1.717-.556-2.366-1.177-2.366-5.535,0-.974.055-1.884.107-2.762.048-.791.094-1.549.094-2.288a8.215,8.215,0,0,0-1.094-4.529l-.24-.395.958-.6.248.153c2.368,1.463,2.845,2.615,3.794,4.908a1.416,1.416,0,0,0,.205.486c-.008-.015.1-.036.4-.221a32.043,32.043,0,0,1,3.137-1.672,75.432,75.432,0,0,1,7.7-2.849,33.1,33.1,0,0,0,3.235-1.153,3.049,3.049,0,0,1,3.125-.15c1.169.654,3.887,2.3,3.887,3.455,0,.666-.6,1.244-1.631,2.017a32.427,32.427,0,0,0-2.813,2.592c-.519.509-1.051,1.032-1.566,1.519,2.207.587,3.125,1.164,3.125,1.929,0,.816-.923,1.279-1.617,1.557a24.875,24.875,0,0,1-8.077,1.715l-.318.03c-2.064.192-4.016.373-5.408.373a4.2,4.2,0,0,1-1.693-.244l-.051.1c-.511.944-.946,1.744-2.064,1.744m-3.011-14.772a10.02,10.02,0,0,1,.714,4c0,.757-.048,1.535-.1,2.345-.052.864-.106,1.76-.106,2.706,0,4.088.54,4.263,1.721,4.645a2.474,2.474,0,0,0,.778.137c.5,0,.7-.248,1.232-1.238a1.386,1.386,0,0,0,.152-.416l.113-.668.584.342a2.675,2.675,0,0,0,1.727.377c1.349,0,3.279-.179,5.32-.369l.329-.031a24.108,24.108,0,0,0,7.82-1.656c1-.4,1.015-.672,1.015-.683-.016-.036-.272-.529-3.247-1.228l-.864-.2.658-.6c.7-.634,1.448-1.372,2.174-2.087a32.648,32.648,0,0,1,2.917-2.676c.3-.228,1.25-.937,1.25-1.264-.047-.413-1.64-1.648-3.408-2.637-.795-.444-1.329-.262-2.26.174a32.186,32.186,0,0,1-3.351,1.2,74.569,74.569,0,0,0-7.6,2.809,30.91,30.91,0,0,0-3.04,1.62c-1.468.915-1.821-.262-1.97-.745-.774-1.868-1.168-2.817-2.564-3.86M127.423,25.6a4.037,4.037,0,0,1-.468-.027l-.412-.05v-.415c0-.549-.05-1.137-.1-1.725-.051-.615-.1-1.229-.1-1.8a3.363,3.363,0,0,1,1.961-3.413,34.4,34.4,0,0,1,10.734-2.546c.532,0,2.152,0,2.152,1.189a2.612,2.612,0,0,1-.468,1.283,21.118,21.118,0,0,1-3.07,4.01l-.09.094-.125.035a10.3,10.3,0,0,0-1.686.652l-.262.114c-2.672,1.168-5.951,2.6-8.065,2.6m11.614-9.042a33.7,33.7,0,0,0-10.272,2.424,2.459,2.459,0,0,0-1.487,2.6c0,.549.05,1.137.1,1.725.039.459.076.917.094,1.358,1.911-.017,5.2-1.454,7.644-2.522l.248-.107a11.5,11.5,0,0,1,1.7-.668,20.1,20.1,0,0,0,2.852-3.747,1.829,1.829,0,0,0,.338-.808.476.476,0,0,0,0-.048s-.191-.205-1.213-.205" transform="translate(41.637 -659.563)" fill="#1a1311"/>
    <path id="パス_38" data-name="パス 38" d="M158.122,4.035a9.53,9.53,0,0,1-1.663,4.584c-.674,1.169-3.55,5.259-5.571,7.955a8.248,8.248,0,0,1,2.605,4.9,104.66,104.66,0,0,1,1.529,10.652,2.843,2.843,0,0,1-.9,2.381,5.96,5.96,0,0,1-2.831,1.349c-1.393,0-1.393-1.213-1.393-2.517a24.452,24.452,0,0,1,.9-6.876,11.241,11.241,0,0,0,.63-3.37c0-1.259-.224-4.405-1.573-4.405a1.9,1.9,0,0,0-1.078.405,3.784,3.784,0,0,1-2.472,1.3,2.881,2.881,0,0,1-2.471-2.247c0-.629.45-1.213,1.123-1.978,1.078-1.168,9.347-7.64,11.1-9.617a10.575,10.575,0,0,0,1.617-2.561Z" transform="translate(49.615 -662.201)" fill="#1a1311"/>
    <path id="パス_39" data-name="パス 39" d="M151.425,36.522c-1.917,0-1.917-1.758-1.917-3.041a25.554,25.554,0,0,1,.93-7.055,10.684,10.684,0,0,0,.6-3.192c0-2.1-.479-3.88-1.048-3.88a1.4,1.4,0,0,0-.764.3,4.18,4.18,0,0,1-2.788,1.409,3.385,3.385,0,0,1-3-2.772,3.78,3.78,0,0,1,1.256-2.325c.483-.525,2.127-1.887,4.208-3.612,2.629-2.178,5.9-4.89,6.891-6.006a9.859,9.859,0,0,0,1.522-2.4l.144-.372,1.362.137-.044.515a10.107,10.107,0,0,1-1.733,4.805c-.683,1.181-3.408,5.049-5.329,7.63a8.846,8.846,0,0,1,2.419,4.829,102.716,102.716,0,0,1,1.544,10.778,3.342,3.342,0,0,1-1.082,2.78,6.237,6.237,0,0,1-3.173,1.475m-1.438-18.216c1.946,0,2.1,3.773,2.1,4.929a11.726,11.726,0,0,1-.654,3.531,23.829,23.829,0,0,0-.874,6.715c0,1.658.146,1.993.868,1.993a5.3,5.3,0,0,0,2.5-1.228,2.336,2.336,0,0,0,.71-1.978,103.836,103.836,0,0,0-1.515-10.532c-.5-2.02-.844-3.149-2.451-4.632l-.349-.321.285-.378c2.1-2.8,4.894-6.786,5.538-7.9A13.268,13.268,0,0,0,157.364,6c-.3.446-.6.815-.77,1.025-1.055,1.191-4.224,3.816-7.02,6.132-1.887,1.564-3.671,3.041-4.1,3.507-.636.721-.987,1.2-.987,1.621a2.431,2.431,0,0,0,1.948,1.722,3.384,3.384,0,0,0,2.111-1.158,2.44,2.44,0,0,1,1.44-.549" transform="translate(49.48 -662.345)" fill="#1a1311"/>
    <path id="パス_40" data-name="パス 40" d="M175.235,20.029a44.8,44.8,0,0,1,.941,5.871c0,.5-.138.693-.553,1.3a10.976,10.976,0,0,1-2.271,2.382,3.763,3.763,0,0,1-2.05.581c-.221,0-3.279-.3-3.5-.358-1.385-.278.9-5.122-.985-5.287-.25-.028.221,0,0,0-1.578,0-5.233,4.648-6.036,4.786a2.123,2.123,0,0,1-.416.056,1.643,1.643,0,0,1-1.329-.693,9.26,9.26,0,0,1-1.578-3.129,1.258,1.258,0,0,1,.443-.942,11.714,11.714,0,0,0,2.464-2.576c.859-1.246,5.676-8,6.176-8.8a3.893,3.893,0,0,0,.748-2.05A2.639,2.639,0,0,0,167.01,10l.223-.138c.36.25,1.439,1.135,1.439,1.911a1.682,1.682,0,0,1-.332.886c-.581.914-7.339,11.021-7.7,12.821a3.154,3.154,0,0,0-.055.5c0,.415.807.666,1.223.832.858.332,4.092-4.47,6.059-4.33,1,.055-.275,5.048.944,5.269a9.5,9.5,0,0,0,1.772.195c1.384,0,2.464-.5,3.572-3.019a11.669,11.669,0,0,0,.831-4.847Z" transform="translate(54.277 -660.191)" fill="#1a1311"/>
    <path id="パス_41" data-name="パス 41" d="M171.4,30.673c-.242,0-3.326-.3-3.6-.37-.981-.2-.805-1.538-.635-2.836.115-.872.259-1.957-.032-2.319a.334.334,0,0,0-.242-.121c-.8.025-2.589,1.8-3.77,2.974s-1.764,1.735-2.182,1.808a2.517,2.517,0,0,1-.482.06,2.036,2.036,0,0,1-1.644-.852c-.015-.02-1.652-2.325-1.652-3.358a1.658,1.658,0,0,1,.57-1.231,11.279,11.279,0,0,0,2.4-2.5c.314-.455,1.145-1.629,2.1-2.984,1.672-2.364,3.754-5.307,4.065-5.809a3.515,3.515,0,0,0,.69-1.843,2.276,2.276,0,0,0-.24-1l-.148-.313.731-.456.211.145c.066.046,1.609,1.123,1.609,2.231a2.051,2.051,0,0,1-.391,1.091c-.081.125-.264.405-.527.807-4.527,6.9-6.922,10.9-7.12,11.886a2.64,2.64,0,0,0-.048.421,2.687,2.687,0,0,0,.807.4l.173.067a10.246,10.246,0,0,0,1.71-1.529c1.376-1.37,2.938-2.925,4.231-2.829.846.047.807,1.252.756,2.777-.021.668-.081,2.443.229,2.5a9.21,9.21,0,0,0,1.7.187c1.262,0,2.19-.455,3.216-2.785a11.249,11.249,0,0,0,.8-4.668l-.019-.329.961-.215.078.391a44.337,44.337,0,0,1,.948,5.947,2.3,2.3,0,0,1-.6,1.493,11.415,11.415,0,0,1-2.4,2.515,4.139,4.139,0,0,1-2.264.647m-3.393-3.6q-.03.25-.064.5c-.087.67-.251,1.917.032,1.974s3.206.346,3.427.35a3.367,3.367,0,0,0,1.82-.509A10.629,10.629,0,0,0,175.4,27.1c.421-.619.487-.726.487-1.086a26.155,26.155,0,0,0-.517-3.67,10.7,10.7,0,0,1-.761,2.863c-1.184,2.692-2.424,3.247-3.926,3.247a10.018,10.018,0,0,1-1.846-.2c-.5-.093-.732-.546-.827-1.188m-.266-16.226a2.85,2.85,0,0,1,.032.444,4.173,4.173,0,0,1-.807,2.254c-.322.522-2.412,3.476-4.09,5.849-.956,1.35-1.784,2.522-2.1,2.972a12.13,12.13,0,0,1-2.539,2.658.86.86,0,0,0-.3.639,9.219,9.219,0,0,0,1.5,2.9,1.267,1.267,0,0,0,1.016.533,1.8,1.8,0,0,0,.336-.046,11.423,11.423,0,0,0,1.777-1.6c1.581-1.57,2.9-2.82,3.9-3.127l.008-.1.817.043.013.079a1.039,1.039,0,0,1,.434.321,1.371,1.371,0,0,1,.22.416l0-.109a6.189,6.189,0,0,0-.1-2.008c-.851-.036-2.421,1.511-3.553,2.639-1.311,1.307-1.972,1.925-2.546,1.7l-.165-.064c-.552-.209-1.307-.5-1.307-1.131a3.6,3.6,0,0,1,.059-.56c.3-1.483,4.272-7.659,7.237-12.176.259-.4.442-.674.517-.792a1.331,1.331,0,0,0,.274-.678,1.887,1.887,0,0,0-.639-1.052" transform="translate(54.178 -660.309)" fill="#1a1311"/>
    <path id="パス_42" data-name="パス 42" d="M197.3,8.6c-.785,3.557-3.212,5.259-7.763,8.42-3.645,2.428-4.465,4.734-4.688,5.742a3.224,3.224,0,0,0,.254,2.231.453.453,0,0,1,.066.264c-.039.177-.23.2-.467.145-1.423-.314-3.636-1.549-3.151-3.742.235-1.067,2.188-2.874,4.655-5.314a14.747,14.747,0,0,0,4-6.577c.824-3.734-.9-6.353-3.683-6.967a5,5,0,0,0-5.895,4.169,15.256,15.256,0,0,0-.318,2.852.218.218,0,0,1,.02.191c-.039.177-.184.27-.659.165a2.6,2.6,0,0,1-1.815-3.322c.824-3.735,10.262-7.06,14.234-6.183A6.553,6.553,0,0,1,197.3,8.6M183.076,29.639a.64.64,0,0,1,.489.605,11.281,11.281,0,0,0,1.48,4.554.982.982,0,0,1,.107.646c-.184.829-4.566,2.659-5.159,2.529-1.423-.314-3.16-3.993-2.871-5.3.26-1.185,5.059-2.925,5.382-2.977a1.391,1.391,0,0,1,.572-.06" transform="translate(60.995 -663.387)" fill="#1a1311"/>
    <path id="パス_43" data-name="パス 43" d="M180.215,38.863a.875.875,0,0,1-.2-.019c-1.9-.42-3.757-4.57-3.41-6.139.392-1.778,5.9-3.517,5.958-3.525a1.8,1.8,0,0,1,.842-.052,1.32,1.32,0,0,1,1.034,1.18,10.634,10.634,0,0,0,1.393,4.308,1.742,1.742,0,0,1,.188,1.161c-.062.275-.2.919-2.823,2.115a10.228,10.228,0,0,1-2.985.97m2.824-8.336c-.044.008-.1.02-.184.04-.9.217-4.572,1.777-4.87,2.463-.211.968,1.345,4.21,2.339,4.431a13.317,13.317,0,0,0,4.337-2.067c-.026.021-.054-.058-.082-.121a11.87,11.87,0,0,1-1.541-4.746m2.035-4.217a1.646,1.646,0,0,1-.353-.04c-1.8-.4-4.272-1.949-3.691-4.588.254-1.145,1.742-2.608,3.994-4.823l.856-.843a14.12,14.12,0,0,0,3.806-6.225c.694-3.145-.541-5.547-3.146-6.123A4.31,4.31,0,0,0,181.492,7.3a15.671,15.671,0,0,0-.3,2.554.986.986,0,0,1,.007.487c-.052.235-.3.974-1.506.706a3.061,3.061,0,0,1-1.973-1.423,3.676,3.676,0,0,1-.38-2.745c.607-2.742,4.653-4.637,6.366-5.326,3.24-1.3,6.66-1.848,8.714-1.4A7.239,7.239,0,0,1,197.158,3.3a7.458,7.458,0,0,1,1.009,5.628c-.85,3.848-3.561,5.73-8.053,8.848-3.291,2.194-4.168,4.271-4.4,5.312a2.805,2.805,0,0,0,.1,1.617,1.183,1.183,0,0,1,.22.878.937.937,0,0,1-.961.726M186.2,2.18a5.72,5.72,0,0,1,.643.1c3.394.749,5.091,3.888,4.225,7.813a15.417,15.417,0,0,1-4.2,6.932l-.855.84c-1.769,1.739-3.44,3.382-3.6,4.118-.311,1.408.913,2.26,1.88,2.66a5.408,5.408,0,0,1,.035-1.866c.338-1.527,1.478-3.839,4.986-6.178,4.482-3.11,6.736-4.675,7.467-7.981a6.112,6.112,0,0,0-.815-4.551,5.855,5.855,0,0,0-3.849-2.53,13.273,13.273,0,0,0-5.916.638m-4.868,2.146a5.45,5.45,0,0,0-2.613,2.859,2.289,2.289,0,0,0,.207,1.7,1.665,1.665,0,0,0,.847.707,17.98,17.98,0,0,1,.333-2.6,6.681,6.681,0,0,1,1.227-2.668" transform="translate(60.816 -663.567)" fill="#1a1311"/>
    <path id="パス_44" data-name="パス 44" d="M193.451,13.6a11.878,11.878,0,0,0,2.5-.757c.3-.1,1.411-.395,2.542-.664.169-.723.507-1.119.711-1.11a.591.591,0,0,1,.337.152c.2.123.372.36.682.578a7.09,7.09,0,0,1,1.539-.183c.342.015,1.413.062,1.342,1.682-.043.957-.35,1.7-4.2,1.915a9.457,9.457,0,0,0-.789,2.341c-.009.228.077.346.372.383a2.385,2.385,0,0,1,2.028,1.141,24.518,24.518,0,0,1,1.664,3.683,5.357,5.357,0,0,0,.326.883,47.2,47.2,0,0,1,5.384-1.84c4.232-1.161,4.347-1.2,4.986-1.173.753.034.737.376.732.513-.043.957-5.057,1.215-5.983,1.494-.348.1-1.484.482-2.6.867a7.092,7.092,0,0,0-.8,2.134l-.011.251a.489.489,0,0,1-.569.455,2.74,2.74,0,0,1-1.871-1.59c-1.118.5-2.016,1.144-2.051,1.942-.04.911,1.091,2.173,2.734,2.245.523.024,1.276.056,1.381-1.286l.229-.013c.178.6,1.036,1.349,1,2.146s-1.178.816-1.863.787a6.514,6.514,0,0,1-3.02-.934,3.484,3.484,0,0,1-1.475-2.807c.058-1.278.922-1.719,2.794-2.71-.478-1.6-1.119-3.613-2.194-4.621a.859.859,0,0,0-.562-.208,2.048,2.048,0,0,0-.783.149.958.958,0,0,1-.346.075.6.6,0,0,1-.552-.458c-.017-.093-.334-1.2-.327-1.362a.521.521,0,0,1,.174-.336,6.239,6.239,0,0,0,.8-2.111c-.252.011-.549,0-.776-.012a8.742,8.742,0,0,1-3.526-1.391Zm11.091,10.088c-.65.223-1.231.448-1.65.612a1.265,1.265,0,0,0,.643.463.389.389,0,0,0,.328-.192,8.52,8.52,0,0,0,.679-.883" transform="translate(66.582 -659.78)" fill="#1a1311"/>
    <path id="パス_45" data-name="パス 45" d="M203.629,30.919c-.144,0-.268-.007-.361-.011a6.733,6.733,0,0,1-3.138-.966,3.727,3.727,0,0,1-1.611-3.052c.063-1.382.958-1.886,2.741-2.831-.493-1.635-1.1-3.4-2.056-4.292a.585.585,0,0,0-.392-.137,1.756,1.756,0,0,0-.675.13,1.123,1.123,0,0,1-.455.094.866.866,0,0,1-.8-.652c-.009-.046-.032-.133-.063-.248a6.273,6.273,0,0,1-.274-1.2.776.776,0,0,1,.243-.5,5.188,5.188,0,0,0,.656-1.663c-.153,0-.3-.009-.434-.015a9.02,9.02,0,0,1-3.656-1.425l-.157-.089.087-.634.2-.024a10.644,10.644,0,0,0,2.282-.682l.154-.059c.329-.11,1.407-.393,2.421-.638.2-.691.562-1.156.923-1.156h.017a.856.856,0,0,1,.483.2,2.151,2.151,0,0,1,.317.267c.081.075.166.158.27.24a7.378,7.378,0,0,1,1.488-.164c1.389.064,1.633,1.1,1.6,1.96-.055,1.256-.737,1.941-4.279,2.161l-.009.024a8.543,8.543,0,0,0-.7,2.072.225.225,0,0,0,.005.077.55.55,0,0,0,.133.03,2.653,2.653,0,0,1,2.227,1.272,24.918,24.918,0,0,1,1.686,3.734,5.943,5.943,0,0,0,.208.616,50.509,50.509,0,0,1,5.178-1.749l.517-.141c3.743-1.027,3.883-1.068,4.551-1.04a1.138,1.138,0,0,1,.825.293.66.66,0,0,1,.16.5c-.036.839-1.929,1.146-4.6,1.491a15.176,15.176,0,0,0-1.573.246c-.353.1-1.5.487-2.487.829a5.817,5.817,0,0,0-.725,1.93l-.012.251a.716.716,0,0,1-.256.527.831.831,0,0,1-.591.18,2.891,2.891,0,0,1-1.978-1.507c-1.067.511-1.641,1.063-1.664,1.605A1.725,1.725,0,0,0,200.713,28a2.912,2.912,0,0,0,1.829.74c.526.021,1.021.047,1.1-1.042l.019-.232.672-.036.06.2a3,3,0,0,0,.385.683,2.709,2.709,0,0,1,.627,1.55c-.04.931-1.114,1.051-1.781,1.051M198.765,19.1h.071a1.118,1.118,0,0,1,.732.279c1.091,1.023,1.741,2.982,2.267,4.741l.062.209-.263.14c-1.79.948-2.531,1.34-2.581,2.448a3.258,3.258,0,0,0,1.34,2.562,6.224,6.224,0,0,0,2.9.9c1.058.044,1.569-.128,1.585-.532a2.305,2.305,0,0,0-.537-1.231c-.085-.128-.168-.251-.242-.373a1.325,1.325,0,0,1-1.58,1.033,3.44,3.44,0,0,1-2.165-.876,2.226,2.226,0,0,1-.823-1.647c.035-.805.778-1.537,2.209-2.174l.24-.107.11.24a2.514,2.514,0,0,0,1.64,1.436.384.384,0,0,0,.227-.058.192.192,0,0,0,.064-.142l.012-.251a3.665,3.665,0,0,1,.3-1.111c-.082.1-.152.183-.2.236a.624.624,0,0,1-.537.276,1.472,1.472,0,0,1-.836-.56l-.232-.283.341-.134c.421-.164,1.007-.392,1.66-.616l.487-.184c1.019-.352,2.24-.765,2.611-.871a14.51,14.51,0,0,1,1.658-.263c1.017-.13,4.114-.53,4.134-.987,0-.063,0-.09-.023-.115s-.119-.1-.455-.118c-.57-.027-.711.013-4.386,1.021l-.517.141a47.355,47.355,0,0,0-5.345,1.827l-.235.1-.114-.231A5.423,5.423,0,0,1,202,22.9a24.923,24.923,0,0,0-1.639-3.624,2.1,2.1,0,0,0-1.831-1.009c-.419-.051-.623-.272-.6-.659a8.278,8.278,0,0,1,.736-2.248l.136-.337.169-.011c3.883-.219,3.914-.952,3.946-1.66.06-1.352-.744-1.388-1.087-1.4a6.876,6.876,0,0,0-1.471.177l-.115.026-.1-.068a3.638,3.638,0,0,1-.419-.357,1.707,1.707,0,0,0-.248-.212c-.141-.1-.177-.111-.208-.113a1.648,1.648,0,0,0-.44.906l-.039.16-.16.039c-1.152.274-2.233.561-2.519.658l-.142.055a13.638,13.638,0,0,1-2.023.65,7.744,7.744,0,0,0,3.083,1.173c.228.009.509.024.75.011l.36-.016-.087.348a6.3,6.3,0,0,1-.848,2.209c-.118.132-.119.162-.121.185.007.115.187.784.254,1.036.038.137.063.236.068.262a.331.331,0,0,0,.3.244.752.752,0,0,0,.244-.06,2.386,2.386,0,0,1,.815-.165m4.686,5.37a.558.558,0,0,0,.176.1.146.146,0,0,0,.086-.072c.044-.048.1-.111.16-.188l-.421.161" transform="translate(66.509 -659.848)" fill="#1a1311"/>
    <path id="パス_46" data-name="パス 46" d="M36.988,41.034c.75.173-13.956,12.533-16.041,15.512A168.514,168.514,0,0,0,7.367,82.277c-.894,2.145-1.786,3.514-3.276,3.514a3.008,3.008,0,0,1-.714-.118C1.709,85.256.518,84.362.518,82.338a31.175,31.175,0,0,1,.773-5.719c.358-1.847,1.133-1.847,2.323-2.918a42.187,42.187,0,0,0,5.9-6.97C12.49,62.622,17.85,55.713,20.65,52.138c2.918-3.692,6.671-7.922,8.1-10.126.656-1.072.578-5.385,3.439-5.385.536,0,1.531,1.357,1.888,1.416ZM19.57,58.041a25.069,25.069,0,0,1,4.7.411,13.532,13.532,0,0,1,6.5,3.109,56.782,56.782,0,0,1,8.556,8.511c3,3.514,4.821,5.449,7.241,7.969a3.472,3.472,0,0,1,1.107,3.219c-.438,2.337-3.253,4.761-5.363,4.365a4.891,4.891,0,0,1-2.441-1.462c-2.672-2.743-4.486-8.81-6.111-12.419-5.28-11.5-10.744-12.582-14.3-13.131Z" transform="translate(0.573 -651.033)" fill="#1a1311"/>
    <path id="パス_47" data-name="パス 47" d="M4.267,86.664a3.549,3.549,0,0,1-.883-.14C1.138,85.963,0,84.614,0,82.514a30.705,30.705,0,0,1,.789-5.867,3.616,3.616,0,0,1,1.738-2.655,9.485,9.485,0,0,0,.8-.631,41.066,41.066,0,0,0,5.8-6.864c3.484-4.808,9.9-13.014,11.151-14.61,1.1-1.4,2.327-2.871,3.5-4.28,1.9-2.291,3.7-4.456,4.566-5.8a6.355,6.355,0,0,0,.356-1.233c.388-1.671,1.036-4.468,3.666-4.468.589,0,1.106.5,1.652,1.035a4.986,4.986,0,0,0,.476.431l.225.038.032.123,2.769,2.844.211.048.133.431c.161.615.18.694-6.49,6.738-3.84,3.479-8.618,7.809-9.679,9.324-.1.146-.2.294-.3.446a24.665,24.665,0,0,1,3.186.378,14.171,14.171,0,0,1,6.8,3.243A57.809,57.809,0,0,1,40.042,69.8c3.055,3.578,4.915,5.546,7.21,7.934a4.182,4.182,0,0,1,1.289,3.828c-.482,2.564-3.562,5.4-6.175,4.92a5.555,5.555,0,0,1-2.8-1.647c-2.078-2.133-3.594-5.993-4.934-9.4-.462-1.177-.9-2.29-1.325-3.233C28.366,61.445,23.334,60.1,20.1,59.566A178.216,178.216,0,0,0,8.185,82.723c-.852,2.047-1.917,3.941-3.918,3.941M32.28,37.488c-1.327.012-1.781,1.482-2.228,3.405a5.973,5.973,0,0,1-.532,1.659c-.925,1.424-2.745,3.619-4.675,5.942-1.164,1.4-2.377,2.866-3.474,4.253-1.247,1.59-7.649,9.778-11.12,14.57A43.457,43.457,0,0,1,4.26,74.391a10.743,10.743,0,0,1-.913.725,2.309,2.309,0,0,0-1.2,1.813,30.135,30.135,0,0,0-.761,5.585c0,1.458.7,2.254,2.333,2.662a2.482,2.482,0,0,0,.545.1c.97,0,1.71-.866,2.635-3.086A180.024,180.024,0,0,1,18.925,58.823l.246-1.3h.584c.272-.415.537-.813.8-1.192,1.156-1.65,5.8-5.855,9.889-9.564,2.358-2.137,4.99-4.522,5.852-5.455l-2.435-2.5a3.768,3.768,0,0,1-.809-.671,4.321,4.321,0,0,0-.768-.652M24.087,59.27c3.106,1.389,6.9,4.543,10.485,12.359.436.968.882,2.1,1.353,3.3,1.291,3.284,2.756,7.006,4.625,8.926a4.3,4.3,0,0,0,2.072,1.263c1.652.313,4.17-1.786,4.551-3.811a2.788,2.788,0,0,0-.915-2.6c-2.322-2.415-4.2-4.4-7.279-8.009a58.019,58.019,0,0,0-8.441-8.4,12.856,12.856,0,0,0-6.216-2.985l-.236-.043" transform="translate(0.396 -651.211)" fill="#1a1311"/>
    <path id="パス_48" data-name="パス 48" d="M42.81,37.709A42.222,42.222,0,0,0,44.7,45.767c.628,1.544.972,1.944,3.543,1.944,3.945,0,10.916-1.887,13.031-2.8,2.629-1.086,2.858-1.542,3.372-5.943.115-1.086.286-1.829,1.6-2.286a3.2,3.2,0,0,1,1.258-.344c.515,0,.915.286,1.6,1.144a49.505,49.505,0,0,0,4.229,4.572A4.681,4.681,0,0,0,76.416,43.2c.858,0,1.544.172,1.544.628a1.58,1.58,0,0,1-.286.686c-.686,1.029-.8,1.372-2.058,1.372-3.429,0-7.716,1.258-9.374,4.4a55.83,55.83,0,0,0-2.228,7.659,4.288,4.288,0,0,1,.858-.058c2.058,0,2.914,2.115,2.914,3.487,0,2.458-4.743,3.943-5.543,4.172-.744,3.431-1.372,6.459-1.6,7.944-.4,2.4-.23,4.059-.458,6.459,2.058-.172,3.943-.4,4.8-.572,1.943-.4,11.316-2.743,12.06-2.743,1.486,0,1.886,2.058,1.886,2.287,0,.686-.458,1.314-1.315,2.172-1.372,1.314-2.056,1.542-5.487,1.6-1.656,0-5.6-.114-9.029-.114-2.058,0-3.945.056-5.087.172A80.166,80.166,0,0,0,47.439,84.86a4.563,4.563,0,0,1-1.086.172c-1.086,0-1.429-.686-1.6-1.6a22.15,22.15,0,0,0-.858-3.714,3.062,3.062,0,0,1-.228-.915c0-.8.628-1.256,1.6-1.484,3.772-.744,6.229-1.2,8.63-2.687q-.6-.858-1.2-1.886l.4-.286c.856.972,3.486,3.315,4.229,3.315.57,0,.686-.4,1.428-4.229l.858-5.373a9.857,9.857,0,0,1-1.772.114c-1.086,0-6.687-.342-6.745-.342-.97,0-1.372.285-1.372.742a1.28,1.28,0,0,0,.172.572l-.342.286c-.629-.228-1.658-.344-1.658-.972a.739.739,0,0,1,.056-.344c.458-1.256,1.2-1.142,2.8-1.942,4.629-2.4,8.173-4.287,9.944-5.145l1.314-9.087a12.806,12.806,0,0,0,.172-1.715c0-.458-.172-1.314-.8-1.314-.4,0-10.174,2.343-13.717,4.687a1.287,1.287,0,0,0-.742,1.142,2.413,2.413,0,0,0,.114.629,22.092,22.092,0,0,0,.972,2.228,2.257,2.257,0,0,1,.228,1.029c0,1.372-1.658,1.886-2.915,1.886-3.372,0-8.229-6.343-8.229-9.2,0-1.37.742-2.458,1.714-3.772,1.6-2.058,2.229-4.287,3.2-8.059ZM57.041,80.231c-.344-1.429-.572-1.772-2.8-5.087-1.486,1.372-3.657,2.915-4.343,3.773a1.361,1.361,0,0,0-.342.8c0,.456.4.742,1.256.8.8.058,3.429-.058,6.23-.286" transform="translate(13.09 -651.133)" fill="#1a1311"/>
    <path id="パス_49" data-name="パス 49" d="M46.524,85.868a2.254,2.254,0,0,1-2.255-2.145c-.091-.4-.168-.835-.244-1.271a10.351,10.351,0,0,0-.568-2.3l-.072-.205a3.013,3.013,0,0,1-.213-.981c0-.612.275-1.7,2.115-2.135l.307-.06c3.229-.636,5.46-1.075,7.522-2.193-.278-.423-.554-.87-.824-1.333l-.306-.525,1.385-.989.4.451a17.229,17.229,0,0,0,3.676,3.064,29.245,29.245,0,0,0,.827-3.664l.715-4.482c-.255.011-.573.017-.973.017-.9,0-4.777-.227-6.236-.313l-.534-.031a1.267,1.267,0,0,0-.707.121c.028,0,.044.058.128.227l.24.474-1.046.871-.361-.132c-.125-.046-.267-.085-.413-.126-.628-.179-1.683-.479-1.683-1.472a1.357,1.357,0,0,1,.125-.638,2.815,2.815,0,0,1,2.005-1.764c.31-.125.671-.268,1.1-.482,1.541-.8,2.969-1.545,4.249-2.213,2.309-1.207,4.173-2.181,5.385-2.778l1.263-8.738a12.216,12.216,0,0,0,.164-1.62,1.146,1.146,0,0,0-.17-.662c-.578.089-9.967,2.378-13.311,4.59-.444.267-.444.475-.444.587a1.316,1.316,0,0,0,.064.345l.035.14a8.6,8.6,0,0,0,.53,1.236c.149.311.3.62.407.88a2.863,2.863,0,0,1,.279,1.286c0,1.754-1.858,2.553-3.582,2.553-3.821,0-8.9-6.771-8.9-9.869,0-1.549.8-2.754,1.846-4.169,1.531-1.97,2.142-4.147,3.09-7.828l.15-.578,1.888.268.07.5a42.24,42.24,0,0,0,1.832,7.876c.537,1.318.634,1.552,2.935,1.552,3.706,0,10.593-1.807,12.767-2.746,2.275-.94,2.46-1.017,2.973-5.409a2.81,2.81,0,0,1,2.044-2.839c1.686-.756,2.53-.323,3.6,1.013a48.339,48.339,0,0,0,4.145,4.484,4.037,4.037,0,0,0,2.649.98c1.922,0,2.209.812,2.209,1.3a2.032,2.032,0,0,1-.381,1.029l-.17.259a2.393,2.393,0,0,1-2.459,1.436c-3.067,0-7.208,1.06-8.783,4.045a55.2,55.2,0,0,0-1.945,6.622c2.46.011,3.566,2.433,3.566,4.154,0,2.668-4.115,4.216-5.643,4.7-.821,3.805-1.317,6.267-1.51,7.52a26.052,26.052,0,0,0-.3,3.71c-.019.612-.039,1.237-.085,1.913,1.68-.154,3.205-.344,3.941-.491s2.491-.572,4.456-1.04c5.072-1.209,7.268-1.715,7.735-1.715,1.915,0,2.554,2.327,2.554,2.953a3.905,3.905,0,0,1-1.51,2.643c-1.535,1.47-2.423,1.737-5.949,1.8h0c-.693,0-1.76-.019-3.019-.042-1.8-.032-4-.072-6.018-.072-2.125,0-3.955.062-5.02.168a80.3,80.3,0,0,0-10.434,2.086,5.29,5.29,0,0,1-1.293.2m5.31-9.25a40.143,40.143,0,0,1-5.982,1.467l-.285.055c-1.062.25-1.062.672-1.062.831a2.025,2.025,0,0,0,.144.552l.051.153a11.365,11.365,0,0,1,.639,2.547c.072.415.146.831.235,1.231.176.927.434,1.08.95,1.08a4.062,4.062,0,0,0,.925-.152,80.4,80.4,0,0,1,10.66-2.13c1.133-.114,2.962-.176,5.162-.176,2.027,0,4.233.04,6.043.071,1.251.024,2.31.043,2.988.043,3.342-.056,3.825-.266,5.025-1.415.8-.8,1.11-1.272,1.11-1.69,0,0-.271-1.619-1.22-1.619-.49.024-4.663,1.02-7.425,1.679-1.982.474-3.768.9-4.5,1.05-.913.183-2.828.412-4.882.583l-.8.067.077-.795c.093-.964.118-1.807.144-2.625a27.281,27.281,0,0,1,.319-3.879c.2-1.314.729-3.926,1.608-7.977l.083-.391.385-.11c1.75-.5,5.06-1.878,5.06-3.53,0-.921-.549-2.82-2.248-2.82a4.005,4.005,0,0,0-.726.044l-1.038.207.26-1.024c1.3-5.115,1.925-7.244,2.313-7.853,1.824-3.464,6.5-4.71,9.935-4.71.8,0,.816-.032,1.344-.833l.158-.24c.048-.081.083-.144.109-.193a3.062,3.062,0,0,0-.809-.085,5.365,5.365,0,0,1-3.523-1.307,49.11,49.11,0,0,1-4.315-4.661c-.658-.823-.885-.89-1.078-.89a2.677,2.677,0,0,0-.987.286c-.98.342-1.1.727-1.209,1.746-.519,4.463-.819,5.267-3.78,6.491-2.311,1-9.355,2.851-13.286,2.851-2.78,0-3.416-.532-4.161-2.358a38.929,38.929,0,0,1-1.744-7.026c-.827,3.127-1.5,5.146-3,7.069-.948,1.282-1.574,2.216-1.574,3.362,0,2.475,4.555,8.535,7.563,8.535.9,0,2.247-.325,2.247-1.219a1.583,1.583,0,0,0-.158-.733c-.119-.282-.255-.566-.4-.855A8.363,8.363,0,0,1,46.56,53.8a2.856,2.856,0,0,1-.132-.773A1.943,1.943,0,0,1,47.5,51.307c3.679-2.435,13.528-4.781,14.059-4.781,1.008,0,1.467,1.027,1.467,1.981a13.8,13.8,0,0,1-.177,1.809l-1.365,9.44-.319.154c-1.17.566-3.154,1.6-5.667,2.915-1.282.67-2.711,1.416-4.261,2.22-.472.236-.867.4-1.205.532-.8.322-1.047.419-1.276,1.047.032.086.266.173.479.24v-.011c0-.424.2-1.409,2.037-1.409.012,0,.231.011.589.032,1.447.085,5.292.31,6.157.31a9.721,9.721,0,0,0,1.546-.075l1.094-.439-.211,1.172-.856,5.373c-.788,4.063-.929,4.792-2.088,4.792a4.88,4.88,0,0,1-2.241-1.233c1.97,2.93,2.248,3.388,2.6,4.868l.183.757-.777.063a61.857,61.857,0,0,1-6.331.287c-1.693-.114-1.876-1.063-1.876-1.466a2.011,2.011,0,0,1,.49-1.217,17.472,17.472,0,0,1,2.286-2.051m-1.442,3.266a1.512,1.512,0,0,0,.635.137c.625.044,2.73-.028,5.324-.221a16.406,16.406,0,0,0-2.068-3.479c-.5.432-1.036.87-1.553,1.29A18.35,18.35,0,0,0,50.589,79.5a.8.8,0,0,0-.2.381" transform="translate(12.92 -651.3)" fill="#1a1311"/>
    <path id="パス_50" data-name="パス 50" d="M88.014,64.76a5.03,5.03,0,0,0,1.191-3.3A8.791,8.791,0,0,0,84.3,54.052a6.023,6.023,0,0,1-.929,2.471c-.572.824-6.959,7.786-7.531,8.291a6.065,6.065,0,0,1-1.454,1.115,5.1,5.1,0,0,1-1.715.612s-1.334-.16-1.334-1.25a1.464,1.464,0,0,1,.048-.345,10.192,10.192,0,0,0,.189-1.966,53.229,53.229,0,0,1,.383-5.448,5.674,5.674,0,0,1,2.525-4.012,9.97,9.97,0,0,1,5.362-1.488,10.317,10.317,0,0,1,10.246,7.946,13.08,13.08,0,0,1,.405,2.656c0,1.17-.62,1.86-2.311,2.392ZM83.819,53.892a9.263,9.263,0,0,0-3.049-.478c-2.645,0-7.459,1.195-7.459,5.792,0,.824.191,3.827.858,3.827a.849.849,0,0,0,.4-.158c1.859-1.09,8.055-6.723,9.246-8.982" transform="translate(24.806 -645.762)" fill="#1a1311"/>
    <path id="パス_51" data-name="パス 51" d="M72.816,67.274A1.981,1.981,0,0,1,70.9,65.44a2.061,2.061,0,0,1,.062-.472,9.512,9.512,0,0,0,.177-1.855l.032-.8a40.16,40.16,0,0,1,.361-4.753,6.249,6.249,0,0,1,2.78-4.384,10.57,10.57,0,0,1,5.68-1.582c8.522,0,10.6,7.531,10.814,8.391a13.475,13.475,0,0,1,.423,2.8c0,1.846-1.377,2.526-2.722,2.949l-.431.136-.63-1.005.267-.325a4.453,4.453,0,0,0,1.059-2.925,8.26,8.26,0,0,0-3.917-6.535A5.872,5.872,0,0,1,84,57c-.585.842-6.981,7.829-7.628,8.4a6.555,6.555,0,0,1-1.565,1.193,5.494,5.494,0,0,1-1.99.681m7.173-14.508a9.391,9.391,0,0,0-5.044,1.395A5.042,5.042,0,0,0,72.674,57.8a41.24,41.24,0,0,0-.337,4.565l-.034.8a11.231,11.231,0,0,1-.211,2.091.906.906,0,0,0-.027.189c0,.564.812.668.82.668a5.662,5.662,0,0,0,2.7-1.569c.613-.544,6.92-7.432,7.455-8.2.054-.081.1-.161.153-.243a49.3,49.3,0,0,1-8.171,7.432,1.355,1.355,0,0,1-.7.239c-1.3,0-1.442-3.084-1.442-4.412,0-5.044,5.261-6.377,8.042-6.377a10.744,10.744,0,0,1,2.211.223,10.89,10.89,0,0,0-3.139-.435m9.95,8.846h0a5.61,5.61,0,0,1-.549,2.456,1.389,1.389,0,0,0,.667-1.286,7.652,7.652,0,0,0-.118-1.172m-9.021-7.465c-.28,0-6.873.059-6.873,5.208a11.953,11.953,0,0,0,.4,3.151,47.686,47.686,0,0,0,8.613-8.122,9.389,9.389,0,0,0-2.144-.238" transform="translate(24.657 -645.911)" fill="#1a1311"/>
    <path id="パス_52" data-name="パス 52" d="M95.443,33.724c4.241,2.827,4.712,3.533,4.712,5.182v.628c0,.55-.236,5.184-.236,8.324,0,8.4.706,37.85.706,40.205,0,4.633-2.9,6.047-4,6.047a4.287,4.287,0,0,1-3.926-4.24c0-8.4.472-16.255.864-22.145.627-10.916,1.491-14.842,1.805-22.144.078-1.415.078-2.75.078-3.927a27.905,27.905,0,0,0-.707-7.538ZM100.626,54.7c9.658,2.749,20.5,5.409,20.5,9.807a8.324,8.324,0,0,1-.472,2.67c-.706,2.357-1.884,3.22-3.69,3.22-3.534,0-4.084-1.413-4.4-2.356-.785-1.884-8.8-5.335-11.936-9.1Zm12.426-13.46c1.425.325,6.221,1.425,6.221,4.6a1.756,1.756,0,0,1-1.879,1.684c-2.917,0-5.22-4.992-5.609-6.287Zm5.769-2.711a9.762,9.762,0,0,1,3.369-.713c2.658,0,3.953,1.3,3.953,2.592,0,.519-.454,2.139-1.748,2.139-1.1,0-2.205-.907-3.307-1.879a13.677,13.677,0,0,0-3.445-1.637Z" transform="translate(32.116 -652.027)" fill="#1a1311"/>
    <path id="パス_53" data-name="パス 53" d="M96.856,95.3a5.162,5.162,0,0,1-4.843-5.157c0-8.142.439-15.794.866-22.205.325-5.639.711-9.422,1.054-12.76.322-3.139.6-5.851.752-9.362.078-1.4.078-2.722.078-3.888a27.307,27.307,0,0,0-.666-7.261l-.225-.714,1.851-1.028.466.31c4.306,2.871,5.118,3.815,5.118,5.945v.629c0,.165-.019.7-.05,1.444-.07,1.752-.187,4.683-.187,6.879,0,1.437.021,3.51.056,5.963l2.326.656c9.68,2.719,18.82,5.288,18.82,10.029a9.266,9.266,0,0,1-.518,2.96c-.784,2.615-2.235,3.845-4.559,3.845-3.766,0-4.776-1.507-5.268-2.982-.232-.55-2.448-1.942-4.229-3.062a43.969,43.969,0,0,1-6.459-4.609c.1,5.751.238,12.143.342,17.2.114,5.448.2,9.383.2,10.209,0,5.21-3.38,6.963-4.92,6.963m-.693-59.869a37.581,37.581,0,0,1,.431,6.5c0,1.191,0,2.539-.079,3.978-.152,3.554-.432,6.291-.758,9.458-.34,3.319-.726,7.081-1.048,12.686-.425,6.39-.862,14.006-.862,22.092a3.391,3.391,0,0,0,3.009,3.323c.507,0,3.088-.891,3.088-5.13,0-.807-.087-4.938-.2-10.17-.2-9.77-.511-24.533-.511-30.036,0-2.233.117-5.186.187-6.951.028-.711.05-1.215.05-1.372v-.629c0-1.005,0-1.47-3.31-3.747m5.613,23.436c1.619,1.807,4.416,3.564,6.9,5.12,2.867,1.8,4.512,2.875,4.97,3.973.266.792.6,1.79,3.551,1.79,1.262,0,2.17-.43,2.812-2.566a7.4,7.4,0,0,0,.434-2.405c0-3.35-9.695-6.075-17.483-8.264l-1.18-.333Zm15.85-10.152c-3.617,0-6.071-5.563-6.485-6.94l-.353-1.18,2.7.023c4.6,1.047,6.934,2.9,6.934,5.5a2.653,2.653,0,0,1-2.8,2.6m-4.237-6.239c.867,1.837,2.57,4.405,4.237,4.405.268,0,.964-.138.964-.768,0-1.1-.913-2.6-5.2-3.637m11.238,1.259c-1.4,0-2.651-1-3.912-2.109a8.6,8.6,0,0,0-2.393-1.166c-.333-.123-.623-.232-.824-.323l-1.9-.862,3.092-1.318a10.629,10.629,0,0,1,3.733-.787c3.345,0,4.868,1.819,4.868,3.51,0,1.032-.805,3.055-2.666,3.055m-4.237-4.423a5.9,5.9,0,0,1,1.553.953c.933.821,1.921,1.636,2.684,1.636.578,0,.831-1.055.832-1.221,0-.833-1.043-1.676-3.035-1.676a8.437,8.437,0,0,0-2.035.309" transform="translate(31.882 -652.301)" fill="#1a1311"/>
    <path id="パス_54" data-name="パス 54" d="M133.451,77.06a67.085,67.085,0,0,1-7.08,1.172,48.744,48.744,0,0,0-7.75,1.727,3.657,3.657,0,0,1-1,.223,3.255,3.255,0,0,1-2.4-1.784c0-.336.446-.5,1.282-.78a20.023,20.023,0,0,1,3.569-.726l.278.336c-.223.111-.446.278-.446.391s.055.11.223.11c.391,0,11.207-3.233,12.489-3.233l-.668-2.174a6.151,6.151,0,0,1-.336-1.9,5.943,5.943,0,0,1,.223-1.617A80.117,80.117,0,0,0,133.451,57.1a9.762,9.762,0,0,0-.391-3.067,3.386,3.386,0,0,1-.166-.948c0-1.45,1.784-2.4,2.286-2.676a7.478,7.478,0,0,0,2.4-1.672,21.7,21.7,0,0,0,1.617-4.4c-2.565-.056-5.855-.168-8.809-.168a39.046,39.046,0,0,0-5.632.279l-.223-.613c5.965-1.952,12.488-4.071,16.447-5.464l.668-2.231a4.383,4.383,0,0,0,.224-1.282c0-.558-.391-1.729-1.283-1.729a2.3,2.3,0,0,0-1.5.781l-.391-.168c0-1.283,0-1.672.446-2.174a1.358,1.358,0,0,1,1.115-.67c.668,0,5.519,1.561,5.519,3.569a8.039,8.039,0,0,1-.893,2.509,21.16,21.16,0,0,1,7.75-1.672c2.008,0,4.517.223,5.464.334,3.737.5,5.074,2.844,5.074,3.847a6.2,6.2,0,0,1-.278,1.562c-.558,1.672-1.283,2.174-3.233,2.4-2.51.279-13.716.668-16.783.893a14.83,14.83,0,0,1-1.672.055c-1,2.007-1.84,3.847-2.174,4.628-1.338,3.233-3.178,3.79-3.29,3.79-.279,0-.446-.223-.668-.557-.168-.279-.334-.391-.5-.391-.223,0-.613.5-.613.836a2.783,2.783,0,0,0,.446,1.17c.336.613,1.338,2.008,2.119,3.4a15.856,15.856,0,0,1,1.282,4.684c.168,1.225,1.115,8.307,1.5,11.653l6.468-.781c2.286-.279,11.151-1.338,12.433-1.393a35.43,35.43,0,0,0,4.349-.725c1.395-.279,8.029-2.4,8.81-2.4,1.227,0,2.452,1.952,2.452,2.9,0,.279-.391,2.454-3.288,2.454-.613,0-6.636-.279-7.918-.279h-.893a9.134,9.134,0,0,1-2.509-.389,8.544,8.544,0,0,0-1.952-.224c-1.784,0-8.475.67-11.708,1.172a58.69,58.69,0,0,0-6.021,1.393c.055.5.111.893.111,1.227,0,1.395-2.118,2.118-2.844,2.118a4.844,4.844,0,0,1-3.233-1.616Zm3.958,13.269A4.084,4.084,0,0,1,134.121,92a1.127,1.127,0,0,1-1.227-.836,9.741,9.741,0,0,0-2.565-3.568c-.948-.725-1.17-1-1.17-2.063,0-2.4.389-2.788,1.393-2.788a9.8,9.8,0,0,1,1.561.168,3.523,3.523,0,0,1,2.509,1.114c.67.613,1.115,1.34,1.617,1.729a1.928,1.928,0,0,0,1.45.558c1,0,1.394-.168,3.847-1.172l.223.391a11.637,11.637,0,0,0-2.788,2.788Zm1.283-26.985a42.514,42.514,0,0,0,8.475-2.9,5.273,5.273,0,0,1,1.561-.391c1.282,0,1.672,1.395,1.672,1.617,0,.447-.391.781-1.393,1.06a28.943,28.943,0,0,1-5.743,1.393,43.5,43.5,0,0,1-4.517-.391Zm.5-5.24a38.657,38.657,0,0,0,7.693-3.178,4.28,4.28,0,0,1,1.506-.447c1,0,1.448,1.451,1.448,1.9,0,.391-.223.781-.891,1.059a52.827,52.827,0,0,1-8.252,1.227,6.018,6.018,0,0,1-1.45-.168Zm2.509-6.022c4.516-2.565,9.979-4.794,11.317-4.794a6.946,6.946,0,0,1,2.51.613c1.114.391,4.181,1.506,4.181,6.8,0,3.958-3.456,11.151-4.739,13.492A5.014,5.014,0,0,1,151.4,70.7c-.5,0-.723-.336-.948-.781a5.313,5.313,0,0,0-1.114-1.45c-1.06.446-4.015.446-6.859.446-2.118,0-3.233,0-3.233-.836a1.982,1.982,0,0,1,.334-.893l.447.113a1.2,1.2,0,0,0,1.17.557,3.8,3.8,0,0,0,1-.166c.836-.224,4.962-1.952,5.965-1.952.781,0,1.952.948,1.952,1.616a.7.7,0,0,0,.334.056c1.785,0,3.9-6.914,3.9-9.59a6.935,6.935,0,0,0-.5-2.509c-.557-1.227-1.95-4.573-4.572-4.573a37.866,37.866,0,0,0-7.359,1.729Zm9.422,37.3c1-.613,5.464-3.847,5.464-5.073,0-1.283-4.573-1.506-6.468-1.45v-.446l2.9-.5a1.843,1.843,0,0,0,1.506-.781c.725-1,.836-1.17,2.118-1.17a4.217,4.217,0,0,1,2.4.725,17.718,17.718,0,0,0,4.4,1.45c1.338.223,1.9.279,2.621,1.059a2.093,2.093,0,0,1,.612,1.338c0,1.338-3.9,2.565-4.962,2.565-.278,0-1.784-.166-2.118-.166-1.952,0-5.91,1.784-8.307,2.843Z" transform="translate(39.824 -652.995)" fill="#1a1311"/>
    <path id="パス_55" data-name="パス 55" d="M134.286,92.818a1.766,1.766,0,0,1-1.844-1.283,9.1,9.1,0,0,0-2.37-3.278,2.669,2.669,0,0,1-1.4-2.557c0-1.882.154-3.439,2.047-3.439a10.355,10.355,0,0,1,1.667.176,3.955,3.955,0,0,1,2.621,1.089l.2.172a10.231,10.231,0,0,1,.922,1,5.32,5.32,0,0,0,.672.715,1.324,1.324,0,0,0,1.05.421c.832,0,1.118-.107,3.476-1.072l.654-.267.8,1.4-.478.341a10.689,10.689,0,0,0-2.526,2.491l-1.7,2.184a4.732,4.732,0,0,1-3.794,1.914m-3.566-9.254c-.48,0-.744,0-.744,2.137,0,.791.058.891.914,1.545a10.443,10.443,0,0,1,2.78,3.86c.1.314.207.411.616.411a3.45,3.45,0,0,0,2.78-1.427l1.678-2.16c.246-.321.534-.7.918-1.115a4.858,4.858,0,0,1-1.808.317,2.554,2.554,0,0,1-1.872-.714,5.986,5.986,0,0,1-.846-.886,8.828,8.828,0,0,0-.788-.858l-.191-.164a2.8,2.8,0,0,0-1.965-.785,9.351,9.351,0,0,0-1.472-.161m20.4,7.234-.65-1.513.481-.294c1.548-.945,5.049-3.751,5.154-4.529-.293-.446-3.157-.864-5.8-.788l-.671.019V82.029l3.437-.595c.694-.106.855-.183,1.084-.513.816-1.131,1.115-1.448,2.651-1.448a4.589,4.589,0,0,1,2.556.721l.15.081a17.128,17.128,0,0,0,4.205,1.381l.2.034a4.034,4.034,0,0,1,2.789,1.225A2.72,2.72,0,0,1,167.5,84.7c0,1.97-4.488,3.216-5.613,3.216-.141,0-.578-.039-1.036-.081s-.917-.087-1.082-.087c-1.741,0-5.514,1.668-7.767,2.666Zm2.918-8.24A5.728,5.728,0,0,1,157,83.564a1.246,1.246,0,0,1,.409.91c0,.9-1.317,2.224-2.691,3.361a16.341,16.341,0,0,1,5.051-1.392c.183,0,.706.047,1.2.093.4.038.791.075.915.075,1.217,0,4.312-1.276,4.312-1.914a1.5,1.5,0,0,0-.454-.91c-.523-.562-.874-.62-2.033-.812l-.2-.034a18.235,18.235,0,0,1-4.616-1.525l-.141-.075a3.343,3.343,0,0,0-1.939-.566c-.94,0-.94,0-1.573.88a2.218,2.218,0,0,1-1.2.9M117.783,81c-1.373,0-3.049-1.631-3.049-2.436,0-.823.8-1.09,1.729-1.4a14.388,14.388,0,0,1,2.875-.628c.281-.039.542-.075.78-.119l.376-.07.57.686c.655-.177,1.6-.443,2.526-.7,3.741-1.048,6.821-1.9,8.346-2.2l-.447-1.451a6.814,6.814,0,0,1-.362-2.086,6.448,6.448,0,0,1,.247-1.789,81.5,81.5,0,0,0,1.592-11.537,9.023,9.023,0,0,0-.352-2.847,4.1,4.1,0,0,1-.205-1.166c0-1.8,1.944-2.871,2.582-3.224.191-.109.356-.2.526-.289a5.227,5.227,0,0,0,1.717-1.243,18.3,18.3,0,0,0,1.254-3.369l-1.335-.032c-2.1-.054-4.441-.114-6.6-.114a40.254,40.254,0,0,0-5.524.271l-.534.089-.638-1.754,2.71-.886c5.185-1.694,10.542-3.445,14.05-4.674l.573-1.913a3.835,3.835,0,0,0,.2-1.1c0-.36-.272-1.078-.631-1.078a1.734,1.734,0,0,0-1.046.591l-.31.311-1.192-.51V33.9c0-1.357,0-1.919.611-2.605a1.965,1.965,0,0,1,1.6-.889c.8,0,6.17,1.652,6.17,4.22A4.391,4.391,0,0,1,146.257,36a20.235,20.235,0,0,1,6.539-1.189c1.937,0,4.425.208,5.541.338,3.856.518,5.648,2.988,5.648,4.494a6.687,6.687,0,0,1-.3,1.731c-.643,1.929-1.562,2.619-3.79,2.874-1.487.166-5.8.361-9.978.55-2.86.13-5.562.252-6.829.344a11.332,11.332,0,0,1-1.317.058c-.965,1.949-1.709,3.6-1.98,4.233-1.423,3.44-3.46,4.186-3.888,4.186a1.39,1.39,0,0,1-1.134-.734,2.5,2.5,0,0,0,.361.82c.142.255.385.629.68,1.079.434.664.976,1.491,1.441,2.325a16.563,16.563,0,0,1,1.358,4.908c.027.2.067.487.115.852a38.284,38.284,0,0,0,7.449-2.476c.356-.157.66-.291.921-.393a5.558,5.558,0,0,1,1.8-.435,2.469,2.469,0,0,1,2.325,2.268c0,1.165-1.358,1.544-1.871,1.686a27.236,27.236,0,0,1-5.916,1.419,40.63,40.63,0,0,1-4.48-.381c.094.709.2,1.507.31,2.341l.168-.3,1.217.3.133.268c.1.208.615.282,1.415.055.275-.074.883-.3,1.615-.577a20.185,20.185,0,0,1,4.53-1.4,3.137,3.137,0,0,1,2.437,1.62c1.064-.652,3.1-6,3.1-8.887a6.274,6.274,0,0,0-.455-2.267l-.064-.14c-.542-1.2-1.813-4.023-3.9-4.023a38.181,38.181,0,0,0-7.14,1.69l-.514.184L140.981,52l.566-.322c4.416-2.509,10.072-4.879,11.638-4.879a7.539,7.539,0,0,1,2.751.66c1.115.389,4.593,1.605,4.593,7.4,0,4.111-3.482,11.36-4.823,13.806a4.2,4.2,0,0,1-2.354,2.282,4.079,4.079,0,0,1-1.784.565,1.706,1.706,0,0,1-1.529-1.141,3.961,3.961,0,0,0-.721-1,34.471,34.471,0,0,1-6.669.352,9.817,9.817,0,0,1-3.059-.262c.168,1.3.326,2.556.45,3.572l5.82-.7c2.156-.263,11.152-1.34,12.481-1.4a34.986,34.986,0,0,0,4.243-.711c.579-.115,2.2-.592,3.773-1.052a37.157,37.157,0,0,1,5.171-1.36c1.7,0,3.1,2.35,3.1,3.55,0,.655-.67,3.1-3.941,3.1-.252,0-1.419-.047-2.8-.1-1.949-.078-4.376-.176-5.119-.176h-.893a9.753,9.753,0,0,1-2.679-.413,7.832,7.832,0,0,0-1.782-.2c-1.765,0-8.383.663-11.607,1.162-1.68.289-3.543.711-5.412,1.228a7.079,7.079,0,0,1,.054.75c0,1.827-2.451,2.769-3.5,2.769a5.455,5.455,0,0,1-3.476-1.572,67.774,67.774,0,0,1-6.876,1.122,48.429,48.429,0,0,0-7.569,1.68l-.3.093a3.117,3.117,0,0,1-.958.183m-1.658-2.326a3.12,3.12,0,0,0,1.658,1.024,2.065,2.065,0,0,0,.58-.126l.246-.072a49.476,49.476,0,0,1,7.841-1.748,65.642,65.642,0,0,0,7.024-1.161l.557-.015.2.231a4.21,4.21,0,0,0,2.734,1.385c.53,0,2.193-.609,2.193-1.467a7.372,7.372,0,0,0-.071-.834l-.1-.868.529-.152c1.111-.317,2.229-.6,3.317-.852l-3.934.475-.075-.65c-.376-3.235-1.3-10.16-1.5-11.64a15.443,15.443,0,0,0-1.22-4.48c-.432-.769-.958-1.576-1.384-2.224-.317-.486-.58-.891-.726-1.156l-.078-.141a10.776,10.776,0,0,1,.354,3.062,79.531,79.531,0,0,1-1.651,11.915,5.3,5.3,0,0,0-.189,1.412,5.51,5.51,0,0,0,.306,1.7l.926,3.017h-.88c-.736,0-6,1.478-8.837,2.272a28.4,28.4,0,0,1-3.652.961c-.736,0-.855-.483-.87-.7a12.649,12.649,0,0,0-2.539.557c-.212.071-.549.183-.756.275m41.689-6.383a9.2,9.2,0,0,1,1.7.231,8.582,8.582,0,0,0,2.368.374h.893c.77,0,3.21.1,5.173.179,1.352.054,2.5.1,2.743.1,2.458,0,2.637-1.8,2.64-1.815,0-.694-1.031-2.236-1.8-2.236-.412.017-3.056.793-4.805,1.306-1.671.491-3.249.953-3.876,1.079a35.926,35.926,0,0,1-4.42.734c-.13.005-.34.023-.613.047M149.787,68l.18.179a5.871,5.871,0,0,1,1.25,1.647c.2.395.263.395.353.395a3.144,3.144,0,0,0,1.215-.435,3.012,3.012,0,0,0,1.786-1.745c1.207-2.2,4.655-9.354,4.655-13.172,0-4.876-2.721-5.829-3.745-6.188a6.563,6.563,0,0,0-2.3-.576c-.788,0-3.847,1.11-7.3,2.777a19.116,19.116,0,0,1,3.569-.623c2.933,0,4.444,3.357,5.09,4.789l.075.165a7.642,7.642,0,0,1,.562,2.777c0,2.509-2.051,10.241-4.557,10.241a1.31,1.31,0,0,1-.628-.126Zm-1.45-1.442a25.974,25.974,0,0,0-4.075,1.317c-.651.243-1.211.451-1.545.56,2.639,0,5.606,0,6.536-.395l.383-.161v-.356a1.869,1.869,0,0,0-1.3-.965m-6.919-3.035c.846.078,1.513.117,2.012.117a29.806,29.806,0,0,0,5.551-1.366c.817-.227.93-.421.934-.43s-.221-.973-1.023-.973a5.363,5.363,0,0,0-1.337.352c-.234.09-.521.217-.859.365a38.352,38.352,0,0,1-5.279,1.935m-6.283-12.066a1.447,1.447,0,0,1,.656.623c.02.03.085.126.14.2.419-.192,1.666-.942,2.659-3.343.3-.689,1.129-2.539,2.194-4.669l.18-.36h.4a14.3,14.3,0,0,0,1.59-.051c1.319-.1,4.029-.22,6.9-.35,3.959-.179,8.449-.383,9.892-.542,1.741-.2,2.219-.548,2.69-1.957a5.575,5.575,0,0,0,.243-1.356c0-.664-1.107-2.746-4.507-3.2-1.075-.126-3.5-.329-5.378-.329a20.546,20.546,0,0,0-7.514,1.629l-1.574.612.756-1.51a7.412,7.412,0,0,0,.823-2.217c0-1.345-4.025-2.879-4.872-2.918-.141,0-.307.031-.591.408a1.191,1.191,0,0,0-.3.91,2.414,2.414,0,0,1,1.233-.389c1.366,0,1.934,1.549,1.934,2.378a5.072,5.072,0,0,1-.252,1.47l-.764,2.547-.311.11c-3.37,1.187-8.6,2.9-13.743,4.578.831-.031,1.8-.046,2.934-.046,2.169,0,4.519.06,6.63.114l3.047.072-.246.82c-1.244,4.142-1.648,4.545-1.781,4.678a6.255,6.255,0,0,1-2.072,1.525c-.158.085-.313.166-.462.252-.192.106-.37.212-.533.317m5.73,8.02a6.75,6.75,0,0,1-1.609-.187l-.424-.106-.2-1.4.566-.145a31.281,31.281,0,0,0,6.479-2.594c.423-.213.791-.4,1.1-.544a4.8,4.8,0,0,1,1.778-.506c1.475,0,2.1,1.823,2.1,2.548a1.787,1.787,0,0,1-1.291,1.659,51.866,51.866,0,0,1-8.5,1.276M148.56,55.3a4.1,4.1,0,0,0-1.256.4c-.276.129-.631.307-1.039.514a40.04,40.04,0,0,1-4.155,1.878,49.61,49.61,0,0,0,6.794-1.1c.29-.121.454-.275.454-.443,0-.293-.34-1.246-.8-1.246" transform="translate(39.657 -653.161)" fill="#1a1311"/>
    <path id="パス_56" data-name="パス 56" d="M183.535,67.317c.48,2.593,2.054,5.312,2.054,6.868a2.339,2.339,0,0,1-.548,1.654c-.617,1-3.645,2.331-4.469,2.923a4.409,4.409,0,0,1-2.538.778c-.274,0-3.875-.564-4.15-.638-1.715-.37.348-4.618-1.985-4.841-.309-.036-.034-.036-.309-.036-1.954,0-5.594,4.181-6.59,4.366a2.411,2.411,0,0,1-.514.074,2,2,0,0,1-1.646-.925c-.48-.7-1.956-3.186-1.956-4.186a1.743,1.743,0,0,1,.549-1.259,15.134,15.134,0,0,0,3.052-3.444c1.063-1.668,7.032-10.705,7.649-11.779a5.474,5.474,0,0,0,.926-2.741c0-.519-1.47-1.187-1.71-1.742h1.641c.446.334,1.782,1.519,1.782,2.557a2.371,2.371,0,0,1-.411,1.185c-.721,1.221-9.089,14.741-9.535,17.149a4.33,4.33,0,0,0-.068.667,1.287,1.287,0,0,0,.686,1.3c1.063.444,5.865-4.8,8.3-4.614,1.235.075-.309,5.392,1.2,5.688a10.919,10.919,0,0,0,2.2.259c1.715,0,3.241,1.408,4.613-1.964.721-1.7,1.831-6.308.863-7.66Z" transform="translate(55.45 -645.64)" fill="#1a1311"/>
    <path id="パス_57" data-name="パス 57" d="M178.208,80.4c-.392,0-4.083-.595-4.327-.662-1.307-.281-1.287-1.788-1.271-2.887.02-1.506-.1-1.886-.6-1.933-.064-.008-.136-.016-.207-.032-1.055.062-2.876,1.624-4.088,2.664a7.026,7.026,0,0,1-2.412,1.69,3.022,3.022,0,0,1-.639.085,2.687,2.687,0,0,1-2.216-1.229c-.016-.025-2.072-3.119-2.072-4.566a2.447,2.447,0,0,1,.756-1.749,14.66,14.66,0,0,0,2.95-3.319c.392-.613,1.432-2.2,2.625-4.025,2.062-3.149,4.628-7.067,5.012-7.732a5.068,5.068,0,0,0,.834-2.3,5.253,5.253,0,0,0-.589-.486,3.14,3.14,0,0,1-1.064-1.086l-.415-.958h2.914l.181.137c.212.157,2.059,1.585,2.059,3.1a2.983,2.983,0,0,1-.5,1.523c-.1.17-.329.546-.654,1.082-5.6,9.214-8.562,14.548-8.8,15.854a3.62,3.62,0,0,0-.056.542c0,.408.113.562.2.627a13.838,13.838,0,0,0,2.437-1.643c1.918-1.456,4.084-3.123,5.716-2.985,1.24.075,1.188,1.691,1.137,3.255a6.418,6.418,0,0,0,.184,2.464c1.35.259,2.444.217,3.325.391,1.184.232,1.835.36,2.676-1.7.835-1.976,1.617-6.057.941-7l-1.358-1.9,3.437,1.366.068.373a21.752,21.752,0,0,0,1.119,3.561,10.972,10.972,0,0,1,.946,3.431,3,3,0,0,1-.654,2.021c-.475.768-1.768,1.51-3.408,2.4-.521.282-1.013.549-1.24.713a5.087,5.087,0,0,1-2.939.907m-4.227-4.094c0,.2,0,.387,0,.564-.008.591-.022,1.484.223,1.537.324.078,3.658.6,4.023.623a3.77,3.77,0,0,0,2.1-.635,14.66,14.66,0,0,1,1.405-.82,11.284,11.284,0,0,0,2.9-1.921c.446-.706.446-.761.446-1.3a10.718,10.718,0,0,0-.858-2.946c-.148-.391-.3-.8-.452-1.219a21.421,21.421,0,0,1-1.207,4.861c-1.168,2.866-2.594,2.836-4.208,2.519a5.49,5.49,0,0,0-1.038-.138,11.736,11.736,0,0,1-2.335-.274,1.32,1.32,0,0,1-1-.856m-.06-22h0a6.028,6.028,0,0,1-1.019,3.082c-.4.7-2.871,4.472-5.049,7.8-1.192,1.817-2.228,3.4-2.615,4.005a15.905,15.905,0,0,1-3.177,3.59,1.039,1.039,0,0,0-.317.746,12.8,12.8,0,0,0,1.836,3.8,1.335,1.335,0,0,0,1.08.628,1.946,1.946,0,0,0,.37-.059,11.651,11.651,0,0,0,1.788-1.385c1.638-1.405,3.494-3,4.946-3a1.178,1.178,0,0,1,.344.035,1.808,1.808,0,0,1,1.612,1.146c-.011-.439,0-.9.019-1.364a9.752,9.752,0,0,0-.042-1.843c-1.153.083-3.141,1.592-4.61,2.709-1.957,1.487-2.931,2.192-3.731,1.854a1.938,1.938,0,0,1-1.107-1.929,5,5,0,0,1,.076-.77c.37-2.007,5.3-10.284,8.983-16.337.319-.527.545-.9.639-1.056a1.772,1.772,0,0,0,.317-.838,1.59,1.59,0,0,0-.344-.816m-.048,17.184h0" transform="translate(55.275 -645.814)" fill="#1a1311"/>
    <path id="パス_58" data-name="パス 58" d="M200.908,32.957a7.386,7.386,0,0,1,2.841-.948,3.917,3.917,0,0,1,3.078,3.138,4.074,4.074,0,0,1-.236,1.3c-.711,2.13-.592,3.847-.829,6.452a.183.183,0,0,1-.059.118c4.855-1.066,11.72-2.664,14.74-3.374a8.345,8.345,0,0,1,1.658-.177,9.584,9.584,0,0,1,3.907.887c.354.177,5.149,2.486,5.149,3.612,0,.591-.946,1.182-3.137,1.953a77.576,77.576,0,0,0-8.05,3.966,1.264,1.264,0,0,1,.177.71,4.884,4.884,0,0,1-1.3,2.664c-1.894,2.545-3.315,3.078-5.209,3.255-2.012.238-5.091.415-8.169.592-.059,7.34-.118,15.983-.118,22.079,0,1.3.118,7.814.118,9.236,0,3.609-3.02,6.273-3.907,6.273-.474,0-.828-.356-1.066-1.125-.356-1.42-1.42-6.393-2.071-8.11l.472-.413a4.8,4.8,0,0,0,2.251.887c.591,0,1.123-.474,1.3-1.361a115.138,115.138,0,0,0,.356-11.958c0-4.853-.059-10.418-.118-15.391-2.664.179-4.973.3-6.037.415-.238,0-.415.059-.652.059-1.005,0-1.479-.356-1.479-1.007a3.784,3.784,0,0,1,.3-1.184c.769-1.953,1.538-2.309,3.2-2.545a22.78,22.78,0,0,0,4.617-1.243c0-2.486-.059-4.617-.059-6.1-3.433.474-8.642,1.3-12.135,2.664-3.315,1.184-6.63,4.853-6.63,6.867,0,.3.178,1.6.178,1.953,0,1.3-.533,2.131-2.427,2.664a11.78,11.78,0,0,1-2.961.472c-3.314,0-4.971-4.024-4.971-6.511a21.7,21.7,0,0,1,1.064-5.8A49.651,49.651,0,0,1,179.775,36.8l.533.177a2.9,2.9,0,0,0-.118.889c0,2.6,1.658,9.057,2.309,10.892.177.474.356.71.71.71.652,0,5.86-2.131,6.986-2.487,2.6-.887,8.523-2.366,12.371-3.255V42.724c0-2.722-.238-8.524-1.658-9.175ZM220.62,44.2c0-.3-.415-.356-1.184-.415-2.368,0-9.59.887-13.792,1.421,0,.769,0,1.6-.059,2.6a3.233,3.233,0,0,0,2.96,1.421,11.521,11.521,0,0,0,1.479-.119A24.373,24.373,0,0,1,216,48.584a22.683,22.683,0,0,0,4.143-3.551,1.731,1.731,0,0,0,.474-.828" transform="translate(59.808 -652.614)" fill="#1a1311"/>
    <path id="パス_59" data-name="パス 59" d="M201.736,95.564c-.561,0-1.317-.281-1.726-1.613-.1-.392-.232-.973-.395-1.671-.474-2.052-1.191-5.153-1.663-6.4l-.17-.45,1.239-1.083.442.3a4.243,4.243,0,0,0,1.859.766c.286,0,.525-.309.624-.805a114.945,114.945,0,0,0,.344-11.822c0-4.676-.056-9.967-.111-14.654l-1.733.11c-1.562.1-2.835.174-3.546.254a2.024,2.024,0,0,0-.3.028,2.958,2.958,0,0,1-.424.036c-2.015,0-2.17-1.3-2.17-1.7a4.238,4.238,0,0,1,.34-1.425c.876-2.225,1.863-2.719,3.747-2.988a23.307,23.307,0,0,0,4.021-1.033c0-1.216-.02-2.339-.035-3.333-.007-.538-.013-1.039-.019-1.5a53.847,53.847,0,0,0-11.2,2.513c-3.079,1.1-6.189,4.546-6.189,6.224,0,.129.039.468.078.823.05.455.1.931.1,1.13,0,1.756-.876,2.751-2.93,3.329a12.16,12.16,0,0,1-3.147.5c-3.7,0-5.664-4.182-5.664-7.2a21.927,21.927,0,0,1,1.092-5.992,49.071,49.071,0,0,1,4.912-10.864l.527-.907,1.727.574-.224.659a2.118,2.118,0,0,0-.083.666c0,2.459,1.593,8.751,2.27,10.661a.96.96,0,0,0,.141.29c.329-.086,2.813-1.036,4.3-1.605,1.06-.405,1.992-.761,2.4-.89,2.4-.819,7.732-2.176,11.889-3.145V42.9c0-5.5-.734-8.308-1.255-8.547l-.4-.185V32.706l.381-.191.309.617-.231-.659a7.582,7.582,0,0,1,3.071-.98,4.521,4.521,0,0,1,3.77,3.829,4.794,4.794,0,0,1-.272,1.521,15.615,15.615,0,0,0-.655,4.306c-.021.37-.046.754-.074,1.158,5.637-1.25,12.913-2.958,13.767-3.158a8.906,8.906,0,0,1,1.815-.2,10.225,10.225,0,0,1,4.182.945c5.566,2.741,5.566,3.794,5.566,4.244,0,1.117-1.377,1.825-3.6,2.605a74.875,74.875,0,0,0-7.44,3.64,2.36,2.36,0,0,1,.03.385,5.42,5.42,0,0,1-1.451,3.091c-1.993,2.679-3.6,3.321-5.688,3.517-1.872.22-4.716.392-7.547.556-.056,7.194-.113,15.509-.113,21.427,0,.635.03,2.514.058,4.433.031,2.015.06,4.074.06,4.8,0,3.951-3.264,6.966-4.6,6.966m-2.193-9.269c.466,1.553,1.024,3.969,1.419,5.673.16.686.291,1.259.38,1.611.085.274.24.6.395.6a6.622,6.622,0,0,0,3.216-5.585c0-.725-.031-2.776-.062-4.781-.028-1.929-.056-3.815-.056-4.453,0-6.1.059-14.743.118-22.084l.005-.648.646-.036c3.02-.174,6.138-.354,8.127-.588,1.8-.169,3.02-.676,4.735-2.982a4.188,4.188,0,0,0,1.168-2.251.6.6,0,0,0-.062-.325l-.419-.624.656-.366a79.753,79.753,0,0,1,8.142-4.008c2.384-.838,2.666-1.267,2.7-1.345-.106-.2-1.225-1.205-4.7-2.915a8.944,8.944,0,0,0-3.678-.855,7.692,7.692,0,0,0-1.522.164c-.88.208-8.981,2.111-14.725,3.372l-2.331.511,1.572-1.554c.054-.659.089-1.224.119-1.76a16.862,16.862,0,0,1,.723-4.66,3.47,3.47,0,0,0,.2-1.084,3.36,3.36,0,0,0-2.389-2.447,5.117,5.117,0,0,0-2.036.624c1.26,1.463,1.544,5.8,1.544,9.4v1.557l-.534.122c-1.942.448-4.193.995-6.3,1.537,1.768-.354,3.778-.687,6.047-1l.785-.109V45.8c0,.642.012,1.407.024,2.27.016,1.126.035,2.42.035,3.828v.467l-.434.174a23.786,23.786,0,0,1-4.753,1.282c-1.48.211-2.007.421-2.674,2.118a3.074,3.074,0,0,0-.25.93c0,.1,0,.317.789.317a1.468,1.468,0,0,0,.227-.024,2.974,2.974,0,0,1,.424-.036c.65-.077,1.945-.158,3.535-.256l3.185-.205.008.73c.058,4.867.119,10.472.119,15.4,0,3.08-.035,10.426-.369,12.093a2.119,2.119,0,0,1-1.98,1.915,4.662,4.662,0,0,1-1.778-.507M179.706,38.779a45.552,45.552,0,0,0-4.182,9.523,21,21,0,0,0-1.038,5.608c0,2.088,1.431,5.821,4.282,5.821a10.935,10.935,0,0,0,2.784-.451c1.77-.5,1.911-1.169,1.911-2,0-.173-.048-.587-.09-.98-.046-.42-.087-.821-.087-.973,0-2.156,2.883-5.451,5.945-7.02l-.972.372c-3.192,1.221-4.409,1.655-4.873,1.655a1.5,1.5,0,0,1-1.357-1.157,57.872,57.872,0,0,1-2.322-10.4M208.72,50.1a3.893,3.893,0,0,1-3.545-1.742l-.118-.188.013-.221c.058-.992.058-1.807.058-2.564v-.609l.6-.077c7.562-.96,12.1-1.427,13.88-1.427.821.062,1.874.142,1.874,1.106a2.125,2.125,0,0,1-.632,1.271,23.269,23.269,0,0,1-4.287,3.68l-.195.134-.238-.016a23.682,23.682,0,0,0-5.789.519,12.308,12.308,0,0,1-1.625.133m-2.258-2.309a2.606,2.606,0,0,0,2.258.927,10.748,10.748,0,0,0,1.38-.113,25.72,25.72,0,0,1,5.883-.552,21.778,21.778,0,0,0,3.812-3.294c.023-.028.047-.056.067-.083l-.3-.026c-1.6,0-6,.454-13.052,1.342,0,.546-.012,1.133-.046,1.8" transform="translate(59.631 -652.79)" fill="#1a1311"/>
    <path id="パス_60" data-name="パス 60" d="M214.871,54.44a2.794,2.794,0,0,1,.2.934,3.58,3.58,0,0,1-.333,1.335c-.435,1.2-2.17,4.241-2.805,7.245a33.553,33.553,0,0,0-.635,5.476c0,.868,0,1.369.4,1.369a.528.528,0,0,0,.333-.168c.468-.5,1.737-2.77,2.17-3.405l.267.166c-1.1,3.474-2,6.612-2.337,8.046-.267,1.135-.7,1.636-1.235,1.636-1.1,0-2.5-2.1-2.5-3.071,0-.435.134-.868.168-1.7a31.428,31.428,0,0,1,1.1-7.445c.868-3.205,3.573-7.312,4.008-8.147a5.329,5.329,0,0,0,.9-2.2Zm6.711,6.343c1.6-.635,7.245-1.168,8.648-1.168,1.068,0,2.036.333,2.036,1.3,0,.934-1.336.934-2.07.934a13,13,0,0,1-2.871-.3,18.834,18.834,0,0,0-4.04-.634,6.342,6.342,0,0,0-1.636.166Zm3.439,6.711a5.97,5.97,0,0,0,2.17,2.17c1.87,1.035,4.206,1.068,5.376,1.3.768.168,1.2.467,1.2,1.068,0,1.436-1.068,1.436-1.7,1.436a11.16,11.16,0,0,1-3.806-.8c-1.8-.868-2.6-2.071-3.506-5.041Z" transform="translate(71.707 -644.938)" fill="#1a1311"/>
    <path id="パス_61" data-name="パス 61" d="M211,77.582c-1.331,0-2.894-2.287-2.894-3.462a5.066,5.066,0,0,1,.066-.7,9.94,9.94,0,0,0,.1-1.023,31.905,31.905,0,0,1,1.114-7.531,34.038,34.038,0,0,1,3.555-7.4c.227-.381.4-.668.482-.831a5.084,5.084,0,0,0,.86-2.058l.024-.285.9-.2.123.307a3.186,3.186,0,0,1,.228,1.079,3.886,3.886,0,0,1-.365,1.487c-.125.346-.357.846-.652,1.478a27.258,27.258,0,0,0-2.13,5.7,33.32,33.32,0,0,0-.625,5.4,5.7,5.7,0,0,0,.044.949.216.216,0,0,0,.025-.024,22,22,0,0,0,1.395-2.166c.3-.5.57-.95.73-1.182l.211-.309.839.526-.091.289c-1.043,3.288-1.978,6.51-2.327,8.016-.3,1.286-.846,1.938-1.616,1.938m3.755-21.773a11.819,11.819,0,0,1-.647,1.213c-.079.153-.259.454-.5.852a33.432,33.432,0,0,0-3.472,7.2,31.15,31.15,0,0,0-1.089,7.349,10.345,10.345,0,0,1-.109,1.113,4.23,4.23,0,0,0-.059.585c0,.778,1.275,2.682,2.115,2.682.472,0,.74-.836.858-1.335.289-1.248.974-3.653,1.789-6.3a15.321,15.321,0,0,1-1.227,1.848.918.918,0,0,1-.619.29c-.789,0-.789-.815-.789-1.758a33.937,33.937,0,0,1,.642-5.554,28.306,28.306,0,0,1,2.186-5.868c.275-.591.513-1.1.632-1.431a4.2,4.2,0,0,0,.283-.885m17.412,18.168a11.638,11.638,0,0,1-3.966-.838c-1.9-.914-2.768-2.148-3.719-5.283l-.094-.315.941-.47.156.395a5.631,5.631,0,0,0,2.007,1.98,11.757,11.757,0,0,0,4.17,1.1c.417.052.788.1,1.083.16.381.082,1.514.329,1.514,1.45,0,1.827-1.518,1.827-2.091,1.827M225.683,69a5.261,5.261,0,0,0,2.845,3.433,10.863,10.863,0,0,0,3.636.764c.793,0,1.313-.074,1.313-1.047,0-.239-.068-.507-.894-.687-.275-.055-.625-.1-1.021-.149a12.364,12.364,0,0,1-4.461-1.193A7.346,7.346,0,0,1,225.683,69m4.612-6.643a13.424,13.424,0,0,1-2.946-.309,18.626,18.626,0,0,0-3.965-.625,5.876,5.876,0,0,0-1.53.15l-.4.113-.228-1.027.31-.123c1.662-.658,7.377-1.2,8.79-1.2,1.518,0,2.425.632,2.425,1.693,0,1.325-1.723,1.325-2.459,1.325M224.381,60.7a25.788,25.788,0,0,1,3.131.588,12.576,12.576,0,0,0,2.782.291c.874,0,1.68-.066,1.68-.545,0-.793-1.032-.913-1.647-.913a54.963,54.963,0,0,0-5.947.578" transform="translate(71.608 -645.053)" fill="#1a1311"/>
    <path id="パス_62" data-name="パス 62" d="M238.357,79.843h-.079l-.04-.039H237.8v-.04h-.2v-.039h-.078a.111.111,0,0,1-.079-.04h-.1a.315.315,0,0,1-.1-.039h-.158l-.039-.039v0h-.277l-.039-.04H236.5v.04h-.2v-.04h-.158v-.039h-.157v-.04h-.079V79.45h-.079v-.04h-.079V79.37h-.039v-.04h-.039v-.039H235.6v-.039h-.118v-.04H235.4v-.039h-.079v-.04h-.039l-.039-.039h-.04v-.039h-.079v-.04h-.039v-.039H235v-.04h-.039V78.9h-.079l-.04-.039h-.039c-.027,0-.039-.013-.039-.04h-.079v-.039h-.079v-.04h-.039V78.7h-.079v-.04h-.079V78.62h-.039l-.039-.039h-.04v-.04h-.039V78.5h-.039v-.04h-.04v-.038h-.039v-.04h-.04v-.039h-.039V78.3h-.039v-.039h-.04v-.039H233.9v-.04h-.04v-.039h-.039v-.04h-.04v-.039l-.078-.039h-.04v-.04h-.039V77.95h-.079v-.04h-.039v-.039h-.04v-.079h-.078v-.039h-.04v-.04h-.039v-.039h-.04v-.039h-.039v-.04h-.079v-.039h-.039a.036.036,0,0,0-.04-.04h-.039v-.039h-.039v-.039h-.04V77.4h-.039v-.04h-.079v-.039l-.039-.04-.04-.039V77.2h-.039v-.04h-.039v-.039h-.04v-.04l-.039-.039h-.04V77l-.039-.04-.039-.039v-.04h-.04v-.078H232.4v-.04l-.039-.039v-.04l-.04-.039-.039-.039v-.039h-.04v-.079H232.2v-.04l-.039-.039v-.118h-.04v-.079h-.039v-.079h-.04v-.079h-.039v-.078h-.039V75.9h-.04V75.82h-.039v-.079h-.039V75.7l-.04-.04v-.078h-.039V75.5h-.04v-.118l-.039-.039v-.04h-.039v-.118h-.04V75.11l-.039-.039v-.079h-.04v-.118l-.039-.079v-.039l-.039-.04v-.2a.036.036,0,0,0-.04-.04v-.118a.035.035,0,0,0-.039-.039v-.158h-.039v-.533a.064.064,0,0,0-.02-.039.077.077,0,0,1-.02-.059c.027-.026.04-.046.04-.059v-.493a.175.175,0,0,1,.019-.079.169.169,0,0,0,.02-.079V72.7a.035.035,0,0,1,.039-.039v-.158l.04-.039v-.238h.039v-.078a.036.036,0,0,1,.039-.04v-.157h.04v-.119a.034.034,0,0,0,.039-.039v-.354a.036.036,0,0,0,.04-.04v-.078a.035.035,0,0,1,.039-.04v-.118a.035.035,0,0,1,.039-.039v-.119h.04v-.117h.039v-.04c0-.026.007-.039.02-.039a.018.018,0,0,0,.02-.02v-.039c0-.013.012-.02.039-.02v-.079h.039v-.078h.04v-.04a.034.034,0,0,0,.039-.039v-.04h.039v-.039h.04v-.079h.039V70.26c.025,0,.04-.005.04-.019v-.1h.039V70.1h.039v-.079h.04v-.04h.039v-.038h.04v-.079h.039v-.079h.039v-.039h.04v-.04h.039v-.039h.039V69.59h.04v-.039h.039v-.04h.04v-.039h.039v-.04h.039v-.039l.04-.039h.039v-.079h.04v-.04h.039V69.2h.039l.04-.039h.039v-.04l.039-.039h.04v-.04h.079V69h.078v-.039h.04V68.92h.039v-.04h.079v-.039h.039V68.8h.079v-.039h.039v-.039h.04l.039-.04h.079v-.039h.039l.04-.04h.039v-.039h.04v-.039h.078v-.04h.079v-.039h.039v-.04h.079l.04-.039h.039v-.039h.079v-.04h.078v-.039h.079v-.04h.079V68.17h.079v-.039h.118v-.04h.039l.039-.039h.079v-.04H235v-.039h.118v-.039h.2v-.039h.079l.039-.04h.079v-.039h.118v-.04h.079a.035.035,0,0,0,.039-.039h.238l.039-.039h.434v-.04h.907v.04h.236v.039h.238l.039.039H238a.111.111,0,0,0,.079.04h.039v.039h.158v.04h.079v.039h.2v.039h.078v.039h.079l.039.04h.079v.039h.079l.039.04h.119a.034.034,0,0,0,.039.039h.039v.039h.118v.04h.079l.04.039h.157v.04h.079a.034.034,0,0,0,.039.039h.039l.04.039h.039v.04h.079v.039h.118v.04h.04v.039h.039V68.6h.079v.04h.039v.039h.079v.04h.039l.04.039V68.8h.078v.04h.079v.039h.079v.04h.079v.039h.039V69h.039v.039h.079v.04h.04v.039h.039v.04h.039V69.2h.04v.039H241v.04h.039v.039h.04v.04h.039v.039h.04v.039h.039v.04h.039v.039h.04l.039.04v.039h.04v.039h.039v.04h.039v.079h.04v.039h.039v.079h.039v.039h.04v.04l.039.038v.04h.04l.039.039h.039v.04h.04v.039h.039v.039l.04.04v.039h.039l.039.04v.039h.04v.079h.039v.039h.039v.04h.04v.039h.039l.04.04v.078h.039v.04h.039v.039l.04.04.039.039v.039h.04v.079h.039v.039h.039v.039l.04.04.039.039v.04l.039.039v.039h.04v.079h.039v.04h.04V71.4h.039v.04h.039v.079h.04v.039l.039.039v.04l.04.039v.04l.039.039v.078h.039v.079l.04.04v.039h.039v.079l.039.039v.079h.04v.079l.039.039v.079h.04v.118l.039.04v.078a.109.109,0,0,0,.039.079v1.1a.313.313,0,0,1-.039.119v.236l-.039.04v.118l-.04.039v.079h-.039v.118h-.04v.157h-.039v.079c-.027.027-.039.046-.039.059s-.013.034-.04.059v.079h-.039v.118h-.039v.079h-.04v.079h-.039v.079h-.04v.078h-.039v.119h-.039v.039h-.04v.04l-.039.038v.04h-.04v.079h-.039v.078l-.039.04v.079h-.04V76.1l-.039.039v.04c0,.026-.007.039-.02.039s-.019.013-.019.039v.119h-.04v.118H242.3v.118h-.04v.039a.035.035,0,0,1-.039.039v.079l-.039.04v.039l-.04.039v.079H242.1V77h-.04v.078h-.039v.079h-.039v.079h-.04v.118h-.039v.079h-.039v.039l-.04.039v.04h-.039v.079h-.04v.039h-.039v.079h-.039l-.04.039v.079h-.039v.039l-.04.04v.039h-.039v.04h-.039v.078h-.04v.04h-.039v.079h-.039V78.3h-.04l-.039.04v.039h-.04v.04H241.2v.038h-.039v.04h-.04v.039h-.039v.079h-.04v.039H241v.04h-.079v.039h-.078v.04h-.04l-.039.039h-.079v.04H240.6V78.9h-.039v.039h-.039v.04h-.04v.039h-.039v.04h-.079v.039h-.039v.039h-.079v.04h-.079v.039h-.078v.04h-.119v.039h-.039v.039h-.04v.04h-.039v.039h-.039l-.04.04h-.039v.038h-.079v.04h-.078v.039H239.5v.04h-.118l-.04.039H239.3a.114.114,0,0,1-.079.039l-.039.04h-.079l-.039.039h-.276v.04h-.236v.039h-.2Zm-.671-3.233h.118v-.039h.079v-.04h.039v-.079h.04v-.039H238v-.118h.04v-.158c0-.027.012-.039.039-.039v-.079a.376.376,0,0,0,.039-.1v-.06h.04v-.118a.035.035,0,0,0,.039-.039v-.04h.039v-.078h.04v-.039h.039V75.5h.04v-.039h.039v-.04h.039v-.039h.04l.039-.039h.04v-.04h.039v-.039h.039v-.04h.04V75.15h.039v-.04l.039-.039v-.04h.04v-.039h.039v-.039h.04v-.079l.039-.04v-.354l-.039-.039v-.079h-.04v-.079h-.039v-.039h-.04v-.079h-.039v-.079h-.039v-.039l-.04-.079v-.039l-.039-.04v-.039h-.039v-.04h-.04v-.039h-.039V73.73h-.04v-.039h-.078v-.04h-.079v-.039h-.04v-.039H238.2l-.039-.04h-.04v-.039H238v-.04h-.079v-.039H237.8v-.039h-.157v-.04h-.079V73.3h-.2a.035.035,0,0,0-.039-.04h-.315v.04h-.2c0,.027-.013.039-.04.039h-.118v.04h-.118v.039H236.5c-.027,0-.04.007-.04.019s-.013.02-.039.02h-.04v.04h-.118l-.039.039h-.039v.04h-.04v.039h-.079v.039l-.039.04h-.039v.039h-.04v.039h-.039v.039h-.04v.04h-.039v.079h-.039v.118a.035.035,0,0,0-.04.039v.435h.04v.157h.039v.118h.039v.039a.082.082,0,0,0,.02.06.081.081,0,0,1,.02.059v.039l.039.039v.079h.04v.079h.039v.039h.039v.079h.04v.04l.039.039.04.039v.04h.039V75.5h.039v.04h.04v.079h.039v.038h.039v.04h.04v.039h.039v.04h.04v.039h.039v.039h.039v.04h.079v.039h.04v.04h.078v.039h.04V76.1h.078v.039h.04v.04h.039v.039h.04v.039h.039v.04h.039v.039h.04v.04h.039v.039h.04v.039h.078v.04h.079v.039h.079v.04h.079v.039h.157Z" transform="translate(79.545 -640.415)" fill="#1a1311"/>
    <rect id="長方形_18" data-name="長方形 18" width="322.434" height="106.568" transform="translate(0.396 -663.568)" fill="none"/>
    <rect id="長方形_32" data-name="長方形 32" width="34.231" height="1.006" transform="translate(-35.374 -671.205)" fill="#1a1311"/>
    <rect id="長方形_33" data-name="長方形 33" width="1.005" height="55.848" transform="translate(-28.158 -678.425)" fill="#1a1311"/>
    <rect id="長方形_34" data-name="長方形 34" width="34.231" height="1.005" transform="translate(329.769 -547.957)" fill="#1a1311"/>
    <rect id="長方形_35" data-name="長方形 35" width="1.006" height="55.848" transform="translate(355.781 -595.578)" fill="#1a1311"/>
  </g>
</svg>
