<svg xmlns="http://www.w3.org/2000/svg" width="311.374" height="121.695" viewBox="0 0 311.374 121.695">
  <g id="グループ_61" data-name="グループ 61" transform="translate(-58.313 -384.153)">
    <path id="パス_110" data-name="パス 110" d="M20.592-8.316h7.164l5.472.108.216-.18v-4.068l-.216-.18-5.472.108H25.488c.5-.864.972-1.836,1.476-2.88l-.216-.324L22.14-16.956l-.288.216A34.053,34.053,0,0,1,20.3-12.528h-5a14.6,14.6,0,0,0-2.16-4.212l-.36-.144-4,.9-.216.324a14.066,14.066,0,0,1,1.512,3.132H8.208l-5.472-.108-.216.216v4l.252.216,5.436-.108H15.3v2.3H9.648L4.536-6.12,4.32-5.9v4l.252.216L9.648-1.8h5.616L15.12,3.636h5.652L20.628-1.8h5.76l5.112.108.216-.18V-5.94L31.5-6.12l-5.112.108h-5.8ZM15.3-21.2H6.768L1.3-21.312,1.08-21.1v4l.252.216,5.436-.108h22.5l5.472.108.216-.18v-4.068l-.216-.18-5.472.108H20.592v-2.124h5.76l5.112.108.216-.18v-4.032l-.216-.18-5.112.108h-5.76v-3.132l-.216-.288H15.552l-.252.252V-27.5H9.756l-5.112-.108-.216.216v3.96l.252.216,5.076-.108H15.3ZM50.4-9.144v5.832L50.22,3.6h4.788V2.052h9.864V3.6H69.8l-.18-6.912v-6.3l.108-3.348-.252-.252-5.364.108H55.908l-5.364-.108-.252.252.036.792A15.814,15.814,0,0,0,47.844-14.4l-.432-.036-1.08,1.116V-13.9A42.434,42.434,0,0,0,50.8-22.572a1.271,1.271,0,0,0,.108-.5.985.985,0,0,0-.252-.648L48.744-25.56l-2.2.108h-.216v-5.184l-.216-.288H41.76l-.252.252v5.22L37.26-25.56l-.216.216v4.176l.216.288,4.248-.072h3.2a27.279,27.279,0,0,1-8.6,10.44L38.52-6.948a.626.626,0,0,0,.5.324,1.151,1.151,0,0,0,.612-.288,19.9,19.9,0,0,0,1.872-1.656V-5.22l-.18,8.856h5.184l-.18-8.856v-4.824A20.084,20.084,0,0,1,48.1-7.272l.468.036ZM62.208-1.62v-2.2h2.664v2.2Zm-4.608,0H55.008v-2.2H57.6Zm4.608-5.8V-9.432h2.664v2.016Zm-4.608,0H55.008V-9.432H57.6ZM55.692-14.58h8.532l3.744.108.288-.324-.108-2.988v-2.592l.108-2.916L68-23.544l-3.528.108h-9l-3.528-.108-.252.252.108,2.916v2.484l-.18,3.132.252.288Zm.54-3.456V-19.98h7.236v1.944Zm-1.548-6.84H65.448l4.716.108.252-.252v-3.816l-.252-.252-4.716.108H54.684l-4.716-.108-.252.252v3.816l.252.252Z" transform="translate(116 432)"/>
    <path id="パス_111" data-name="パス 111" d="M1.24-5.76,3-3.8l.2-.02A29.516,29.516,0,0,1,6.68-7.06a3.832,3.832,0,0,1,2.28-.7.88.88,0,0,1,1,.76q-.66.3-1.2.6C6.9-5.34,5.28-4,5.28-2.08c0,1.72,1.06,3.42,5.1,3.42,2.34,0,4.02-.1,5.92-.26l.12-.16-.18-2.66-.2-.12a35.816,35.816,0,0,1-5.22.42c-1.78-.02-2.58-.2-2.58-.88s.68-1.24,1.9-1.82V-2.5l.16.12,2.64-.1.14-.12c-.02-.96-.04-1.94-.08-2.72,1.48-.54,3.2-1.06,5.22-1.58l.1-.18L17.08-9.54l-.2-.08c-1.56.52-2.98,1.02-4.24,1.5a2.452,2.452,0,0,0-2.44-1.92,5.848,5.848,0,0,0-1.88.26c.4-.48.84-1.1,1.16-1.58,1.66-.2,3.3-.46,4.76-.76l.12-.18-.2-2.36-.18-.1c-1,.24-2,.42-3,.58.22-.58.46-1.18.7-1.88l-.12-.14-2.74-.4-.16.1a20.934,20.934,0,0,1-.94,2.68c-1.48.1-2.96.14-4.46.14l-.14.12L3.2-11.1l.12.12c.94,0,1.94-.02,2.9-.1a23.592,23.592,0,0,1-4.98,5.1ZM32.76-3.22c-.02.1-.02.18-.04.28-.2,1.62-.64,1.94-1.64,1.96-.76.02-1.52.02-2.6-.02l1.18,2.4a.537.537,0,0,0,.58.38H31.4a4.217,4.217,0,0,0,3.06-.9,4.785,4.785,0,0,0,1.18-2.94c.04-.38.1-.76.14-1.16h.28l3.32.06.14-.14V-5.62l-.14-.14-3.32.06h-.1c.08-1.36.14-2.86.18-4.6L36-10.44l-3.46.06H26.6l.08-.64.2-1.52h7.1l3.02.06.14-.14v-2.22L37-14.98l-3.02.06h-6.8l.22-1.82-.1-.18-2.68-.34-.16.12-.72,5.72-.72,4.48,3.14.24L26.32-8h6.76c-.02.74-.06,1.52-.1,2.3H23.92L20.6-5.76l-.14.14V-3.3l.14.14,3.32-.06ZM43.94-7.58c2.18-.46,4.16-.98,5.94-1.52-2.6,2.6-4.98,5.12-7.94,8.5v.2l2.42,1.68.22-.06a46.4,46.4,0,0,1,3.44-4.34c.66-.74.98-.94,1.38-.94a.621.621,0,0,1,.72.58c.14.86.18,1.58.24,2.34.12,1.44.58,2.28,4.06,2.28,1.28,0,2.36-.04,3.36-.1L57.9.86l-.2-2.72-.18-.1a24.835,24.835,0,0,1-2.7.16c-1.54,0-1.62-.08-1.68-1a11.744,11.744,0,0,0-.24-1.62A2.24,2.24,0,0,0,50.44-5.8c1.22-1.22,2.38-2.24,3.4-3.2a1.538,1.538,0,0,0,.54-1.18,2.026,2.026,0,0,0-2.02-1.96,7.821,7.821,0,0,0-1.12.24c-3.14.7-5.12,1.06-7.84,1.42l-.12.16.52,2.64Zm2.2-6.46A31.876,31.876,0,0,0,52.44-13l.18-.1.5-2.64L53-15.88a27.241,27.241,0,0,1-6.12-.84l-.16.1-.68,2.42ZM70.7-6.1V-7h6.02v2.08h2.64l-.1-2V-7.7l.06-1.46-.14-.14-2.98.06H71.26L68.32-9.3l-.14.14.06,1.64v.44a17.648,17.648,0,0,0-.92-2.74l-.16-.06-1.48.5-.12.16c.1.26.2.56.3.84l-1.18.12a41.744,41.744,0,0,0,3.26-5l-.06-.18-1.94-1.04-.18.08c-.5.92-.98,1.78-1.46,2.6-.14-.12-.3-.26-.46-.4a41.48,41.48,0,0,0,2.12-3.96l-.06-.18-2.16-.84-.18.08a31.907,31.907,0,0,1-1.5,3.54c-.16-.12-.32-.22-.48-.32h-.16l-1.08,1.62v.16a18.263,18.263,0,0,1,2.78,2.26q-.54.9-1.14,1.74c-.46.02-.94.04-1.42.04l-.14.14.46,2.14.18.1c.82-.1,1.58-.2,2.3-.32v3.06l-.1,4.92h2.58l-.1-4.92V-6.38c.2-.02.4-.06.6-.1.08.32.12.62.18.92l.16.1L68.2-6l-.06,1.08h2.2c-.08,3.08-1.26,3.96-4.08,4.7l1.5,1.9a.384.384,0,0,0,.32.18.88.88,0,0,0,.2-.04c3.36-1.08,4.78-3.08,4.7-7.76l-.14-.16Zm1.4-6.1h-.56l-2.64-.06-.12.1v2.04l.14.12,2.62-.06h4.24L78.2-10l.14-.14v-2.02l-.12-.1-2.44.06H74.9v-1.14h1.9l2.46.06.1-.12v-2l-.16-.12-2.4.06H74.9v-1.4L74.76-17H72.24l-.14.16v1.38H70.5l-2.44-.06-.12.14v2l.14.1,2.42-.06h1.6ZM65.98-4.94l-.1.14a19.366,19.366,0,0,1,.72,3.22l.14.1,1.78-.62.08-.18a19.05,19.05,0,0,0-.88-3.04l-.16-.08Zm-4.84-.34-.12.1a22.765,22.765,0,0,1-.68,5.1L62,.68a.521.521,0,0,0,.22.06c.12,0,.18-.08.24-.3a30.586,30.586,0,0,0,.66-5.24L63-4.94ZM76.4-6.04l-.14-.16h-2.4l-.14.14v2.34L73.7-.48c0,1.92.38,2.08,2.6,2.08A3.9,3.9,0,0,0,79.08.9c.46-.44.66-1.22.74-2.66.02-.2,0-.24-.2-.34l-1.94-.88C77.56-1.22,77.42-1,76.9-1c-.5,0-.5,0-.5-.46ZM90.9,1.52a.471.471,0,0,0,.26.1.618.618,0,0,0,.16-.04A7.437,7.437,0,0,0,94.7-1.26c.72-1.08,1.1-2.6,1.1-5.44,0-.66-.02-1.68-.06-2.7,1.02-.08,1.96-.2,2.84-.32l.12-.14-.12-2.48-.14-.12c-.84.1-1.76.22-2.78.3-.04-1.14-.1-2.28-.16-3.46l-.14-.14-2.74.06-.16.12c.08,1.28.16,2.5.2,3.64-1.32.08-2.72.12-4.06.12l-.16.1.06,2.44.12.18c1.46-.02,2.84-.04,4.16-.1.04.92.04,1.82.04,2.44a7.146,7.146,0,0,1-.68,3.7A6.966,6.966,0,0,1,88.56-.18ZM83.34-15.52a22.34,22.34,0,0,1-.4,3.52,36.9,36.9,0,0,0-.7,5.92,10.693,10.693,0,0,0,1.2,5.42A2.3,2.3,0,0,0,85.28.58c1.04,0,1.56-.6,1.48-1.86-.04-.9.18-1.5.86-3.64l-.54-.3a14.011,14.011,0,0,1-1.34,1.54c-.24.24-.38.22-.44-.02a10.27,10.27,0,0,1-.24-2.34,22.2,22.2,0,0,1,.62-4.58,28.6,28.6,0,0,0,.62-4.56l-.14-.16-2.66-.3Zm21.52,3.82c1.84-.52,3.6-.94,5.12-1.26-2.66,2.64-5.18,5.4-7.94,8.56l.02.22,2.14,1.72.2-.02c2.12-2.74,4.18-4.62,7.04-4.62a2.526,2.526,0,0,1,2.72,2.52,2.768,2.768,0,0,1-1.54,2.9,4.184,4.184,0,0,0-4.06-2.96,3.154,3.154,0,0,0-3.06,2.78c0,2.28,2,3.26,4.36,3.26,4.62,0,7.36-2.06,7.36-5.7a4.819,4.819,0,0,0-5.04-5.16,4.943,4.943,0,0,0-2.5.52c1.66-1.64,2.78-2.66,4.4-4.26a1.388,1.388,0,0,0,.36-1.04,1.8,1.8,0,0,0-1.84-1.74c-2.18.28-5.26.76-8.3,1.44l-.12.18.52,2.56Zm5.26,10.66a2.66,2.66,0,0,1-.64.06c-1.02,0-1.48-.38-1.48-.8,0-.36.36-.52.76-.52A1.523,1.523,0,0,1,110.12-1.04Z" transform="translate(194 434)"/>
    <path id="パス_112" data-name="パス 112" d="M12.1-27.072c.5-.72,1.044-1.476,1.512-2.232l-.036-.36L9.144-31.032,8.82-31c-2.052,4.068-4.932,6.768-8.712,9.54l2.7,2.484a.812.812,0,0,0,.576.288.969.969,0,0,0,.576-.252c.4-.288.828-.612,1.224-.936V-14.8l-.108,4.608.252.216,5.04-.108h4.824v1.44H7.308L1.4-8.712l-.324.144v3.744l.252.252L7.308-4.68h4.32A43.137,43.137,0,0,1,.432-.324l2.88,3.348a.509.509,0,0,0,.432.252,1.245,1.245,0,0,0,.432-.108,42.009,42.009,0,0,0,11.052-5.58l-.216,5.976h5.616l-.216-6.228c3.06,2.52,6.192,4.032,11.052,5.688a1.245,1.245,0,0,0,.432.108.581.581,0,0,0,.5-.252L35.532-.828A42.029,42.029,0,0,1,23.9-4.68h4.752l5.976.108.252-.252V-8.5l-.252-.216-5.976.072H20.448v-1.44h7.56l5.112.108.216-.144v-3.348l-.216-.144-5.112.108H21.924v-1.332h4.1l5.112.072.216-.108V-17.82L31.14-18l-5.112.108h-4.1v-1.3h4.1l5.112.108.216-.144v-2.952l-.216-.144-5.112.072h-4.1v-1.368h5.76l5.112.072.216-.144V-27l-.216-.18-5.112.108h-5.04a24.691,24.691,0,0,0,1.62-2.592l-.216-.324L19.368-31l-.288.18a18.753,18.753,0,0,1-1.764,3.744Zm4.716,3.456v1.368H10.224v-1.368Zm0,4.428v1.3H10.224v-1.3Zm0,4.356V-13.5H10.224v-1.332Zm43.524-1.836L63.5-16.6l.252-.252v-3.924l-.252-.252-3.168.072V-24.12l-.324-.252H55.656l-.288.288v3.168H48.96l-4.716-.108-.252.252v3.924l.252.252L48.96-16.7h6.408v6.84c0,.864-.216,1.08-.972,1.152a28.492,28.492,0,0,1-2.88.072l2.2,4.356c.18.36.288.432.756.432,5,0,6.012-1.188,6.012-5.436ZM45.5-13.5l-.036.36A24.755,24.755,0,0,1,49-7.884l.36.072L53.28-10.4l.072-.36a26.317,26.317,0,0,0-3.816-5.076l-.4-.036ZM64.656,1.4V3.456h5.472l-.18-16.164v-10.62l.108-6.156-.288-.216-6.048.108H44.208L38.16-29.7l-.288.216.108,6.156v11.16L37.8,3.456h5.292V1.4Zm0-4.464H43.092V-25.128H64.656Z" transform="translate(116 477)"/>
    <path id="パス_113" data-name="パス 113" d="M14.68-8.98a12.634,12.634,0,0,1,1.98,2.16h.2l1.1-.78.02-.2a12.826,12.826,0,0,0-2.04-2.12l-.2.02-1.04.74Zm1.88-1.26a12.036,12.036,0,0,1,1.96,2.08h.2l1.04-.76.02-.2a12.1,12.1,0,0,0-1.98-2.06l-.2.02-1.02.74ZM2.22-9.12c2.84-.8,4.98-1.36,6.94-1.84A7.607,7.607,0,0,0,6.48-5.32,5.2,5.2,0,0,0,9.7-.08a15.922,15.922,0,0,0,6.32.92l.16-.12.16-3.04-.14-.14a16.848,16.848,0,0,1-4.78-.44A2.54,2.54,0,0,1,9.48-5.6a6.839,6.839,0,0,1,2.9-5.2c1.22-1,3.16-1.4,5.38-1.56l.14-.18-.58-2.66-.18-.1C11.5-14.28,7.04-13.36,1.46-12l-.08.16L2.04-9.2ZM28.72-.34,30.6-2l.04-.18a3.351,3.351,0,0,1-.38-.48,14.579,14.579,0,0,0,3.32-5.28,2.639,2.639,0,0,1,1.78,2.78c0,2.26-1.18,3.7-5.48,4.42L31.66,1.3c.1.12.18.12.34.12,3.6-.66,6.34-2.68,6.34-6.48a5.3,5.3,0,0,0-4.12-5c.04-.16.08-.34.14-.62l-.1-.14-2.48-.58-.14.1a5.374,5.374,0,0,1-.18.8,13.117,13.117,0,0,0-2.16.18c.04-.56.08-1.06.1-1.34,1.76-.22,3.46-.5,5.28-.86l.1-.18-.12-2.48-.2-.08a34.506,34.506,0,0,1-4.82,1c.08-.64.14-1.26.22-1.88l-.1-.18-2.68-.1-.14.16c-.04.76-.1,1.52-.16,2.28-1.14.08-2.26.1-3.26.1l-.14.14.04,2.34.12.14c1.08-.02,2.1-.06,3.08-.14-.04.68-.08,1.22-.1,1.9C23.9-8.12,21.8-5.48,21.8-2.48c0,1.64.9,2.86,2.46,2.86A7.318,7.318,0,0,0,28.02-.88a4.451,4.451,0,0,0,.52.54ZM26.5-6.7a14.7,14.7,0,0,0,.4,3.36,4.149,4.149,0,0,1-1.82.82c-.42,0-.68-.2-.68-.64A5.373,5.373,0,0,1,26.5-6.7Zm2.74,1.26a13.155,13.155,0,0,1-.08-2.66,4.975,4.975,0,0,1,1.7-.22A10.942,10.942,0,0,1,29.24-5.44Zm17.02-10.7a32.753,32.753,0,0,1-.66,4.2,22.867,22.867,0,0,0-.76,4.92,7.952,7.952,0,0,0,.8,3.48l.2.08,2.52-.6.1-.2a7.084,7.084,0,0,1-.52-2.48,5.731,5.731,0,0,1,.42-2.44c.38-1,1.34-2.02,2.1-2.02a1.137,1.137,0,0,1,1.2.8,8.783,8.783,0,0,1,.38,3.04c0,3.62-1.1,5.54-5.8,6.7L48.3,1.36a.56.56,0,0,0,.38.18,1.851,1.851,0,0,0,.38-.08c4.72-1.6,6.24-4.44,6.24-8.58a8.511,8.511,0,0,0-1.18-5.06,3.29,3.29,0,0,0-2.9-1.58,3.284,3.284,0,0,0-2.8,1.54c.22-.74.38-1.18.52-1.76.12-.58.2-1.04.32-1.96l-.14-.16-2.7-.18ZM70.7-6.1V-7h6.02v2.08h2.64l-.1-2V-7.7l.06-1.46-.14-.14-2.98.06H71.26L68.32-9.3l-.14.14.06,1.64v.44a17.648,17.648,0,0,0-.92-2.74l-.16-.06-1.48.5-.12.16c.1.26.2.56.3.84l-1.18.12a41.744,41.744,0,0,0,3.26-5l-.06-.18-1.94-1.04-.18.08c-.5.92-.98,1.78-1.46,2.6-.14-.12-.3-.26-.46-.4a41.48,41.48,0,0,0,2.12-3.96l-.06-.18-2.16-.84-.18.08a31.907,31.907,0,0,1-1.5,3.54c-.16-.12-.32-.22-.48-.32h-.16l-1.08,1.62v.16a18.263,18.263,0,0,1,2.78,2.26q-.54.9-1.14,1.74c-.46.02-.94.04-1.42.04l-.14.14.46,2.14.18.1c.82-.1,1.58-.2,2.3-.32v3.06l-.1,4.92h2.58l-.1-4.92V-6.38c.2-.02.4-.06.6-.1.08.32.12.62.18.92l.16.1L68.2-6l-.06,1.08h2.2c-.08,3.08-1.26,3.96-4.08,4.7l1.5,1.9a.384.384,0,0,0,.32.18.88.88,0,0,0,.2-.04c3.36-1.08,4.78-3.08,4.7-7.76l-.14-.16Zm1.4-6.1h-.56l-2.64-.06-.12.1v2.04l.14.12,2.62-.06h4.24L78.2-10l.14-.14v-2.02l-.12-.1-2.44.06H74.9v-1.14h1.9l2.46.06.1-.12v-2l-.16-.12-2.4.06H74.9v-1.4L74.76-17H72.24l-.14.16v1.38H70.5l-2.44-.06-.12.14v2l.14.1,2.42-.06h1.6ZM65.98-4.94l-.1.14a19.366,19.366,0,0,1,.72,3.22l.14.1,1.78-.62.08-.18a19.05,19.05,0,0,0-.88-3.04l-.16-.08Zm-4.84-.34-.12.1a22.765,22.765,0,0,1-.68,5.1L62,.68a.521.521,0,0,0,.22.06c.12,0,.18-.08.24-.3a30.586,30.586,0,0,0,.66-5.24L63-4.94ZM76.4-6.04l-.14-.16h-2.4l-.14.14v2.34L73.7-.48c0,1.92.38,2.08,2.6,2.08A3.9,3.9,0,0,0,79.08.9c.46-.44.66-1.22.74-2.66.02-.2,0-.24-.2-.34l-1.94-.88C77.56-1.22,77.42-1,76.9-1c-.5,0-.5,0-.5-.46ZM90.9,1.52a.471.471,0,0,0,.26.1.618.618,0,0,0,.16-.04A7.437,7.437,0,0,0,94.7-1.26c.72-1.08,1.1-2.6,1.1-5.44,0-.66-.02-1.68-.06-2.7,1.02-.08,1.96-.2,2.84-.32l.12-.14-.12-2.48-.14-.12c-.84.1-1.76.22-2.78.3-.04-1.14-.1-2.28-.16-3.46l-.14-.14-2.74.06-.16.12c.08,1.28.16,2.5.2,3.64-1.32.08-2.72.12-4.06.12l-.16.1.06,2.44.12.18c1.46-.02,2.84-.04,4.16-.1.04.92.04,1.82.04,2.44a7.146,7.146,0,0,1-.68,3.7A6.966,6.966,0,0,1,88.56-.18ZM83.34-15.52a22.34,22.34,0,0,1-.4,3.52,36.9,36.9,0,0,0-.7,5.92,10.693,10.693,0,0,0,1.2,5.42A2.3,2.3,0,0,0,85.28.58c1.04,0,1.56-.6,1.48-1.86-.04-.9.18-1.5.86-3.64l-.54-.3a14.011,14.011,0,0,1-1.34,1.54c-.24.24-.38.22-.44-.02a10.27,10.27,0,0,1-.24-2.34,22.2,22.2,0,0,1,.62-4.58,28.6,28.6,0,0,0,.62-4.56l-.14-.16-2.66-.3Zm21.52,3.82c1.84-.52,3.6-.94,5.12-1.26-2.66,2.64-5.18,5.4-7.94,8.56l.02.22,2.14,1.72.2-.02c2.12-2.74,4.18-4.62,7.04-4.62a2.526,2.526,0,0,1,2.72,2.52,2.768,2.768,0,0,1-1.54,2.9,4.184,4.184,0,0,0-4.06-2.96,3.154,3.154,0,0,0-3.06,2.78c0,2.28,2,3.26,4.36,3.26,4.62,0,7.36-2.06,7.36-5.7a4.819,4.819,0,0,0-5.04-5.16,4.943,4.943,0,0,0-2.5.52c1.66-1.64,2.78-2.66,4.4-4.26a1.388,1.388,0,0,0,.36-1.04,1.8,1.8,0,0,0-1.84-1.74c-2.18.28-5.26.76-8.3,1.44l-.12.18.52,2.56Zm5.26,10.66a2.66,2.66,0,0,1-.64.06c-1.02,0-1.48-.38-1.48-.8,0-.36.36-.52.76-.52A1.523,1.523,0,0,1,110.12-1.04Zm13.42-2.7A2.8,2.8,0,0,0,120.7-.92a2.8,2.8,0,0,0,2.84,2.82,2.784,2.784,0,0,0,2.84-2.82A2.784,2.784,0,0,0,123.54-3.74Zm0,1.16A1.619,1.619,0,0,1,125.2-.92,1.619,1.619,0,0,1,123.54.74a1.631,1.631,0,0,1-1.66-1.66A1.631,1.631,0,0,1,123.54-2.58Z" transform="translate(194 479)"/>
    <g id="グループ_19" data-name="グループ 19" transform="translate(18.313 384.153)">
      <rect id="長方形_32" data-name="長方形 32" width="34.231" height="1.006" transform="translate(40 7.221)" fill="#1a1311"/>
      <rect id="長方形_33" data-name="長方形 33" width="1.005" height="55.848" transform="translate(47.216 0)" fill="#1a1311"/>
      <rect id="長方形_34" data-name="長方形 34" width="34.231" height="1.005" transform="translate(317.143 113.468)" fill="#1a1311"/>
      <rect id="長方形_35" data-name="長方形 35" width="1.006" height="55.848" transform="translate(343.155 65.847)" fill="#1a1311"/>
    </g>
  </g>
</svg>
