<svg xmlns="http://www.w3.org/2000/svg" width="258.993" height="22.168" viewBox="0 0 258.993 22.168">
  <path id="パス_110" data-name="パス 110" d="M12.5-18.457a3.332,3.332,0,0,1,2.051.586,1.575,1.575,0,0,1,.586,1.27,5.487,5.487,0,0,1-.1,1.074,2.869,2.869,0,0,0-.1.684A19.863,19.863,0,0,1,18.652-12.4a1.36,1.36,0,0,1,.1.586,3.741,3.741,0,0,1-1.66,1.074l-1.562.586a19.007,19.007,0,0,0,4.98,8.008,1.479,1.479,0,0,0,.684-.781,16.332,16.332,0,0,0,.1-2.344q0-.391.293,0a6.554,6.554,0,0,1,1.172,4.3A2.9,2.9,0,0,1,22.363.488a.89.89,0,0,1-.488.488q-1.758-.293-4-3.027A22.5,22.5,0,0,1,14.063-8.5l-.391-.977a14.607,14.607,0,0,1-3.516.977H9.473a1.468,1.468,0,0,0-.488.781,17.534,17.534,0,0,1-1.27,1.953Q6.543-4.1,5.859-2.93a2.406,2.406,0,0,1-.684,1.172q-.293.293-.684-.1A4.279,4.279,0,0,1,3.418-3.32q-.1-.293.391-.781a38.85,38.85,0,0,0,1.367-4l-.293-.488Q4-8.008,3.027-7.422a.244.244,0,0,1-.391,0,1.688,1.688,0,0,1-.586-1.172q-.1-.781.879-1.465a15.84,15.84,0,0,0,1.465-1.27,2.823,2.823,0,0,0,.879-.879,15.671,15.671,0,0,1,1.66-2.441v-.2q-.391-.684-.684-1.172l.781-.1a3.154,3.154,0,0,1,1.172.2,4.181,4.181,0,0,1,1.465.879.6.6,0,0,1,.2.781A9.187,9.187,0,0,1,8.691-12.4a35.827,35.827,0,0,1-2.734,2.93A2.791,2.791,0,0,1,7.129-7.52a1.017,1.017,0,0,0,.1.586L8.3-7.91q1.172-1.27,1.758-1.855-.293.488-.391.684-.879.586,1.465-1.27a20.043,20.043,0,0,0,1.953-1.074q-.1-.781-.2-1.758-.2-1.66-.293-3.027a4.883,4.883,0,0,1-.684-.488q-.488-.2-.488-.391Q11.23-18.457,12.5-18.457Zm7.715.684a10.358,10.358,0,0,1,1.758.879,1.029,1.029,0,0,1,.391.879,3.2,3.2,0,0,1-.2.781,4.689,4.689,0,0,1-1.66.293q-1.27,0-1.27-.684a3.394,3.394,0,0,0-.977-1.953v-.1a4.109,4.109,0,0,0,.977-.1A1.225,1.225,0,0,1,20.215-17.773Zm-5.371,3.516a10.077,10.077,0,0,0,.2,2.148l.488-.1Q15.723-13.867,14.844-14.258ZM37.5-19.922a1.689,1.689,0,0,1,1.367.781,3.422,3.422,0,0,1,.488.977,5.672,5.672,0,0,1,.1,1.367,2.408,2.408,0,0,1,2.051.488.76.76,0,0,1,.293.684q0,.586-2.539,1.66l-.1.488a11.2,11.2,0,0,0,1.367-.1Q41.7-12.988,41.7-12.5l-.586.391a4.481,4.481,0,0,0-2.051.879l-.2.684.977-.2a1.525,1.525,0,0,1,1.563-.684,2.417,2.417,0,0,1,1.367.391q.391.391.2.684a1.837,1.837,0,0,1-1.074.488A12.6,12.6,0,0,0,38.867-8.2a26.106,26.106,0,0,0-3.418,2.832,19.312,19.312,0,0,0,.2,2.734q.781,2.148,1.367,2.246a7.435,7.435,0,0,0,1.66-.977q.586-.488,1.953-1.855Q37.988-4.687,37.6-5.762a.6.6,0,0,1,.488-.684A10.859,10.859,0,0,0,41.8-8.105L42.48-8.5a13.335,13.335,0,0,1,1.758.684q.2.293-.2.488-.781,1.563-1.562,2.93,1.172.586,1.855.977,2.539,1.27,2.539,2.93a1.186,1.186,0,0,1-.586.293q-.977,0-4.883-2.441A30.07,30.07,0,0,1,38.77.586,15.555,15.555,0,0,1,37.3,2.051,2.627,2.627,0,0,1,35.059.684a7.786,7.786,0,0,1-1.172-5.078,22.608,22.608,0,0,0-2.832,2.051q-1.367,1.367-2.148,1.27-.391-.781-.586-1.27A14.433,14.433,0,0,1,29.492-4l.2.586a44.593,44.593,0,0,0,7.227-5.566Q33.2-7.91,29.688-6.543a3.328,3.328,0,0,1-.977-1.367q0-.2.391-.488a25.74,25.74,0,0,0,4-.879,9.836,9.836,0,0,0,3.711-1.758v-.2a3.7,3.7,0,0,1-2.344-.488A4.787,4.787,0,0,1,33.3-12.6l3.613-.1v-.879a4.282,4.282,0,0,1-2.832-1.66l-1.27-1.172q3.125.977,4.2.391a10.466,10.466,0,0,0-.1-2.344,6.366,6.366,0,0,0-1.367-1.172q.586-.2.977-.293A3.427,3.427,0,0,1,37.5-19.922ZM35.84-9.863l.977-.1v-.391Zm6.934,3.027a7.844,7.844,0,0,0-2.832,1.172,6.309,6.309,0,0,0,1.855.781Q42.871-6.445,42.773-6.836ZM63.379-18.262a2.436,2.436,0,0,1,1.074.2q.293.1.879.977a.657.657,0,0,1-.293.586,5.818,5.818,0,0,1-1.27.1,5.054,5.054,0,0,0-1.27.1,11.581,11.581,0,0,1-1.27.293,1.733,1.733,0,0,1,1.855,1.27A27.394,27.394,0,0,0,62.5-8.789l.391-.586A9.431,9.431,0,0,1,66.7-12.6a8.17,8.17,0,0,1,2.93-.781,1.407,1.407,0,0,1,.977.488,2.115,2.115,0,0,1,.879,1.465A4.036,4.036,0,0,1,71-10.156a24.6,24.6,0,0,1-2.246,2.93,4.777,4.777,0,0,1,.488.293A15.158,15.158,0,0,1,72.461-4.59a3.131,3.131,0,0,1,.879,1.66q0,.684-.781.684A4.053,4.053,0,0,1,70.313-3.32q-1.367-1.074-3.125-2.539A16.609,16.609,0,0,1,64.453-4.3a1.314,1.314,0,0,1-1.172-.586,1.945,1.945,0,0,1-.488-1.27q0-.488.293-.488a12.814,12.814,0,0,0,1.465.2l.781-.781A4.48,4.48,0,0,0,62.5-7.52q0,3.223-.2,8.4-.2.586-.586.586A1.733,1.733,0,0,1,60.059.391q-.1-1.172-.1-1.758l.2-.977A8.676,8.676,0,0,0,60.547-4V-6.152q-4.3,3.516-6.055,4.1a12.94,12.94,0,0,1-1.562-1.66q-.1-.1.2-.781A1.086,1.086,0,0,1,54-5.078a4.785,4.785,0,0,0,1.367,0,2.625,2.625,0,0,0,1.27-1.074,2.387,2.387,0,0,1-.879-1.074q.488-2.637,1.66-7.715a10.68,10.68,0,0,1-2.93-.684,7.185,7.185,0,0,1-1.758-1.367,39.572,39.572,0,0,0,5.078-.293q2.148-.391,5.078-.977Zm-2.441,2.344q-1.172.488-1.562.684-.1,1.074-.293,2.148a1.607,1.607,0,0,0,.488.1A12.537,12.537,0,0,1,60.938-15.918Zm-.781,2.246a.928.928,0,0,0-.391.781,4.122,4.122,0,0,1,1.074.781l.2-1.27q0-.684-.586-.391Zm.586,2.539a4.114,4.114,0,0,1-.684.1,2.174,2.174,0,0,0-.781.684,6.572,6.572,0,0,1,1.465.781Zm7.715,0q-2.246.488-3.809.781-.586,0-1.562,1.27l-.293.586q1.172-.1,2.246-.1a3.8,3.8,0,0,1,1.367.2q1.172-1.074,2.051-2.051l.2-.488ZM58.594-8.594a3.245,3.245,0,0,1-.391,1.27,2.388,2.388,0,0,0,.879-.977A1.226,1.226,0,0,1,58.594-8.594Zm2.051.293A6.375,6.375,0,0,1,58.4-7.031a1.193,1.193,0,0,1-.879.879A7.655,7.655,0,0,0,55.469-4.59v.1q1.27-.586,3.223-1.562a15.265,15.265,0,0,0,1.855-1.367ZM91.406-19.922a1.955,1.955,0,0,1,1.563.684q1.465,1.66,0,1.465a4.886,4.886,0,0,1-2.832-1.172,2.54,2.54,0,0,1-.391-.684.937.937,0,0,1,.684-.293Zm-7.031,1.758q.391.1,1.074.293a1.533,1.533,0,0,1,1.074.781.819.819,0,0,1,0,.781,39.516,39.516,0,0,0-4.785,3.516l.977-.293a3.422,3.422,0,0,1,1.074-.2q1.562,0,1.367,1.074-.879,1.074-1.562,1.855,1.66,0,1.27,1.074-.1.391-1.074,1.172L81.055-6.152q-.977.879-1.66,1.465-.586.684-.293.781A29.8,29.8,0,0,0,83.3-6.25a14.577,14.577,0,0,1,1.953-1.758.8.8,0,0,1,.2.586q0,1.172-1.953,3.223A11.3,11.3,0,0,1,79-1.465a2.216,2.216,0,0,1-1.27-.684q-.781-.684-.781-.977,0-.391,1.074-.977A11.409,11.409,0,0,0,81.934-8.5a8.237,8.237,0,0,1-1.855.586Q79.2-8.5,79.492-9.082a23.851,23.851,0,0,1,2.148-2.246q-1.367.391-3.32.781a2.741,2.741,0,0,1-.684-1.074l.879-.586q.879-.977,2.734-3.027.879-.977,1.855-2.148-.391-.391-.391-.586Q83.4-18.066,84.375-18.164Zm8.5.879q.879.293.391.781a13.312,13.312,0,0,0-1.074.977q.684.1,1.855.2,1.172.488.781,1.172a5.774,5.774,0,0,1-2.051,1.367,4.52,4.52,0,0,0-.977.586,10.439,10.439,0,0,1,2.051-.2,7.13,7.13,0,0,1,2.93.586,1.088,1.088,0,0,1,.781,1.172,1.258,1.258,0,0,1-.781.586q-1.562.586-3.125,1.27a2.085,2.085,0,0,1,1.27.488,2.6,2.6,0,0,1,.586.879,5.856,5.856,0,0,1,.1,1.953,2.586,2.586,0,0,1-1.074,1.758,5.55,5.55,0,0,1-2.344,1.074v.977l.1,1.953q-.2,1.953-.684,1.953-1.27-.1-1.27-1.562.1-.977.2-1.66a16.818,16.818,0,0,1,.1-1.855,2.161,2.161,0,0,1-.684-.879,7.454,7.454,0,0,1-.684-1.855q-.781.781-1.465-.391l.2-.684a2.665,2.665,0,0,0,1.27-.684q.1-.293.391-.977a1.342,1.342,0,0,1,.293.684q.391-.293.977-.684a3.574,3.574,0,0,0,0-1.66.76.76,0,0,1-.781-.488l-1.367.391-2.148.781q-1.465-1.367-.2-1.66a4.108,4.108,0,0,1,.977-.1l2.051-1.172a15.694,15.694,0,0,0,3.613-2.344q-2.441.781-3.809,1.367a3.777,3.777,0,0,1-.488-.684.542.542,0,0,1,.1-.684,11.618,11.618,0,0,0,1.27-1.27,10.906,10.906,0,0,0-1.465-.879q-.586-.2.1-.391,1.66-.1,3.418-.293Zm1.758,5.762a7.459,7.459,0,0,0-2.832.488q.684.391.586,1.855,1.66-1.074,3.516-2.246ZM93.457-7.812a1.344,1.344,0,0,0-1.172.488l-.1,1.172v1.758a1.688,1.688,0,0,0,1.172-.586,2.655,2.655,0,0,0,.879-1.27Q94.238-7.813,93.457-7.812Zm-3.32,1.855a4.357,4.357,0,0,0,.586,1.563q.1-1.074.1-2.051ZM108.4-17.969a4.64,4.64,0,0,1,2.051,1.367q.1.781-3.906,1.953-1.27.391-1.367,0t1.563-2.051a1.091,1.091,0,0,1,.586-1.074A1.662,1.662,0,0,1,108.4-17.969Zm3.809.293a6.42,6.42,0,0,0,1.074.977,13.815,13.815,0,0,0,3.418-.879,1.5,1.5,0,0,1,.879-.1,3.4,3.4,0,0,1,1.465.684q.586.488.977.879a.693.693,0,0,1-.1.586q-1.953,2.246-3.516,4.1a3.789,3.789,0,0,0,.488-.2q.781-.781,1.367-.684a2.26,2.26,0,0,1,1.367.684q.2.2-.391.684a9.362,9.362,0,0,0-2.148,2.051,8.082,8.082,0,0,0,1.074,1.367q1.172,1.074-1.074,3.223,1.27.586,2.441,1.27,3.32,1.855,3.711,3.613a1.433,1.433,0,0,1-.391.781,6.6,6.6,0,0,1-3.516-1.855,27.065,27.065,0,0,0-3.809-2.637q-.977.684-2.734,1.66a4.13,4.13,0,0,1-2.441.391,1.659,1.659,0,0,1-.879-.684q-.293-.391-.879-1.074-.293-.391.1-.391a4.1,4.1,0,0,1,1.66.391q.684.1,2.93-1.27a16.768,16.768,0,0,0-4.3-1.27,1.777,1.777,0,0,0-.781.586l.293-.586a3.554,3.554,0,0,1,2.637-.684,11.777,11.777,0,0,1,2.246.293q.586.2,1.66.586,2.441-1.66,1.563-2.344a5.442,5.442,0,0,1-1.074-1.758q-1.465.488-2.93,1.074-.781.2-1.172-1.465-.2-.684.781-1.367a24.063,24.063,0,0,0,5.469-5.469q-.391-.2-.879-.391a9.494,9.494,0,0,0-3.418,2.637q-.586.684-.781.488a2.844,2.844,0,0,1-1.172-1.758,12.294,12.294,0,0,0,.488-1.562,7.184,7.184,0,0,0-.293-.781Q111.719-17.969,112.207-17.676Zm-4.395,4q1.953.781,1.563,1.66-2.148,1.953-3.32,3.027.781.293.781,1.66a6.066,6.066,0,0,0-.1,1.172V-2.93a1.229,1.229,0,0,0,.488-.684,1.583,1.583,0,0,1,.391,1.367A6.434,6.434,0,0,1,106.543.391q-.488.586-1.074,0a2.769,2.769,0,0,1-.879-1.172,2.521,2.521,0,0,1-.1-1.172,27.722,27.722,0,0,0,1.074-5.762,1.238,1.238,0,0,0-.293-.586,9.221,9.221,0,0,0-1.465,1.074q-.293.293-.488-.1a2.112,2.112,0,0,1-.488-1.074v-.391q2.539-2.344,4.785-4.492l-.2-.488Q107.422-13.867,107.813-13.672Zm57.715-2.93a5.721,5.721,0,0,1,2.93,1.172q.2.293,0,.488a8.143,8.143,0,0,1-2.93,1.465,8.627,8.627,0,0,0-2.246.977,3.015,3.015,0,0,1,2.148.879,1.818,1.818,0,0,1,.391,1.172,10.587,10.587,0,0,1,1.855-.2,5.435,5.435,0,0,1,2.441.488,6.34,6.34,0,0,1,1.855,1.172,2.025,2.025,0,0,1,.586,1.27A6.649,6.649,0,0,1,171-4.1a5.483,5.483,0,0,1-4,2.344,6.384,6.384,0,0,1-.684-.391,3.03,3.03,0,0,1-.879-1.074.442.442,0,0,1-.1-.488q-3.516.293-4.883.391a4.526,4.526,0,0,0-.879-.1,1.856,1.856,0,0,1-1.074-.391.541.541,0,0,1-.1-.781,5.96,5.96,0,0,0,3.223-1.66,5.666,5.666,0,0,0,.977-1.855l-1.758.2a5.613,5.613,0,0,1-.1,1.855.938.938,0,0,1-.879.586q-.684,0-1.27-2.051a2.466,2.466,0,0,0-.977,0,1.235,1.235,0,0,0-.684.586l-.1.879a4.979,4.979,0,0,1,1.172,2.344q.1.391-.488.586a4.22,4.22,0,0,1-2.93-1.465,4.824,4.824,0,0,1-1.562-3.223q.684-.293.781-.2a16.12,16.12,0,0,0,2.637,1.953,2.435,2.435,0,0,1,1.27-2.441l.586-.293a6.571,6.571,0,0,0-.977-2.637q.293-.293.781,0l.586.391a3.7,3.7,0,0,1,1.465,1.074l.293.391q1.465-.391,2.93-.684.391-1.074-.293-1.562-.391-.391-.684-.293a11.187,11.187,0,0,1-2.734.684,5.739,5.739,0,0,0,1.563-1.367q-2.148-.977-3.125-1.465a8.3,8.3,0,0,1-1.758-1.27q-.391-.391.2-.2a8.571,8.571,0,0,0,3.223.586Q163.867-14.941,165.527-16.6Zm2.734,7.324a4.82,4.82,0,0,0-1.465.293,2.085,2.085,0,0,0-1.27.488,11.712,11.712,0,0,1-1.66,2.441,2.97,2.97,0,0,1,1.563.781A1.084,1.084,0,0,1,165.82-4.2h.586a3.215,3.215,0,0,0,1.563-.879A4.747,4.747,0,0,0,169.824-8.2l-.2-.488A1.92,1.92,0,0,0,168.262-9.277Zm23.633-6.055a6.669,6.669,0,0,1,3.809,1.27q2.051,1.367,1.855,2.734a29.454,29.454,0,0,1-1.367,5.176q-1.758,4.98-3.418,4.883a2.551,2.551,0,0,1-1.465-1.074A2.759,2.759,0,0,1,190.625-4q-2.148.2-6.348.781a2.343,2.343,0,0,1-.879-1.172,2.759,2.759,0,0,1-.684,1.66q-.293.488-.977.2Q179.883-3.711,179.59-8.2a26.744,26.744,0,0,0-.977-4.98q-.293-1.074-.1-1.27,2.637,1.953,2.832,2.637a3.94,3.94,0,0,1,1.172,2.051l.1.586a30.248,30.248,0,0,0,3.809-1.562,5.311,5.311,0,0,0-.2-1.465,2.161,2.161,0,0,0-.684-.879l-.488-.1a3,3,0,0,0-1.27-.1l-.391.1q-.1.2-.293,0,.684-1.367,3.613-1.758A38.136,38.136,0,0,1,191.895-15.332Zm-.1,1.172a14.12,14.12,0,0,0-3.809.684,2.118,2.118,0,0,1,.684.586,1.537,1.537,0,0,1,.391.586,4.108,4.108,0,0,1,.1.977,2.5,2.5,0,0,1,2.539,1.27,2.944,2.944,0,0,1-.879,1.27q-.879.879-2.148,1.953a1.782,1.782,0,0,0-.1.977,3.647,3.647,0,0,1,2.637.781,2.272,2.272,0,0,0,.586.391q.684,0,1.465-1.562a17.912,17.912,0,0,0,1.27-5.566Q194.336-13.965,191.8-14.16Zm-5.469,5.371a10.449,10.449,0,0,1-2.246.586,2.335,2.335,0,0,1-1.465-.586l.2,1.27.1,1.563.1.391a1.017,1.017,0,0,0,.586.1h.488a4.847,4.847,0,0,0,1.66-.977,3.4,3.4,0,0,0-.684-.684q-.293-.2-.293-.293a2.869,2.869,0,0,1,.684.1,3.631,3.631,0,0,0,.879.1A6.25,6.25,0,0,0,186.328-8.789Zm33.887-8.984a3.787,3.787,0,0,1,2.246.879,1.194,1.194,0,0,1,.293.879q0,.684-2.539.488-1.074-.684-1.953-1.27-.391-.2-.1-.391A2.249,2.249,0,0,1,220.215-17.773Zm6.445.977q3.32-.2,3.223,2.246A5.054,5.054,0,0,1,229.2-12.3a28.149,28.149,0,0,1,3.32,0,9.563,9.563,0,0,0,1.563-.293,12.77,12.77,0,0,1,1.367.781,4.291,4.291,0,0,1,1.074.977,1.087,1.087,0,0,1,.1.488q0,.391-.488.488a8.01,8.01,0,0,1-1.66-.293,1.662,1.662,0,0,0-1.367.293q-.2.1-.2,0,.586-.391,1.074-.781a6.684,6.684,0,0,0-2.246-.293l-1.855.2a15.8,15.8,0,0,1-1.855.293A37.969,37.969,0,0,1,224.9-6.836a5.45,5.45,0,0,0,1.172,1.074l1.367-.879a10.152,10.152,0,0,1,2.246-1.074,12.578,12.578,0,0,1,2.637-.293q2.148-.2,2.148,1.172,0,2.148-2.637,3.906-.684.293,0,.586.879.488.879,1.074,0,.293-.586.488-3.125.2-3.711-2.148-.1-.684,1.758-1.758a3.7,3.7,0,0,0,1.465-1.27v-.2l-.488-.1a5.925,5.925,0,0,0-1.758.2,19.643,19.643,0,0,0-2.637,1.172,15.423,15.423,0,0,1,1.367,2.148l.1,1.074-.1.391q-.2.684-.781.1l-.586-.586a8.54,8.54,0,0,1-2.441-4,3.027,3.027,0,0,0-.2-.586,13.057,13.057,0,0,1-1.367.684.76.76,0,0,1-.684-.293,6.87,6.87,0,0,1-.391-1.66q-.391.488-.977,1.172-.1,1.855-.293,4.785a5.131,5.131,0,0,1-.293,1.953q-.2.488-.586.293-1.465-.684-1.27-1.855a19.1,19.1,0,0,0,.781-4,12.248,12.248,0,0,1-3.809,2.344l-.293.1a3.118,3.118,0,0,1-.586-1.367q-.1-.391,1.172-1.66,3.809-4.395,3.809-5.078a8.073,8.073,0,0,1,.1-1.074,15.57,15.57,0,0,0-2.246,1.27,14.2,14.2,0,0,1-1.855,1.074q-1.563.2-1.465-1.562.1-.977.977-.977l.391.586a26.4,26.4,0,0,0,4.2-1.562l.586-.2q1.758.2,1.563,1.465l-.1.586q-.586,1.855-.879,3.027v.586a13.4,13.4,0,0,0,1.367-1.367,2.118,2.118,0,0,1,.586-.684,11,11,0,0,1-.684,1.758l.781.781a22.929,22.929,0,0,0,3.125-3.125,13.841,13.841,0,0,1-3.711-.586q-.1-.1.391-.293a15.554,15.554,0,0,1,2.93-.684,9.718,9.718,0,0,0,1.465-.293q.977-2.344.586-3.32A13.854,13.854,0,0,1,226.66-16.8Zm-7.422,8.984a11.946,11.946,0,0,0-1.562,2.148,4.279,4.279,0,0,0,1.465-1.074A6.574,6.574,0,0,1,219.238-7.812ZM250-18.457a4.565,4.565,0,0,1,1.563.977,1.582,1.582,0,0,1,.293.977,15.9,15.9,0,0,1-.1,1.758,10.436,10.436,0,0,1-.293,1.953l-.1.879q1.563-.391,3.809-.781l1.172.1a2.465,2.465,0,0,1,1.66,1.27.87.87,0,0,1-.293.977q-1.758,1.66-3.223,2.832a3.908,3.908,0,0,1-1.367.586,9.144,9.144,0,0,1-1.465.1,14.552,14.552,0,0,1-1.465-.293q-.879,1.465-1.562,1.465a1.709,1.709,0,0,1-.879-.488,6.493,6.493,0,0,1-.977-.977q-.293-.2.1-.391l1.367-.2a1.531,1.531,0,0,0,.488-1.27Q246-7.812,245.117-7.324l-.391,1.758v.488a6.153,6.153,0,0,0,4.3,2.344,31.712,31.712,0,0,0,3.906.391q2.637,0,3.809-.1a2.846,2.846,0,0,0,1.367-.488l.488-1.758a7.735,7.735,0,0,0-.1-1.27,4.138,4.138,0,0,1-.2-.977v-.1a19.832,19.832,0,0,1,2.246,3.223,4.736,4.736,0,0,1,.488,2.148,1.257,1.257,0,0,1-.879,1.172L259.18-.1a26.082,26.082,0,0,1-3.906.391,22.822,22.822,0,0,1-8.2-1.172,6.2,6.2,0,0,1-3.906-3.613,12.932,12.932,0,0,1,0-2.246,12.489,12.489,0,0,1-1.953-.391,5.27,5.27,0,0,1-1.66-.684l.1-.1a12.9,12.9,0,0,0,3.711-1.27q.2-2.148.977-1.953a.244.244,0,0,1,.391,0,2.779,2.779,0,0,1,.488.586l.2.586q1.953-.781,3.418-1.27.2-1.855.293-2.832,0-1.074.1-2.344,0-.488-.879-1.172-.2-.1-.1-.2A2.26,2.26,0,0,1,250-18.457Zm4.785,6.836q-1.855.781-3.711,1.758a9.031,9.031,0,0,1-.293,1.074l.488.1a17.727,17.727,0,0,0,2.051-.781q.488-.488,1.855-1.66A.462.462,0,0,0,254.785-11.621Z" transform="translate(-2.042 19.922)" fill="#fff"/>
</svg>
