<svg xmlns="http://www.w3.org/2000/svg" width="359.976" height="125.012" viewBox="0 0 359.976 125.012">
  <g id="グループ_60" data-name="グループ 60" transform="translate(-34.011 -1281.153)">
    <rect id="長方形_26" data-name="長方形 26" width="30.854" height="0.907" transform="translate(34.011 1287.661)"/>
    <rect id="長方形_27" data-name="長方形 27" width="0.906" height="50.338" transform="translate(40.515 1281.153)"/>
    <rect id="長方形_28" data-name="長方形 28" width="30.854" height="0.906" transform="translate(363.133 1398.75)"/>
    <rect id="長方形_29" data-name="長方形 29" width="0.907" height="50.338" transform="translate(386.579 1355.827)"/>
    <path id="パス_70" data-name="パス 70" d="M43.122,20.978H41.186a17.226,17.226,0,0,0-2.527.118V17.718a16.966,16.966,0,0,0,2.574.118h1.323V16.23h-.968a20.664,20.664,0,0,0-2.268.1V12.994a13.417,13.417,0,0,0,2.292.12h.944V12.76a8.377,8.377,0,0,0-.142-1.913H46.1a8.706,8.706,0,0,0-.142,1.913v.354h.426a10.424,10.424,0,0,0,2.031-.12v3.332a16.064,16.064,0,0,0-2.031-.1h-.426v1.606h1.8a7.107,7.107,0,0,0,1.086-.07,4.475,4.475,0,0,0,1.44-1.157,3.28,3.28,0,0,0,.8-1.818h-.591a9.048,9.048,0,0,0-1.536.094v-3.33c.779.072,1.63.118,2.645.118h5.9a20.96,20.96,0,0,0,2.457-.118,16.062,16.062,0,0,0-.141,1.96A19.876,19.876,0,0,1,59.3,18.5a2.224,2.224,0,0,1-1.11,1.25,8.254,8.254,0,0,1-2.787.332c-.212,0-.568,0-1.039-.024a8.212,8.212,0,0,0-.591-2.693,5.2,5.2,0,0,1-1.628,2.126,6.175,6.175,0,0,1-1.606,1.11h6.494a25.18,25.18,0,0,0,2.645-.094,23.788,23.788,0,0,0-.094,2.527V25.7a21.643,21.643,0,0,0,.094,2.527c-.686-.048-1.37-.072-2.433-.072H52.073c-1.276,0-2.008.024-2.669.072a17.338,17.338,0,0,0,.118-2.457V22.348a16.9,16.9,0,0,0-.046-1.818c.377.046.519.046.825.07A7.808,7.808,0,0,0,49,18.805V21.1a12.565,12.565,0,0,0-2.15-.118h-.447v1.984h.637a10.388,10.388,0,0,0,1.913-.118v3.212a10.547,10.547,0,0,0-1.913-.118h-.637v2.81a21.271,21.271,0,0,0,5.715.473,82.948,82.948,0,0,0,8.737-.4,12.93,12.93,0,0,0-.921,3.614c-3.921.07-6.046.094-6.423.094-5.032,0-7.251-.236-8.715-.945a8,8,0,0,1-3.024-2.526,21.282,21.282,0,0,1-1.205,3.707,12.263,12.263,0,0,0-2.455-2.385,13.711,13.711,0,0,0,1.228-4.345,18.573,18.573,0,0,0,.212-3.118,8.841,8.841,0,0,0-.07-1.087l2.952.426a7.746,7.746,0,0,0-.024.8c-.024.968-.046,1.63-.118,2.55a4.692,4.692,0,0,0,.827,1.135Zm9.754,4.275h3.236V23.435H52.876ZM54.459,14.79a9.621,9.621,0,0,1-.567,2.291,11.837,11.837,0,0,0,1.488.118c.449,0,.661-.094.755-.354a7.971,7.971,0,0,0,.212-2.055Z" transform="translate(49.498 1285.56)"/>
    <path id="パス_71" data-name="パス 71" d="M65.6,16.315a3.868,3.868,0,0,1-1.252,3,4.182,4.182,0,0,1-2.291,1.11L61.015,18.63a3.325,3.325,0,0,0,1.866-.733,1.954,1.954,0,0,0,.661-1.582H60.827V11.569H65.6Zm6.306,0a3.933,3.933,0,0,1-1.228,3,4.357,4.357,0,0,1-2.291,1.11L67.345,18.63A3.32,3.32,0,0,0,69.21,17.9a1.943,1.943,0,0,0,.638-1.582H67.157V11.569H71.9Z" transform="translate(58.725 1285.853)"/>
    <path id="パス_72" data-name="パス 72" d="M84.314,23.6c0-.591,0-.921.024-1.8a26.369,26.369,0,0,1-9.826,8.6,10.919,10.919,0,0,0-2.787-3.566c4.772-2.268,7.723-4.676,9.9-8.054H76.757a34.342,34.342,0,0,0-3.566.141V14.86a28.189,28.189,0,0,0,3.637.188H84.22l-.024-1.18a23.992,23.992,0,0,0-.142-2.669H88.47a21.238,21.238,0,0,0-.094,2.291v1.582h1.488a20.4,20.4,0,0,0,3.378-.188v4.037a28.6,28.6,0,0,0-3.308-.117h-1.51l.117,10.179a31.422,31.422,0,0,0,.167,3.258H84.172a17.26,17.26,0,0,0,.19-2.881v-.329l-.048-4.487Z" transform="translate(63.153 1285.703)"/>
    <path id="パス_73" data-name="パス 73" d="M94.656,22.522c-1.7,0-2.267.024-3.471.118V18.72a23.447,23.447,0,0,0,3.541.166h3.5V15.7H96.191a29.922,29.922,0,0,0-3.566.117V11.871a18.1,18.1,0,0,0,3.613.188h10.085a20.455,20.455,0,0,0,3.78-.188v3.943c-1.181-.094-1.726-.117-3.708-.117h-4.039v3.188h5.527a22.492,22.492,0,0,0,3.708-.166V22.64c-1.205-.094-1.749-.118-3.638-.118h-5.621v2.9c0,1.063.046,1.394.308,1.607.283.259.8.353,1.865.353a24.006,24.006,0,0,0,6.188-.637l.094,4.181a2.948,2.948,0,0,0-.447-.024,8.166,8.166,0,0,0-.923.046c-1.51.142-3.707.236-4.959.236-2.621,0-3.992-.212-4.864-.779-.969-.615-1.371-1.748-1.371-3.779V22.522Z" transform="translate(71.059 1285.976)"/>
    <path id="パス_74" data-name="パス 74" d="M114.891,29.432v1.63h-4.3a30.016,30.016,0,0,0,.19-3.849V15.074c0-1.015-.024-1.748-.1-2.717a27.342,27.342,0,0,0,2.859.1h12.728a26.543,26.543,0,0,0,2.929-.1c-.048.827-.072,1.678-.072,2.787V27.119a31.773,31.773,0,0,0,.166,3.9h-4.275V29.432Zm10.132-13.2H114.891v9.424h10.132Z" transform="translate(78.945 1286.173)"/>
    <path id="パス_75" data-name="パス 75" d="M133.444,12.29a29.6,29.6,0,0,0-.259,4.275c0,5.29.755,9.282,1.747,9.282.26,0,.52-.307.757-.921a24.209,24.209,0,0,0,1.229-4.085,14.888,14.888,0,0,0,3.282,2.976,20.05,20.05,0,0,1-1.794,4.558,4.156,4.156,0,0,1-3.592,2.409,4.046,4.046,0,0,1-3.377-2.031c-1.228-1.748-1.865-4.109-2.173-7.864-.118-1.654-.214-3.638-.26-6.92-.024-.8-.024-1.039-.094-1.678Zm10.888.851c3.07,3.708,4.8,8.03,5.456,13.745l-4.229,1.56a23.5,23.5,0,0,0-4.817-13.651Z" transform="translate(86.387 1286.146)"/>
    <path id="パス_76" data-name="パス 76" d="M151.964,16.315a3.868,3.868,0,0,1-1.252,3,4.182,4.182,0,0,1-2.291,1.11l-1.039-1.794a3.329,3.329,0,0,0,1.866-.733,1.954,1.954,0,0,0,.661-1.582h-2.716V11.569h4.77Zm6.306,0a3.933,3.933,0,0,1-1.228,3,4.357,4.357,0,0,1-2.291,1.11l-1.039-1.794a3.32,3.32,0,0,0,1.865-.733,1.943,1.943,0,0,0,.638-1.582h-2.692V11.569h4.746Z" transform="translate(93.815 1285.853)"/>
    <path id="パス_77" data-name="パス 77" d="M175.555,21.6h4.96a20.452,20.452,0,0,0,2.431-.094V24.06a20.558,20.558,0,0,0-2.385-.094h-5.974v.825h6.282a23.743,23.743,0,0,0,2.763-.094v3.047a21.5,21.5,0,0,0-2.763-.118h-3.5a18.132,18.132,0,0,0,6.778,2.031,14.5,14.5,0,0,0-1.724,3.282,20.422,20.422,0,0,1-4.3-1.416,12.944,12.944,0,0,1-3.613-2.268c.048.615.072.993.072,1.347v.9a6.122,6.122,0,0,0,.141,1.606h-3.873A7.558,7.558,0,0,0,171,31.5v-.9a8.191,8.191,0,0,1,.072-1.347,12.815,12.815,0,0,1-3.922,2.481,27.36,27.36,0,0,1-3.921,1.252,12.374,12.374,0,0,0-1.7-3.164,15.554,15.554,0,0,0,6.567-2.2h-3.332a20.457,20.457,0,0,0-2.716.118V24.7a22.521,22.521,0,0,0,2.716.094H171v-.825h-4.18c-.969,0-1.63.023-2.339.07a18.422,18.422,0,0,0,.094-2.173V19.927a15.956,15.956,0,0,1,.07-1.772,14.22,14.22,0,0,1-1.748,1.606,11.048,11.048,0,0,0-1.534-3.424,13.614,13.614,0,0,0,3.991-4.3,6.64,6.64,0,0,0,.731-1.512l3.8.5a18.1,18.1,0,0,1-1.017,1.7h3.378a10.834,10.834,0,0,0,1.039-2.173l3.8.33c-.378.707-.685,1.228-1.063,1.842h4.251a17.774,17.774,0,0,0,2.431-.118v2.81c-.495-.048-1.038-.07-1.841-.07h-5.314v.731h4.061A14.845,14.845,0,0,0,182,15.982v2.173a19.614,19.614,0,0,0-2.386-.07h-4.061v.731h4.061A15.335,15.335,0,0,0,182,18.721v2.173a18.968,18.968,0,0,0-2.386-.07h-4.061Zm-3.472-6.258h-4.037v.733h4.037Zm0,2.739h-4.037v.733h4.037ZM168.045,21.6h4.037v-.779h-4.037Z" transform="translate(99.571 1285.43)"/>
    <path id="パス_78" data-name="パス 78" d="M180.837,32.616a27.325,27.325,0,0,0,.142-3.284v-15.3a25.436,25.436,0,0,0-.118-2.763,23.627,23.627,0,0,0,2.763.118h15.4a23.642,23.642,0,0,0,2.763-.118,24.916,24.916,0,0,0-.118,2.763v15.3a28.43,28.43,0,0,0,.142,3.284H198.1V31.435H184.568v1.181Zm3.731-4.393h13.485V14.62H184.568Zm2.858-8.36a14.505,14.505,0,0,0-2.173.118V16.627a13.225,13.225,0,0,0,2.173.118h4.748a5.326,5.326,0,0,0-.142-1.582h3.756a5.422,5.422,0,0,0-.142,1.582h.118a10.06,10.06,0,0,0,1.7-.118v3.354a11.445,11.445,0,0,0-1.818-.118v4.912c0,2.433-.709,2.952-4.039,2.952q-.709,0-2.055-.07a8.5,8.5,0,0,0-.685-2.811l-.8.45a15.851,15.851,0,0,0-2.291-3.945l2.669-1.488Zm1.394,0a19.48,19.48,0,0,1,2.363,3.708l-1.842,1.015a12.058,12.058,0,0,0,1.983.165c.685,0,.851-.165.851-.755V19.863Z" transform="translate(107.484 1285.73)"/>
    <path id="パス_79" data-name="パス 79" d="M199.607,13.04c.4.024.707.024.9.024.615,0,1.464-.048,4.039-.212,3.4-.212,5.691-.33,10.179-.5l2.433-.094.991-.048c.8-.023.945-.046,1.063-.046a2.017,2.017,0,0,0,.543-.094l.212,4.275a3.544,3.544,0,0,0-.661-.048,11.058,11.058,0,0,0-5.409,1.654c-2.361,1.44-3.755,3.423-3.755,5.361a3.017,3.017,0,0,0,1.983,2.928,12.483,12.483,0,0,0,4.511.851c.188,0,.354,0,.709-.024l-.543,4.487a5.821,5.821,0,0,0-.873-.118,17.838,17.838,0,0,1-5.975-1.323,6.713,6.713,0,0,1-4.227-6.47,8.081,8.081,0,0,1,2.007-5.338,9.684,9.684,0,0,1,2.315-2.007l-1.111.118c-.519.046-1.346.118-5.762.473a26.183,26.183,0,0,0-3.33.449Zm16.745,5.385a15.222,15.222,0,0,1,2.289,3.424l-2.267,1.039a14.63,14.63,0,0,0-2.291-3.495Zm3.164-1.37a16.319,16.319,0,0,1,2.315,3.33l-2.2,1.015a16.939,16.939,0,0,0-2.243-3.4Z" transform="translate(115.11 1286.057)"/>
    <path id="パス_80" data-name="パス 80" d="M220.6,20.6a30.177,30.177,0,0,1,5.763,5.29l-3,3.046a30.577,30.577,0,0,0-5.575-5.621Z" transform="translate(122.498 1289.524)"/>
    <path id="パス_81" data-name="パス 81" d="M79.8,47.529h4.582a22.764,22.764,0,0,0,3.9-.188V51.5a37.28,37.28,0,0,0-3.827-.141H71.135a36.115,36.115,0,0,0-3.8.117V47.341a27.718,27.718,0,0,0,3.873.188h4.3V38.578h-2.6a35.436,35.436,0,0,0-3.827.118V34.611a25.471,25.471,0,0,0,3.9.188h9.612a26.643,26.643,0,0,0,3.9-.188V38.7a36.017,36.017,0,0,0-3.827-.118H79.8Z" transform="translate(61.369 1295.215)"/>
    <path id="パス_82" data-name="パス 82" d="M89.391,33.99a34.563,34.563,0,0,1,6.5,4.63L93.1,42.3a25.221,25.221,0,0,0-6.425-4.984ZM86.912,48.656a23.676,23.676,0,0,0,7.107-1.7,14.2,14.2,0,0,0,6.92-5.833,21.681,21.681,0,0,0,2.315-4.63,15.277,15.277,0,0,0,3.472,3.166c-2.15,4.652-4.393,7.439-7.7,9.564-2.551,1.654-4.8,2.527-9.187,3.542-.921.212-1.062.236-1.7.425Z" transform="translate(69.226 1294.963)"/>
    <path id="パス_83" data-name="パス 83" d="M116.15,33.54c-.024.048-.354.707-1.015,2.055l6.354-.072a2.612,2.612,0,0,0,1.44-.307l2.1,2.079a2.144,2.144,0,0,0-.543,1.015,30.362,30.362,0,0,1-4.393,9.117,22.646,22.646,0,0,1-5.739,5.337,27.448,27.448,0,0,1-4.063,2.173,13.186,13.186,0,0,0-2.762-3.542,19.352,19.352,0,0,0,8.006-4.842,25.459,25.459,0,0,0-4.393-2.928l2.481-2.976a30.715,30.715,0,0,1,4.345,2.692A16.734,16.734,0,0,0,120,39.019l-6.542.048a24.85,24.85,0,0,1-5.385,6.4,11.57,11.57,0,0,0-3.4-2.669,20.365,20.365,0,0,0,5.88-6.778,15.193,15.193,0,0,0,1.371-3.306Z" transform="translate(76.539 1294.444)"/>
    <path id="パス_84" data-name="パス 84" d="M142.268,34.688a18.1,18.1,0,0,0-.991,2.2,41.647,41.647,0,0,1-3.142,6.234,51.193,51.193,0,0,1,5.148,4.96l-3.211,3.354a36.382,36.382,0,0,0-4.465-4.842,28.414,28.414,0,0,1-9.139,7.511,12.076,12.076,0,0,0-2.976-3.566A24.192,24.192,0,0,0,132.42,43.8a50.122,50.122,0,0,0-6.14-4.2l2.905-2.858a54.091,54.091,0,0,1,5.573,3.708,25.674,25.674,0,0,0,3.07-7.251Z" transform="translate(84.186 1294.642)"/>
    <path id="パス_85" data-name="パス 85" d="M145.451,42.525a21.249,21.249,0,0,0-2.292.094V39.9a19.906,19.906,0,0,0,2.292.094h2.361a10.02,10.02,0,0,0-.591-1.133h-2.077c-1.135,0-2.126.048-2.929.118V35.841a18.571,18.571,0,0,0,2.644.142,8.525,8.525,0,0,0-1.274-1.89l3.354-1.132a21.885,21.885,0,0,1,1.558,3.022h.685V34.449a11.585,11.585,0,0,0-.118-1.7h3.542a12.7,12.7,0,0,0-.072,1.536v1.7h.969v-1.7a9.4,9.4,0,0,0-.094-1.536h3.542a10.756,10.756,0,0,0-.094,1.7v1.534h.709a14.611,14.611,0,0,0,1.512-3.046l3.353,1.156a22.165,22.165,0,0,1-1.181,1.89,18.609,18.609,0,0,0,2.717-.142v3.142c-.8-.07-1.818-.118-2.952-.118h-1.96c-.283.613-.354.709-.568,1.133h2.221a20.871,20.871,0,0,0,2.315-.094v2.716a21.683,21.683,0,0,0-2.315-.094h-6.022v.731h5.03a21.355,21.355,0,0,0,2.315-.094v2.5a21.033,21.033,0,0,0-2.315-.1h-5.03V46.3h6.14a23.543,23.543,0,0,0,3.024-.142v2.976a29.47,29.47,0,0,0-3-.142h-3.637c1.606,1.205,3.9,2.008,7.179,2.5a13.517,13.517,0,0,0-1.771,3.354,17.582,17.582,0,0,1-8.006-4.251c.046.638.07.757.07,1.347V52.7a15.8,15.8,0,0,0,.118,2.315h-3.756a13.6,13.6,0,0,0,.167-2.339v-.707c0-.591,0-.662.023-1.323a13.678,13.678,0,0,1-3.189,2.385,21.308,21.308,0,0,1-4.39,1.818,11.91,11.91,0,0,0-1.914-3.211A15.531,15.531,0,0,0,148.734,49h-3.306a29.386,29.386,0,0,0-3.046.142V46.162a26.175,26.175,0,0,0,3.022.142h5.763v-.733h-4.725a20.282,20.282,0,0,0-2.289.1v-2.5a20.061,20.061,0,0,0,2.289.094h4.725v-.731ZM154.685,40c.236-.5.307-.661.5-1.133h-4.2a10.758,10.758,0,0,1,.45,1.133Z" transform="translate(91.601 1294.458)"/>
    <path id="パス_86" data-name="パス 86" d="M165.346,43.39c-1.228,0-2.032.024-2.763.07a16.87,16.87,0,0,0,.142-2.692V35.857a17.371,17.371,0,0,0-.142-2.741c.779.072,1.488.094,2.834.094h13.06c1.322,0,2.032-.022,2.81-.094a16.707,16.707,0,0,0-.141,2.741v4.912a16.374,16.374,0,0,0,.141,2.692c-.755-.046-1.558-.07-2.81-.07H177.3a15.919,15.919,0,0,0,6.07,2.762,15.117,15.117,0,0,0-1.654,3.59A23.448,23.448,0,0,1,177.3,47.5v4.416a24.532,24.532,0,0,0,.142,2.811h-3.921c.072-.851.118-1.724.118-2.834V47.546c0-.8-.024-1.394-.07-1.913h1.3a14.394,14.394,0,0,1-2.08-2.243h-1.865a13.736,13.736,0,0,1-1.96,2.219h1.724a5.373,5.373,0,0,0-.094,1.015c-.118,2.575-.709,4.3-2.031,5.669a9.671,9.671,0,0,1-5.1,2.669,13.44,13.44,0,0,0-2.1-3.07,9.275,9.275,0,0,0,4.133-1.63,3.855,3.855,0,0,0,1.44-3.024A18.98,18.98,0,0,1,162.2,49.7a14.779,14.779,0,0,0-1.724-3.4,12.968,12.968,0,0,0,5.975-2.905Zm.944-6.259h3.827V36.116h-3.827Zm0,3.5h3.827V39.612h-3.827Zm7.3-3.5h3.969V36.116h-3.969Zm0,3.5h3.969V39.612h-3.969Z" transform="translate(99.213 1294.608)"/>
    <path id="パス_87" data-name="パス 87" d="M180.721,35.122a22.977,22.977,0,0,0,4.89.33h.661A8.571,8.571,0,0,0,187,32.831l4.32.33a6.9,6.9,0,0,0-.5,1.11c-.307.685-.449,1.063-.473,1.111.236-.024.236-.024,1.441-.1a34.523,34.523,0,0,0,5.975-.755l.141,3.755c-.733.072-1.44.142-2.126.212-1.676.166-4.628.332-7.037.4a12.773,12.773,0,0,1-1.133,1.748,6.973,6.973,0,0,1,3-.709c1.96,0,3.142.755,3.613,2.291.4-.142.4-.142,1.654-.567.072-.024.709-.236,1.464-.473a9.943,9.943,0,0,0,1.89-.709l1.44,3.732a38.84,38.84,0,0,0-6.022,1.606c.024.637.024.661.024,1.7a14.748,14.748,0,0,0,.094,2.031l-3.85.118a19.538,19.538,0,0,0,.118-2.5l-.212.094a5.347,5.347,0,0,0-1.652.991,1.628,1.628,0,0,0-.615,1.205c0,.9.873,1.252,3.166,1.252a22.351,22.351,0,0,0,7.557-1.181l.259,4.251a15.355,15.355,0,0,0-2.1.212,46.615,46.615,0,0,1-5.693.354c-2.669,0-4.345-.33-5.621-1.086a3.8,3.8,0,0,1-1.865-3.354,4.386,4.386,0,0,1,1.157-2.976,10.39,10.39,0,0,1,3.4-2.527c.567-.284.8-.378,1.747-.8a.974.974,0,0,0-.945-.591c-1.2,0-2.834.827-4.486,2.267a15,15,0,0,0-2.267,2.385l-3-2.976a16.2,16.2,0,0,0,2.5-2.455c.52-.638,1.465-2.008,1.818-2.575.354-.591.354-.591.449-.755h-.755c-1.015,0-1.015,0-2.032-.024-.33-.024-.5-.024-.825-.024h-.356Z" transform="translate(107.092 1294.492)"/>
    <path id="パス_88" data-name="パス 88" d="M45.782,65.376a50.24,50.24,0,0,1,9.854,5.015l-3,5.544a42.779,42.779,0,0,0-10.1-5.508ZM43.56,80.808a33.29,33.29,0,0,0,10.875-2.261c6.6-2.613,11.264-7.8,13.772-15.431A22.019,22.019,0,0,0,73.4,67.53C68.914,78.619,60.9,84.691,47.831,86.916a24.752,24.752,0,0,0-2.507.6Zm4.873-24.084a61.748,61.748,0,0,1,10.134,4.662l-3.142,5.4a43.694,43.694,0,0,0-10.137-5.05Zm18.257-.318A24.707,24.707,0,0,1,69.8,62.02L66.3,63.293a25.039,25.039,0,0,0-3.109-5.722ZM71.6,54.782a23.456,23.456,0,0,1,3.142,5.438L71.35,61.456a25.148,25.148,0,0,0-3.073-5.544Z" transform="translate(51.293 1303.41)"/>
    <path id="パス_89" data-name="パス 89" d="M77.254,63.226a16.15,16.15,0,0,0-.741-3l5.791-.847a16.112,16.112,0,0,0,.319,3.036l.423,2.119L93.463,62.8a4.331,4.331,0,0,0,2.083-.671l3.32,3.036a4.942,4.942,0,0,0-.883,1.907A22.185,22.185,0,0,1,90.921,77.1a15.489,15.489,0,0,0-4.485-3.389,15.725,15.725,0,0,0,5.3-5.58l-7.77,1.343,2.084,10.876a30.373,30.373,0,0,0,1.166,4.908l-6.146,1.06a35.051,35.051,0,0,0-.634-4.909L78.527,70.394l-2.3.39a26.8,26.8,0,0,0-3.5.811l-.953-5.4a32.291,32.291,0,0,0,3.742-.39l2.119-.353Z" transform="translate(63.175 1305.277)"/>
    <path id="パス_90" data-name="パス 90" d="M105.248,61.864a44.48,44.48,0,0,1,3.426,8.934l-5.51,1.661a44.929,44.929,0,0,0-3.142-9.147Zm20.552.6a14.324,14.324,0,0,0-.529,2.153c-1.059,4.98-2.437,8.581-4.414,11.512a25.671,25.671,0,0,1-7.415,7.169,47.98,47.98,0,0,1-4.272,2.365,18.044,18.044,0,0,0-3.886-4.978c7.1-2.755,10.948-6.286,13.136-12.149a24.665,24.665,0,0,0,1.555-7.451Zm-12.782-2.084A36.13,36.13,0,0,1,116.442,69l-5.4,1.659a41.644,41.644,0,0,0-3.18-8.864Z" transform="translate(74.65 1305.686)"/>
    <path id="パス_91" data-name="パス 91" d="M143.967,56.46a5.306,5.306,0,0,0-.425.882c-.072.107-.142.319-.247.53-.141.353-.248.6-.318.743-.458,1.022-.458,1.022-.706,1.517l8.864-.105a5.874,5.874,0,0,0,2.613-.39l2.931,2.9a8.7,8.7,0,0,0-1.024,2.507,37.372,37.372,0,0,1-7.309,13.984c-3.215,3.672-7.206,6.461-13,9.11a16.313,16.313,0,0,0-4.239-5.368,30.939,30.939,0,0,0,11.795-7.2,24.831,24.831,0,0,0,5.9-10.03l-9.393.107a33.141,33.141,0,0,1-8.017,8.864,17.509,17.509,0,0,0-5.013-4.239A27.794,27.794,0,0,0,135.774,59.5a13.474,13.474,0,0,0,1.519-4.237Z" transform="translate(85.359 1303.604)"/>
    <path id="パス_92" data-name="パス 92" d="M154.345,59.5c.883.07,1.271.105,2.154.105.953,0,10.452-.248,13.737-.353a19.979,19.979,0,0,0-.246-3.744h6.25a23.788,23.788,0,0,0-.177,3.6c5.863-.037,8.476-.107,9.888-.248l.037,5.791a59,59,0,0,0-6.358-.177c-1.872,0-2.118,0-3.531.037v5.226a11.222,11.222,0,0,1,1.413,5.9c0,3.954-2.049,7.414-5.828,9.781a28.527,28.527,0,0,1-7.1,2.86,15.908,15.908,0,0,0-3.354-5.58c3.565-.529,5.579-1.094,7.273-2.153a5.842,5.842,0,0,0,2.613-2.79,6.439,6.439,0,0,1-4.731,1.659c-4.1,0-6.992-2.683-6.992-6.462,0-4.026,3.32-6.78,8.193-6.78a7.967,7.967,0,0,1,2.754.388V65.469a5.773,5.773,0,0,0-.035-.848c-7.309.211-13.066.529-15.784.918Zm10.983,13.171a2.09,2.09,0,0,0,2.33,1.907c1.517,0,2.683-.918,2.683-2.119,0-1.094-.917-1.837-2.33-1.837-1.554,0-2.683.848-2.683,2.049" transform="translate(96.721 1303.706)"/>
    <path id="パス_93" data-name="パス 93" d="M186.8,56.759a39.7,39.7,0,0,0,5.085.246c3.142,0,7.062-.141,10.63-.423a7.12,7.12,0,0,0,2.685-.494l2.894,4.272c-.918.53-.918.53-5.686,4.625-1.872,1.589-2.506,2.119-4.873,3.85a16.865,16.865,0,0,1,4.838-.637c3.319,0,5.684.778,7.557,2.4a7.839,7.839,0,0,1,2.576,6.109,9.224,9.224,0,0,1-4.873,8.3,19.192,19.192,0,0,1-9.356,2.225c-5.968,0-9.6-2.365-9.6-6.285,0-3.285,2.931-5.65,7.026-5.65a8.127,8.127,0,0,1,7.947,5.508c1.906-.848,2.787-2.048,2.787-3.849,0-2.472-2.4-3.99-6.318-3.99a20.312,20.312,0,0,0-10.878,3.247,26.489,26.489,0,0,0-3.391,2.649L182.561,73.5c3.249-1.517,10.7-7.31,15.081-11.653-1.873.211-3.285.281-8.265.529-.953.035-1.624.105-2.33.177Zm8.76,23.024c-.813,0-1.38.458-1.38,1.166,0,.952,1.131,1.553,3.036,1.553a5.373,5.373,0,0,0,1.167-.105c-.46-1.7-1.448-2.613-2.824-2.613" transform="translate(108.185 1303.941)"/>
    <path id="パス_94" data-name="パス 94" d="M223.342,75.98a6.709,6.709,0,1,1-6.709-6.709,6.707,6.707,0,0,1,6.709,6.709m-9.781,0a3.073,3.073,0,1,0,3.071-3.073,3.076,3.076,0,0,0-3.071,3.073" transform="translate(119.302 1309.297)"/>
  </g>
</svg>
